<?xml version="1.0" encoding="utf-8"?>
<!-- Generator: Adobe Illustrator 19.0.1, SVG Export Plug-In . SVG Version: 6.00 Build 0)  -->
<svg version="1.1" id="Слой_1" xmlns="http://www.w3.org/2000/svg" xmlns:xlink="http://www.w3.org/1999/xlink" x="0px" y="0px"
	 viewBox="0 0 253.5 146" style="enable-background:new 0 0 253.5 146;" xml:space="preserve">
<style type="text/css">
	.st0{fill:none;}
	.st1{fill:#FFFFFF;}
	.st2{fill:#D4145A;}
	.st3{fill:none;stroke:#FFFFFF;stroke-width:6;stroke-miterlimit:10;}
</style>
<g>
	<g>
		<g>
			<path class="st0" d="M72.3,33.6c-0.9,0-1.7,0-2.3,0.1v10.1h2.4c3.7,0,6-1.6,6-4.3C78.4,38.4,78.4,33.6,72.3,33.6z"/>
			<path class="st1" d="M61.7,69.1l16.7,0c1.2,0.2,9.6-2.5,9.6-10.9c0-4.5-2.4-7.6-5.3-9.3c0,0,0.1-0.1,0.1-0.1H61.7V69.1z M72,53.1
				c2.8,0,7.5,0.7,7.5,5.2c0,4.3-4.1,5.2-7.5,5.2c-0.8,0-1.5,0-2.1,0V53.1H72z"/>
			<path class="st1" d="M86.7,39c0-3.3-1.3-7.8-3.7-9.6c-2.6-2.1-6-3-11-3c-3.2,0-6.6,0.3-8.9,0.8l-1.4,0.3v19.2h21.1
				C85.3,44.8,86.7,42,86.7,39z M72.4,43.7h-2.4V33.7c0.7-0.1,1.4-0.1,2.3-0.1c6.1,0,6.1,4.8,6.1,5.9C78.4,42.1,76.1,43.7,72.4,43.7
				z"/>
			<rect x="90.6" y="26.7" class="st1" width="8.3" height="20"/>
			<path class="st2" d="M112.5,52.1c0,9.7-5.3,9.7-7,9.7c-5.5,0-6.6-5.3-6.6-9.7v-3.2h-8.3v3c0,10.9,5.4,17.2,14.7,17.2
				c9.8,0,15.4-6.3,15.4-17.4v-2.8h-8.3V52.1z"/>
			<rect x="112.5" y="26.7" class="st1" width="8.3" height="20"/>
			<polygon class="st2" points="138.1,68.6 161.7,68.6 161.7,61.1 146.3,61.1 146.3,48.9 138.1,48.9 			"/>
			<rect x="138.1" y="26.7" class="st1" width="8.2" height="20"/>
			<path class="st2" d="M188.1,48.9c-0.3,8.3-5,12.7-13.6,12.7c-0.9,0-1.9,0-2.9-0.1V48.9h-8.2v19.4l1.6,0.2
				c2.6,0.3,5.5,0.4,8.7,0.4c7.5,0,13.5-2,17.2-5.7c3.5-3.5,5.5-8.4,5.7-14.3H188.1z"/>
			<path class="st2" d="M171.6,33.9c0.9-0.1,2.1-0.2,3.7-0.2c4.3,0,7.6,1.1,9.8,3.3c2,2,3.1,5,3,8.8c0,0.3,0,0.6,0,0.9h8.4
				c0-0.3,0-0.7,0-1c0-6-1.9-10.8-5.6-14.3c-3.6-3.3-8.8-5-15.8-5c-3.4,0-6.8,0.3-10.2,0.8l-1.5,0.2v19.2h8.2V33.9z"/>
			<polygon class="st1" points="129.1,26.7 125.3,26.7 125.3,46.7 129.1,46.7 133.5,46.7 133.5,26.7 			"/>
			<polygon class="st2" points="129.1,48.9 125.3,48.9 125.3,68.9 129.1,68.9 133.5,68.9 133.5,48.9 			"/>
		</g>
		<g>
			<rect x="49.1" y="78.1" class="st2" width="155.2" height="2.7"/>
		</g>
		<g>
			<path class="st1" d="M65.9,89.2l4.6,12.3c0.5,1.4,1,3,1.4,4.3H72c0.4-1.2,0.8-2.8,1.4-4.4l4.2-12.2h4.1L75.8,104
				c-2.8,7.2-4.6,10.8-7.3,13.1c-1.9,1.6-3.8,2.3-4.7,2.5l-1-3.2c1-0.3,2.2-0.9,3.4-1.9c1.1-0.8,2.4-2.3,3.2-4.2
				c0.2-0.4,0.3-0.7,0.3-0.9c0-0.2-0.1-0.5-0.3-1l-7.8-19.2H65.9z"/>
			<path class="st1" d="M103.8,99.4c0,7.7-5.4,11.1-10.5,11.1c-5.7,0-10.2-4.1-10.2-10.7c0-7,4.6-11.1,10.5-11.1
				C99.7,88.7,103.8,93.1,103.8,99.4z M87,99.6c0,4.6,2.7,8,6.4,8c3.7,0,6.4-3.4,6.4-8.1c0-3.5-1.8-8-6.3-8C89,91.5,87,95.7,87,99.6
				z"/>
			<path class="st1" d="M126.4,104.3c0,2.2,0,4.1,0.2,5.7h-3.4l-0.2-3.4h-0.1c-1,1.7-3.2,3.9-7,3.9c-3.3,0-7.3-1.8-7.3-9.1V89.2h3.9
				v11.5c0,4,1.2,6.6,4.7,6.6c2.6,0,4.4-1.8,5.1-3.4c0.2-0.6,0.4-1.2,0.4-1.9V89.2h3.9V104.3z"/>
			<path class="st1" d="M132.8,95.7c0-2.5,0-4.6-0.2-6.5h3.4l0.1,4.1h0.2c1-2.8,3.3-4.6,5.9-4.6c0.4,0,0.7,0,1.1,0.1v3.6
				c-0.4-0.1-0.8-0.1-1.3-0.1c-2.7,0-4.6,2-5.2,4.9c-0.1,0.5-0.2,1.1-0.2,1.8V110h-3.8V95.7z"/>
			<path class="st1" d="M156.4,96c0-2.7-0.1-4.8-0.2-6.8h3.5l0.2,3.6h0.1c1.6-2.5,4.1-4.1,7.5-4.1c5.1,0,9,4.3,9,10.6
				c0,7.5-4.6,11.2-9.6,11.2c-2.8,0-5.3-1.2-6.5-3.3h-0.1v11.3h-3.8V96z M160.2,101.5c0,0.6,0.1,1.1,0.2,1.6c0.7,2.6,3,4.4,5.8,4.4
				c4.1,0,6.4-3.3,6.4-8.1c0-4.2-2.2-7.8-6.3-7.8c-2.6,0-5.1,1.9-5.8,4.7c-0.1,0.5-0.3,1-0.3,1.6V101.5z"/>
			<path class="st1" d="M196.4,109.3c-1,0.5-3.2,1.2-6.1,1.2c-6.4,0-10.5-4.3-10.5-10.6c0-6.4,4.5-11.1,11.4-11.1
				c2.3,0,4.3,0.6,5.3,1.1l-0.9,2.9c-0.9-0.5-2.4-1-4.5-1c-4.9,0-7.5,3.5-7.5,7.9c0,4.8,3.2,7.8,7.4,7.8c2.2,0,3.6-0.6,4.7-1
				L196.4,109.3z"/>
		</g>
	</g>
	<rect x="3" y="3" class="st3" width="247.5" height="140"/>
</g>
</svg>
