<?xml version="1.0" encoding="utf-8"?>
<!-- Generator: Adobe Illustrator 19.0.1, SVG Export Plug-In . SVG Version: 6.00 Build 0)  -->
<svg version="1.1" id="Layer_1" xmlns="http://www.w3.org/2000/svg" xmlns:xlink="http://www.w3.org/1999/xlink" x="0px" y="0px"
	 viewBox="-424 675.7 186.1 67.9" style="enable-background:new -424 675.7 186.1 67.9;" xml:space="preserve">
<style type="text/css">
	.st0{fill:#FFFFFF;}
	.st1{fill:#BAB9B9;}
	.st2{fill:#878787;}
	.st3{fill:#BFBFBF;}
</style>
<g>
	<rect x="-415.5" y="675.7" class="st0" width="19.8" height="19.8"/>
	<rect x="-404.4" y="690.1" class="st1" width="17.5" height="17.5"/>
	<rect x="-424" y="704.4" class="st2" width="24.1" height="24.1"/>
	<g>
		<path class="st0" d="M-379.6,687.8h5.3v36.3h17.4v4.4h-22.7V687.8z"/>
		<path class="st0" d="M-318.6,707.7c0,14-8.5,21.5-18.9,21.5c-10.8,0-18.3-8.3-18.3-20.7c0-12.9,8-21.4,18.9-21.4
			C-325.8,687.1-318.6,695.6-318.6,707.7z M-350.2,708.4c0,8.7,4.7,16.5,13,16.5c8.3,0,13.1-7.7,13.1-16.9c0-8.1-4.2-16.6-13-16.6
			C-345.9,691.4-350.2,699.4-350.2,708.4z"/>
		<path class="st0" d="M-280.8,726.7c-2.4,0.8-7,2.2-12.5,2.2c-6.2,0-11.2-1.6-15.2-5.4c-3.5-3.4-5.7-8.8-5.7-15.2
			c0.1-12.1,8.4-21,22.1-21c4.7,0,8.4,1,10.2,1.9l-1.3,4.3c-2.2-1-4.9-1.8-9-1.8c-9.9,0-16.4,6.2-16.4,16.4
			c0,10.3,6.2,16.4,15.7,16.4c3.4,0,5.8-0.5,7-1.1v-12.1h-8.3v-4.2h13.4C-280.8,707.1-280.8,726.7-280.8,726.7z"/>
		<path class="st0" d="M-237.9,707.7c0,14-8.5,21.5-18.9,21.5c-10.8,0-18.3-8.3-18.3-20.7c0-12.9,8-21.4,18.9-21.4
			C-245.1,687.1-237.9,695.6-237.9,707.7z M-269.5,708.4c0,8.7,4.7,16.5,13,16.5c8.3,0,13.1-7.7,13.1-16.9c0-8.1-4.2-16.6-13-16.6
			C-265.2,691.4-269.5,699.4-269.5,708.4z"/>
	</g>
	<g>
		<path class="st3" d="M-373.9,740.4c-0.3,0.2-1,0.4-1.9,0.4c-2,0-3.4-1.4-3.4-3.5s1.4-3.6,3.6-3.6c0.7,0,1.4,0.2,1.7,0.3l-0.3,1
			c-0.3-0.2-0.8-0.3-1.4-0.3c-1.6,0-2.4,1.1-2.4,2.6c0,1.6,1,2.5,2.3,2.5c0.7,0,1.2-0.2,1.5-0.3L-373.9,740.4z"/>
		<path class="st3" d="M-366.8,738.9c0,0.7,0,1.3,0.1,1.8h-1.1l-0.1-1.1l0,0c-0.3,0.5-1,1.3-2.2,1.3c-1.1,0-2.3-0.6-2.3-3v-4h1.2
			v3.7c0,1.3,0.4,2.2,1.5,2.2c0.8,0,1.4-0.6,1.6-1.1c0.1-0.2,0.1-0.4,0.1-0.6v-4.2h1.2V738.9z"/>
		<path class="st3" d="M-364.9,739.4c0.4,0.2,1,0.5,1.6,0.5c0.9,0,1.3-0.4,1.3-1c0-0.6-0.3-0.9-1.3-1.2c-1.2-0.4-1.8-1.1-1.8-1.9
			c0-1.1,0.9-2,2.3-2c0.7,0,1.3,0.2,1.7,0.4l-0.3,0.9c-0.3-0.2-0.8-0.4-1.4-0.4c-0.7,0-1.1,0.4-1.1,0.9c0,0.6,0.4,0.8,1.3,1.1
			c1.2,0.4,1.8,1,1.8,2c0,1.2-0.9,2-2.5,2c-0.7,0-1.4-0.2-1.9-0.5L-364.9,739.4z"/>
		<path class="st3" d="M-357.7,732v1.9h1.8v0.9h-1.8v3.6c0,0.8,0.2,1.3,0.9,1.3c0.3,0,0.6,0,0.7-0.1l0.1,0.9
			c-0.2,0.1-0.6,0.2-1.1,0.2c-0.6,0-1-0.2-1.3-0.5c-0.3-0.4-0.5-1-0.5-1.8v-3.7h-1v-0.9h1v-1.6L-357.7,732z"/>
		<path class="st3" d="M-348.5,737.3c0,2.5-1.7,3.6-3.4,3.6c-1.8,0-3.2-1.3-3.2-3.5c0-2.3,1.5-3.6,3.4-3.6
			C-349.8,733.8-348.5,735.2-348.5,737.3z M-353.9,737.3c0,1.5,0.9,2.6,2.1,2.6s2.1-1.1,2.1-2.6c0-1.1-0.6-2.6-2-2.6
			C-353.3,734.7-353.9,736-353.9,737.3z"/>
		<path class="st3" d="M-347,735.8c0-0.7,0-1.3-0.1-1.8h1.1l0.1,1.1l0,0c0.4-0.6,1-1.2,2.1-1.2c0.9,0,1.6,0.6,1.9,1.4l0,0
			c0.2-0.4,0.5-0.7,0.8-0.9c0.4-0.3,0.9-0.5,1.5-0.5c0.9,0,2.2,0.6,2.2,2.9v4h-1.2V737c0-1.3-0.5-2.1-1.5-2.1
			c-0.7,0-1.2,0.5-1.5,1.1c-0.1,0.2-0.1,0.4-0.1,0.6v4.2h-1.2v-4.1c0-1.1-0.5-1.9-1.4-1.9c-0.8,0-1.3,0.6-1.5,1.2
			c-0.1,0.2-0.1,0.4-0.1,0.6v4.1h-1.2L-347,735.8L-347,735.8z"/>
		<path class="st3" d="M-332.3,730.8h1.2v9.9h-1.2V730.8z"/>
		<path class="st3" d="M-322.9,737.3c0,2.5-1.7,3.6-3.4,3.6c-1.8,0-3.2-1.3-3.2-3.5c0-2.3,1.5-3.6,3.4-3.6S-322.9,735.2-322.9,737.3
			z M-328.3,737.3c0,1.5,0.9,2.6,2.1,2.6c1.2,0,2.1-1.1,2.1-2.6c0-1.1-0.6-2.6-2-2.6C-327.6,734.7-328.3,736-328.3,737.3z"/>
		<path class="st3" d="M-315.5,733.9c0,0.5-0.1,1-0.1,1.9v3.9c0,1.6-0.3,2.5-1,3.1c-0.7,0.6-1.6,0.8-2.5,0.8c-0.8,0-1.7-0.2-2.3-0.6
			l0.3-0.9c0.4,0.3,1.1,0.5,2,0.5c1.3,0,2.2-0.7,2.2-2.4v-0.8l0,0c-0.4,0.6-1.1,1.1-2.2,1.1c-1.7,0-2.9-1.4-2.9-3.3
			c0-2.3,1.5-3.6,3-3.6c1.2,0,1.8,0.6,2.1,1.2l0,0l0.1-1L-315.5,733.9L-315.5,733.9z M-316.8,736.6c0-0.2,0-0.4-0.1-0.6
			c-0.2-0.7-0.8-1.3-1.7-1.3c-1.2,0-2,1-2,2.6c0,1.3,0.7,2.4,2,2.4c0.8,0,1.4-0.5,1.7-1.3c0.1-0.2,0.1-0.4,0.1-0.7V736.6z"/>
		<path class="st3" d="M-307.4,737.3c0,2.5-1.7,3.6-3.4,3.6c-1.8,0-3.2-1.3-3.2-3.5c0-2.3,1.5-3.6,3.4-3.6S-307.4,735.2-307.4,737.3
			z M-312.8,737.3c0,1.5,0.9,2.6,2.1,2.6c1.2,0,2.1-1.1,2.1-2.6c0-1.1-0.6-2.6-2-2.6C-312.2,734.7-312.8,736-312.8,737.3z"/>
		<path class="st3" d="M-297,730.8v8.2c0,0.6,0,1.3,0.1,1.7h-1.1l-0.1-1.2l0,0c-0.4,0.8-1.2,1.3-2.3,1.3c-1.6,0-2.9-1.4-2.9-3.4
			c0-2.3,1.4-3.6,3-3.6c1,0,1.7,0.5,2,1l0,0v-4H-297z M-298.3,736.7c0-0.2,0-0.4-0.1-0.5c-0.2-0.8-0.9-1.4-1.8-1.4
			c-1.3,0-2,1.1-2,2.6c0,1.4,0.7,2.5,2,2.5c0.8,0,1.6-0.5,1.8-1.5c0-0.2,0.1-0.3,0.1-0.5V736.7z"/>
		<path class="st3" d="M-294.3,737.5c0,1.7,1.1,2.3,2.3,2.3c0.9,0,1.4-0.2,1.9-0.3l0.2,0.9c-0.4,0.2-1.2,0.4-2.3,0.4
			c-2.1,0-3.3-1.4-3.3-3.4s1.2-3.6,3.2-3.6c2.2,0,2.8,1.9,2.8,3.2c0,0.3,0,0.4,0,0.6L-294.3,737.5L-294.3,737.5z M-290.7,736.7
			c0-0.8-0.3-2-1.7-2c-1.2,0-1.8,1.1-1.9,2H-290.7z"/>
		<path class="st3" d="M-288.2,739.4c0.4,0.2,1,0.5,1.6,0.5c0.9,0,1.3-0.4,1.3-1c0-0.6-0.3-0.9-1.3-1.2c-1.2-0.4-1.8-1.1-1.8-1.9
			c0-1.1,0.9-2,2.3-2c0.7,0,1.3,0.2,1.7,0.4l-0.3,0.9c-0.3-0.2-0.8-0.4-1.4-0.4c-0.7,0-1.1,0.4-1.1,0.9c0,0.6,0.4,0.8,1.3,1.1
			c1.2,0.4,1.8,1,1.8,2c0,1.2-0.9,2-2.5,2c-0.7,0-1.4-0.2-1.9-0.5L-288.2,739.4z"/>
		<path class="st3" d="M-277.6,740.4c-0.3,0.2-1,0.4-1.9,0.4c-2,0-3.4-1.4-3.4-3.5s1.4-3.6,3.6-3.6c0.7,0,1.4,0.2,1.7,0.3l-0.3,1
			c-0.3-0.2-0.8-0.3-1.4-0.3c-1.6,0-2.4,1.1-2.4,2.6c0,1.6,1,2.5,2.3,2.5c0.7,0,1.2-0.2,1.5-0.3L-277.6,740.4z"/>
		<path class="st3" d="M-276.2,736c0-0.8,0-1.5-0.1-2.1h1.1v1.3h0.1c0.3-0.9,1-1.5,1.9-1.5c0.1,0,0.2,0,0.3,0v1.2
			c-0.1,0-0.3,0-0.4,0c-0.9,0-1.5,0.7-1.6,1.6c0,0.2-0.1,0.4-0.1,0.6v3.6h-1.2V736z"/>
		<path class="st3" d="M-270.2,732c0,0.4-0.3,0.8-0.8,0.8c-0.4,0-0.7-0.3-0.7-0.8c0-0.4,0.3-0.8,0.8-0.8
			C-270.5,731.3-270.2,731.6-270.2,732z M-271.6,740.7v-6.8h1.2v6.8H-271.6z"/>
		<path class="st3" d="M-268.3,736.1c0-0.9,0-1.6-0.1-2.2h1.1l0.1,1.2l0,0c0.5-0.8,1.3-1.3,2.4-1.3c1.6,0,2.9,1.4,2.9,3.4
			c0,2.4-1.5,3.6-3.1,3.6c-0.9,0-1.7-0.4-2.1-1.1l0,0v3.7h-1.2C-268.3,743.4-268.3,736.1-268.3,736.1z M-267.1,737.9
			c0,0.2,0,0.3,0.1,0.5c0.2,0.9,1,1.4,1.8,1.4c1.3,0,2.1-1.1,2.1-2.6c0-1.4-0.7-2.5-2-2.5c-0.8,0-1.6,0.6-1.9,1.5
			c0,0.2-0.1,0.3-0.1,0.5C-267.1,736.7-267.1,737.9-267.1,737.9z"/>
		<path class="st3" d="M-258.9,732v1.9h1.8v0.9h-1.8v3.6c0,0.8,0.2,1.3,0.9,1.3c0.3,0,0.6,0,0.7-0.1l0.1,0.9
			c-0.2,0.1-0.6,0.2-1.1,0.2c-0.6,0-1-0.2-1.3-0.5c-0.3-0.4-0.5-1-0.5-1.8v-3.7h-1v-0.9h1v-1.6L-258.9,732z"/>
		<path class="st3" d="M-254.3,732c0,0.4-0.3,0.8-0.8,0.8c-0.4,0-0.7-0.3-0.7-0.8c0-0.4,0.3-0.8,0.8-0.8
			C-254.6,731.3-254.3,731.6-254.3,732z M-255.7,740.7v-6.8h1.2v6.8H-255.7z"/>
		<path class="st3" d="M-246.3,737.3c0,2.5-1.7,3.6-3.4,3.6c-1.8,0-3.2-1.3-3.2-3.5c0-2.3,1.5-3.6,3.4-3.6S-246.3,735.2-246.3,737.3
			z M-251.7,737.3c0,1.5,0.9,2.6,2.1,2.6c1.2,0,2.1-1.1,2.1-2.6c0-1.1-0.6-2.6-2-2.6C-251,734.7-251.7,736-251.7,737.3z"/>
		<path class="st3" d="M-244.8,735.8c0-0.7,0-1.3-0.1-1.8h1.1l0.1,1.1l0,0c0.3-0.6,1.1-1.3,2.2-1.3c0.9,0,2.4,0.6,2.4,2.9v4h-1.2
			v-3.9c0-1.1-0.4-2-1.6-2c-0.8,0-1.4,0.6-1.6,1.3c-0.1,0.2-0.1,0.4-0.1,0.6v4.1h-1.2V735.8z"/>
	</g>
</g>
</svg>
