<?xml version="1.0" encoding="utf-8"?>
<!-- Generator: Adobe Illustrator 19.0.1, SVG Export Plug-In . SVG Version: 6.00 Build 0)  -->
<svg version="1.1" id="Слой_1" xmlns="http://www.w3.org/2000/svg" xmlns:xlink="http://www.w3.org/1999/xlink" x="0px" y="0px"
	 viewBox="-178 338.7 254.3 117.3" style="enable-background:new -178 338.7 254.3 117.3;" xml:space="preserve">
<style type="text/css">
	.st0{fill:#FFFFFF;}
	.st1{enable-background:new    ;}
	.st2{fill:none;stroke:#FFFFFF;stroke-miterlimit:10;}
</style>
<path class="st0" d="M38.2,379c-19.9-6.5-41.3-8.1-62.3-8.5c-2-0.5-4.1-0.5-6.1-0.8c-2.4-0.3-4.8-0.5-7.3-0.7c-0.3,0-0.5,0-0.8-0.1
	c0-0.1,0-0.1-0.1-0.2c-1.7-0.9-3.7-1.7-4.8-3.5c-0.7-1.2-0.7-2.5,0-3.6s2-1.8,2-3.2c0.1-1.9-1.7-2.3-3.2-2.8c-2-0.6-4.3-1.3-6.5-1.1
	c-1.9-0.1-4,0.4-5.8,0.9c-1.4,0.4-3.4,0.7-3.8,2.4c-0.6,2.6,3.2,3.7,2.4,6.4c-0.7,2.4-3.3,3.4-5.2,4.5l0,0
	c-4.8,0.3-9.5,0.8-14.2,1.4c-0.2,0-0.3,0.1-0.4,0.2c-7,0.4-14.1,0.7-21.1,1.3c-13.7,1.1-27.5,3-40.7,7.2c-0.6,0.2-0.3,1.2,0.3,1
	c23-7.4,47.9-8.2,71.8-8.4c21.5-0.2,43.2-0.5,64.6,1.1c13.8,1.1,27.7,2.9,41,7.1C38.4,379.6,38.6,379.1,38.2,379z M-56.5,362.9
	c-0.1-1-0.6-1.9-1.2-2.7c-0.5-0.6-1.4-1.7-0.7-2.4c0.2-0.2,0.9-0.3,1.2-0.4c2-0.7,4.3-1.4,6.4-1.3c0.1,0,0.1,0,0.2,0s0.1,0,0.2,0
	c2-0.1,4.1,0.6,5.9,1.1c0.4,0.1,1,0.2,1.4,0.5c0.1,0.1,0.3,0.1,0.3,0.2c0.3,0.6-0.5,1.9-0.9,2.4c-0.6,0.7-1,1.6-1.1,2.5
	c-0.3,2.3,1.8,5,4.1,6.1c-3.3-0.2-6.7-0.4-10-0.4c-3.2,0-6.5,0.1-9.8,0.3C-58.3,367.6-56.3,365.1-56.5,362.9z M-34.3,370.4
	c-11.1-0.1-22.2-0.2-33.3-0.1c5.5-0.5,11.1-0.8,16.6-0.8c4.4,0,8.7,0.3,13.1,0.6c1.8,0.1,3.5,0.2,5.3,0.3
	C-33.2,370.4-33.8,370.4-34.3,370.4z"/>
<g class="st1">
	<path class="st0" d="M-126.6,412.7v-20.8h4.1l4.9,14.7c0.5,1.4,0.8,2.4,1,3.1c0.2-0.8,0.6-1.9,1.1-3.3l5-14.4h3.7v20.8h-2.6v-17.4
		l-6,17.4h-2.5l-6-17.7v17.7H-126.6z"/>
	<path class="st0" d="M-102.8,418.5l-0.3-2.4c0.6,0.2,1,0.2,1.5,0.2c0.6,0,1-0.1,1.4-0.3s0.6-0.5,0.8-0.8c0.2-0.3,0.4-0.9,0.8-1.9
		c0-0.1,0.1-0.3,0.2-0.6l-5.7-15.1h2.7l3.1,8.7c0.4,1.1,0.8,2.3,1.1,3.5c0.3-1.2,0.6-2.3,1-3.4l3.2-8.8h2.5l-5.7,15.3
		c-0.6,1.7-1.1,2.8-1.4,3.4c-0.5,0.8-1,1.5-1.6,1.8s-1.3,0.6-2.1,0.6C-101.6,418.8-102.2,418.7-102.8,418.5z"/>
	<path class="st0" d="M-80.7,406l2.6-0.2c0.1,1,0.4,1.9,0.9,2.6c0.4,0.7,1.1,1.2,2.1,1.6c0.9,0.4,2,0.6,3.2,0.6c1,0,2-0.2,2.8-0.5
		s1.4-0.7,1.8-1.3c0.4-0.5,0.6-1.1,0.6-1.8c0-0.7-0.2-1.2-0.6-1.7s-1-0.9-1.9-1.2c-0.6-0.2-1.8-0.6-3.7-1s-3.2-0.9-4-1.3
		c-1-0.5-1.7-1.2-2.2-1.9c-0.5-0.8-0.7-1.6-0.7-2.6c0-1,0.3-2,0.9-2.9s1.5-1.6,2.6-2.1c1.1-0.5,2.4-0.7,3.8-0.7
		c1.5,0,2.9,0.2,4.1,0.7c1.2,0.5,2.1,1.2,2.7,2.2s1,2.1,1,3.3l-2.6,0.2c-0.1-1.3-0.6-2.3-1.4-3c-0.8-0.7-2-1-3.6-1
		c-1.7,0-2.9,0.3-3.6,0.9c-0.8,0.6-1.1,1.3-1.1,2.2c0,0.7,0.3,1.4,0.8,1.8c0.5,0.5,1.9,1,4.1,1.5c2.2,0.5,3.8,0.9,4.6,1.3
		c1.2,0.6,2.1,1.3,2.7,2.1s0.9,1.8,0.9,3c0,1.1-0.3,2.1-0.9,3.1c-0.6,1-1.5,1.7-2.7,2.3c-1.2,0.5-2.5,0.8-4,0.8
		c-1.9,0-3.5-0.3-4.7-0.8c-1.3-0.5-2.3-1.4-3-2.5C-80.3,408.7-80.7,407.4-80.7,406z"/>
	<path class="st0" d="M-60.8,394.9v-2.9h2.5v2.9H-60.8z M-60.8,412.7v-15h2.5v15H-60.8z"/>
	<path class="st0" d="M-48.8,410.4l0.4,2.3c-0.7,0.2-1.4,0.2-1.9,0.2c-0.9,0-1.6-0.1-2.2-0.4c-0.5-0.3-0.9-0.7-1.1-1.2
		s-0.3-1.5-0.3-3v-8.7h-1.9v-2h1.9v-3.7l2.5-1.5v5.3h2.6v2h-2.6v8.8c0,0.7,0,1.2,0.1,1.4c0.1,0.2,0.2,0.4,0.4,0.5
		c0.2,0.1,0.5,0.2,0.9,0.2C-49.6,410.5-49.2,410.5-48.8,410.4z"/>
	<path class="st0" d="M-36,407.9l2.6,0.3c-0.4,1.5-1.2,2.7-2.3,3.6c-1.1,0.8-2.6,1.3-4.3,1.3c-2.2,0-3.9-0.7-5.2-2
		c-1.3-1.4-1.9-3.3-1.9-5.7c0-2.5,0.7-4.5,2-5.9s3-2.1,5.1-2.1c2,0,3.7,0.7,4.9,2.1c1.3,1.4,1.9,3.3,1.9,5.8c0,0.2,0,0.4,0,0.7
		h-11.2c0.1,1.7,0.6,2.9,1.4,3.8c0.8,0.9,1.9,1.3,3.1,1.3c0.9,0,1.7-0.2,2.4-0.7C-36.9,409.7-36.4,408.9-36,407.9z M-44.4,403.7h8.4
		c-0.1-1.3-0.4-2.2-1-2.8c-0.8-1-1.9-1.5-3.2-1.5c-1.2,0-2.2,0.4-3,1.2C-43.8,401.4-44.3,402.4-44.4,403.7z"/>
	<path class="st0" d="M-21.9,412.7v-20.8h2.7v18.3h10.2v2.4H-21.9z"/>
	<path class="st0" d="M-6.9,405.2c0-2.8,0.8-4.8,2.3-6.2c1.3-1.1,2.9-1.7,4.7-1.7c2.1,0,3.8,0.7,5.1,2c1.3,1.4,2,3.2,2,5.6
		c0,1.9-0.3,3.5-0.9,4.6c-0.6,1.1-1.4,2-2.5,2.6c-1.1,0.6-2.3,0.9-3.6,0.9c-2.1,0-3.8-0.7-5.1-2C-6.3,409.7-6.9,407.7-6.9,405.2z
		 M-4.3,405.2c0,1.9,0.4,3.4,1.3,4.3c0.8,1,1.9,1.4,3.2,1.4c1.3,0,2.3-0.5,3.2-1.4c0.8-1,1.3-2.4,1.3-4.4c0-1.9-0.4-3.3-1.3-4.2
		c-0.8-1-1.9-1.4-3.2-1.4c-1.3,0-2.3,0.5-3.2,1.4C-3.9,401.8-4.3,403.3-4.3,405.2z"/>
	<path class="st0" d="M9.7,413.9l2.5,0.4c0.1,0.8,0.4,1.3,0.9,1.7c0.6,0.5,1.5,0.7,2.6,0.7c1.2,0,2.1-0.2,2.7-0.7
		c0.6-0.5,1.1-1.1,1.3-2c0.1-0.5,0.2-1.6,0.2-3.3c-1.1,1.3-2.5,2-4.2,2c-2.1,0-3.7-0.7-4.8-2.2s-1.7-3.3-1.7-5.4
		c0-1.4,0.3-2.8,0.8-4c0.5-1.2,1.3-2.1,2.3-2.8s2.1-1,3.5-1c1.8,0,3.2,0.7,4.4,2.2v-1.8h2.4v13c0,2.3-0.2,4-0.7,5
		c-0.5,1-1.2,1.7-2.3,2.3c-1,0.6-2.3,0.8-3.8,0.8c-1.8,0-3.2-0.4-4.3-1.2C10.2,416.8,9.7,415.6,9.7,413.9z M11.8,404.9
		c0,2,0.4,3.4,1.2,4.3c0.8,0.9,1.8,1.4,2.9,1.4c1.2,0,2.2-0.5,2.9-1.4s1.2-2.3,1.2-4.2c0-1.8-0.4-3.2-1.2-4.2
		c-0.8-0.9-1.8-1.4-3-1.4c-1.1,0-2.1,0.5-2.9,1.4C12.2,401.7,11.8,403.1,11.8,404.9z"/>
	<path class="st0" d="M25.3,405.2c0-2.8,0.8-4.8,2.3-6.2c1.3-1.1,2.9-1.7,4.7-1.7c2.1,0,3.8,0.7,5.1,2c1.3,1.4,2,3.2,2,5.6
		c0,1.9-0.3,3.5-0.9,4.6c-0.6,1.1-1.4,2-2.5,2.6c-1.1,0.6-2.3,0.9-3.6,0.9c-2.1,0-3.8-0.7-5.1-2C26,409.7,25.3,407.7,25.3,405.2z
		 M28,405.2c0,1.9,0.4,3.4,1.3,4.3c0.8,1,1.9,1.4,3.2,1.4c1.3,0,2.3-0.5,3.2-1.4c0.8-1,1.3-2.4,1.3-4.4c0-1.9-0.4-3.3-1.3-4.2
		c-0.8-1-1.9-1.4-3.2-1.4c-1.3,0-2.3,0.5-3.2,1.4C28.4,401.8,28,403.3,28,405.2z"/>
</g>
<path class="st2" d="M38.4,425.9L38.4,425.9c0,5.5-4.5,10-10,10h-79.3h-79.2c-5.5,0-10-4.5-10-10l0,0"/>
</svg>
