<svg id="Слой_1" xmlns="http://www.w3.org/2000/svg" viewBox="0 0 218.1 66.4"><style>.st0{display:none;fill:#fff}.st1{fill:#1d1d1b}.st2{fill:none;stroke:#1d1d1b;stroke-width:.15;stroke-miterlimit:10}</style><path class="st0" d="M.1 0h218v66.4H.1z"/><path class="st1" d="M70.1 25.3c4.7-2.9 9.7-5.3 14.5-8.2 4.4-2.6 10.2-7.5 8-13.3-.9-2.4-3.1-4.2-5.8-3.7-3.4.7-5.1 4.5-6.5 7.2-2.1 4.2-4.1 8.6-5.8 13-1.6 4-3.3 8.3-3.9 12.6-.4 3.5.2 7.9 3.7 9.7 3.4 1.7 7.7.1 11-1.2.6-.2.3-1.2-.3-1-3.9 1.6-9.7 3.7-12.4-.8-2.3-3.8-.8-8.8.5-12.6 1.6-4.9 3.5-9.6 5.6-14.3 1.6-3.5 3.6-9.8 7.4-11.4 3.1-1.3 5.6 1.5 5.8 4.5.1 2.6-1.6 5.1-3.3 7-1.5 1.7-3.6 2.8-5.6 4-4.5 2.6-9.1 4.9-13.6 7.7-.3.3.2 1.2.7.8zm34.8-6c-6.7-1-10.4 4-12.8 9.6-2 4.8-3.6 13.5 3.6 14.6 5.8.9 9.9-4.8 12-9.3 1.4-3 1.5-5.9 1-9.1-.3-2.7-.9-5.1-3.8-5.8-.6-.1-.9.8-.3 1 3.2.7 3.4 4.9 3.5 7.5.1 2.5-.6 4.7-1.8 7-2 3.8-5.3 8.2-10.1 7.8-6.9-.6-5-9-3.2-13.3 2.1-5 5.4-9.8 11.5-8.9.7-.1 1-1 .4-1.1zm39.4 0c-6.7-1-10.4 4-12.8 9.6-2 4.8-3.6 13.5 3.6 14.6 5.8.9 9.9-4.8 12-9.3 1.4-3 1.5-5.9 1-9.1-.2-2.7-.9-5.1-3.8-5.8-.6-.1-.9.8-.3 1 3.2.7 3.4 4.9 3.5 7.5.1 2.5-.6 4.7-1.8 7-2 3.8-5.3 8.2-10.1 7.8-6.9-.6-5-9-3.2-13.3 2.1-5 5.4-9.8 11.5-8.9.8-.1 1.1-1 .4-1.1zm-17.2 3.1c-7.7-5.7-15.1 5.1-15.6 11.9-.2 3-.1 8.2 3.5 9.1 3.1.8 7.7.4 9.7-2.4.4-.5-.5-1-.9-.5-1 1.5-3 2-4.7 2.1-1.1.1-3.2.3-4.2-.3-1.9-1-2.4-3.8-2.5-5.8-.1-1.5 0-3 .4-4.4 1.3-5.6 7.6-13.5 13.8-8.9.5.5 1-.4.5-.8z"/><path class="st1" d="M129.3 16.9c-1.4 9.8-3.9 20-7.5 29.2-1.5 3.9-3 7.9-4.7 11.7-1.5 3.3-3.8 7.1-7.8 7.5-4.5.4-11.3-6-5.8-9.8 1.7-1.2 4-1.3 6-1.5 2.3-.3 4.6-.5 6.9-.8.6-.1.6-1.1 0-1-3.7.4-7.8.4-11.4 1.5-2.3.7-4.1 2.3-4.2 4.8-.3 5.3 5.9 9 10.6 7.2 5.8-2.1 7.7-10 9.7-15.2 2.3-5.8 4.4-11.5 5.8-17.5 1.2-5.3 2.6-10.7 3.4-16 .1-.4-.9-.7-1-.1zM21.2 57.3c-1-7.4-4.4-14.1-10.1-19.1-2.4-2.1-5.6-4.6-8.8-5.3-.1 0-.1.1 0 .1 3.2.8 6.4 3.2 8.8 5.3 5.7 4.9 9 11.6 10 19 0 .2.2.1.1 0zm2.9-2.5c-.4-4.5-2.2-8.6-4.6-12.4-2.3-3.7-5.2-7.6-9.3-9.5-.1 0-.2.1-.1.1 4 1.9 6.9 5.8 9.2 9.5 2.3 3.8 4.2 7.8 4.5 12.3.2.1.3.1.3 0z"/><path class="st1" d="M21.9 47c-3.7 2.5-2.2 7.5 2.1 7.9.1 0 .1-.1 0-.1-4.2-.4-5.6-5.2-2-7.6.1-.1 0-.2-.1-.2z"/><path class="st1" d="M18.3 40.9c-1.6.8-1.8 3-1.2 4.5.8 2.1 2.9 2.5 4.8 1.8.1 0 .1-.2 0-.1-2 .7-4 .3-4.7-1.9-.5-1.4-.3-3.4 1.2-4.2.1-.1 0-.2-.1-.1z"/><path class="st1" d="M18.4 40.9c-1.4.3-3.7.5-4.8-.6-1.3-1.2-1.2-3.9-.3-5.3.1-.1-.1-.2-.1-.1-1 1.4-1.1 4.1.1 5.4 1.1 1.3 3.6 1 5.1.7.1 0 0-.2 0-.1z"/><path class="st1" d="M13.2 34.9c-2.9 2.4-5.9 0-8.2-1.9-.1-.1-.2 0-.1.1 2.5 2 5.5 4.4 8.4 1.9.1-.1-.1-.2-.1-.1zm.9 3.3c-.4.9 1.1 1.1 1.1.3.1-.6-1-.9-1.1-.3 0 .1.1.1.1 0 0-.2.4-.2.6-.2.2.1.3.6 0 .7-.2.1-.3.1-.4-.2-.2-.1-.3-.2-.2-.4.1.1 0 0-.1.1zm4.4 6.2c-.4.9 1.1 1.1 1.1.3 0-.6-1.1-1-1.1-.3 0 .1.1.1.1 0 0-.2.4-.2.6-.2.2.1.3.6 0 .7-.2.1-.3.1-.4-.2-.2-.1-.3-.2-.2-.4 0 .1-.1 0-.1.1zm2.8 6.7c-.2.8 1.1 1.2 1.2.3.1-.8-1.3-.9-1.2-.2 0 .1.2.1.1 0 .2-.3.5-.4.8-.1-.3.9-.5.9-.8 0 .1 0-.1-.1-.1 0zm2.4.5l.9-.3c.1 0 .1-.2 0-.1l-.9.3c-.1 0-.1.2 0 .1zm.2 1.5c.4-.1.8-.3 1.1-.5.1 0 0-.2-.1-.1-.3.2-.7.3-1.1.4 0 .1 0 .2.1.2zm-.7-3.3l.9-.3c.1 0 .1-.2 0-.1l-.9.3c-.2 0-.1.1 0 .1zm-.6-1.6c.3-.1.6-.3.9-.4.1 0 0-.2-.1-.1-.3.1-.5.3-.8.4-.2 0-.1.1 0 .1zm-.7-1.5c.3 0 .6-.1.9-.3.1 0 0-.2-.1-.1l-.9.3s0 .1.1.1zm-.7-1.4c.4 0 .6-.1.9-.3.1 0 0-.2-.1-.1-.3.1-.5.3-.8.3-.1-.1-.1.1 0 .1zm-.8-1.4c.4 0 .6-.1.9-.3.1-.1 0-.2-.1-.1-.3.2-.5.3-.8.3-.1 0-.1.1 0 .1zm-.9-1.4c.3-.1.6-.1.9-.3.1 0 0-.2-.1-.1-.3.2-.6.2-.9.3-.1 0 0 .1.1.1zm-1-1.5c.3-.1.6-.2.9-.4.1 0 0-.2-.1-.1-.3.1-.5.3-.8.4-.2 0-.1.1 0 .1zm-1.1-1.5c.3 0 .6-.1.9-.3.1 0 0-.2-.1-.1-.3.1-.5.2-.9.3 0-.1 0 .1.1.1zm-.9-1.3c.3-.1.6-.1.9-.3.1-.1 0-.2-.1-.1-.3.1-.6.2-.9.2-.1 0 0 .2.1.2zm-1-1.2c.3-.1.5-.2.8-.3.1-.1 0-.2-.1-.1-.2.2-.5.2-.8.3-.1-.1 0 .1.1.1zm-1.1-1.1c.3-.1.6-.3.8-.4.1 0 .1-.2 0-.1-.3.1-.6.3-.8.4-.1 0-.1.1 0 .1z"/><path class="st1" d="M13.3 35c.3-.1.6-.3.8-.5.1-.1 0-.2-.1-.1-.2.2-.4.4-.7.5-.1 0-.1.1 0 .1zm-1.5-1.1c.4 0 .7-.1.9-.3.1-.1 0-.2-.1-.1-.3.2-.5.3-.9.3 0-.1 0 .1.1.1zM0 33c1.5 1.5 3.9 2.1 5.7 3.3 2 1.3 3.9 2.8 5.6 4.5 4.7 4.7 7.7 10.6 9 17.1 0 .1.2.1.1 0-1.3-6.1-3.9-11.8-8.2-16.4-1.6-1.7-3.3-3.2-5.1-4.5-1-.7-2-1.4-3.1-2-1.2-.7-2.8-1.1-3.8-2.1-.1 0-.2.1-.2.1z"/><path class="st1" d="M20 56.6c.3.4.7.6 1.1.8.1.1.2-.1.1-.1-.4-.2-.8-.5-1.1-.8 0-.1-.1 0-.1.1z"/><path class="st1" d="M20.1 56.6c.4-.3.6-.7.8-1.1 0-.1-.1-.2-.1-.1-.2.4-.4.8-.8 1-.1.1 0 .3.1.2z"/><path class="st1" d="M20.9 55.4c-.5-.2-.9-.6-1.3-.9-.1-.1-.2.1-.1.1.4.3.8.8 1.3 1 .1 0 .2-.2.1-.2z"/><path class="st1" d="M19.6 54.6c.2-.5.5-1 .7-1.5 0-.1-.1-.2-.1-.1-.2.5-.5 1-.7 1.5-.1.1.1.2.1.1z"/><path class="st1" d="M20.3 53c-.5-.2-.9-.5-1.4-.6-.1 0-.1.1 0 .1.5.1.9.4 1.4.6 0 .1.1-.1 0-.1z"/><path class="st1" d="M19 52.5c.2-.5.5-.9.8-1.3.1-.1-.1-.2-.1-.1-.3.4-.6.9-.8 1.3-.1.1 0 .2.1.1z"/><path class="st1" d="M19.7 51.1c-.5-.1-1-.3-1.5-.5-.1 0-.2.1-.1.1.5.2 1 .4 1.5.5.1 0 .2-.1.1-.1z"/><path class="st1" d="M18.2 50.7c.3-.4.5-.9.8-1.3.1-.1-.1-.2-.1-.1-.3.4-.5.9-.8 1.3-.1.1.1.1.1.1z"/><path class="st1" d="M19 49.2c-.6-.3-1.2-.6-1.8-.7-.1 0-.1.1 0 .1.6.1 1.2.4 1.8.6 0 .2.1.1 0 0z"/><path class="st1" d="M17.3 48.7c.2-.5.5-1 .8-1.4.1-.1-.1-.2-.1-.1-.3.5-.6.9-.8 1.5-.1 0 .1.1.1 0z"/><path class="st1" d="M18 47.2c-.6-.1-1.2-.4-1.8-.6-.1 0-.1.1 0 .1.6.2 1.2.5 1.8.6.1 0 .1-.1 0-.1z"/><path class="st1" d="M16.2 46.7c.2-.5.5-1 .7-1.5 0-.1-.1-.1-.1 0-.2.5-.5 1-.7 1.5 0 0 .1.1.1 0z"/><path class="st1" d="M16.8 45.1c-.6.1-1.2 0-1.8-.2-.1 0-.1.1 0 .1.6.2 1.2.3 1.9.2 0 0 0-.2-.1-.1z"/><path class="st1" d="M15.1 44.9c.2-.5.5-1 .6-1.6 0-.1-.1-.1-.1 0-.1.6-.4 1.1-.6 1.6-.1.1.1.1.1 0z"/><path class="st1" d="M15.6 43.2c-.6.1-1.2 0-1.9-.1-.1 0-.1.1 0 .2.6.1 1.2.2 1.9.1.1-.1.1-.2 0-.2z"/><path class="st1" d="M13.8 43.2c.3-.6.1-1.3.3-1.9 0-.1-.1-.1-.1 0-.2.6 0 1.3-.3 1.8-.1.1 0 .2.1.1z"/><path class="st1" d="M14 41.2c-.6 0-1.3-.1-1.9 0-.1 0-.1.2 0 .1.6-.1 1.3 0 1.9 0 .1.1.1-.1 0-.1z"/><path class="st1" d="M12.2 41.3c.2-.6.2-1.1.4-1.7 0-.1-.1-.1-.1 0-.2.6-.2 1.1-.4 1.7-.1.1.1.1.1 0z"/><path class="st1" d="M10.6 39.9c.6-.1 1.2-.2 1.9-.2.1 0 .1-.2 0-.1-.6 0-1.3.1-1.9.2-.1 0-.1.1 0 .1z"/><path class="st1" d="M10.7 39.8c.2-.6 0-1.2.2-1.8 0-.1-.1-.1-.1 0-.1.6 0 1.2-.2 1.8-.1.1.1.1.1 0z"/><path class="st1" d="M10.8 38c-.6 0-1.3.1-2 .2-.1 0-.1.2 0 .1.6-.2 1.3-.2 1.9-.2.2 0 .2-.1.1-.1z"/><path class="st1" d="M8.9 38.3c.1-.6 0-1.2 0-1.7 0-.1-.1-.1-.1 0 0 .6.1 1.1 0 1.7-.1.1.1.1.1 0z"/><path class="st1" d="M8.8 36.4c-.6.1-1.3.2-1.8.5-.1 0 0 .2.1.1.6-.3 1.1-.4 1.8-.5 0 0 0-.1-.1-.1z"/><path class="st1" d="M7.1 37c0-.7-.3-1.3-.3-2 0-.1-.1-.1-.2 0-.1.7.2 1.3.3 2 .1.1.2.1.2 0z"/><path class="st1" d="M4.9 35.6c.5-.3 1.3-.5 1.9-.6.1 0 .1-.2 0-.1-.6.1-1.4.3-1.9.6-.2.1-.1.2 0 .1z"/><path class="st2" d="M27.4 50.8l-3.5-2.3 6.1-2-10.1-5.1 12.7-2.9L12.1 33m7.6 7.9l11.8-2.7m-17.8-4.1l15.4 4m-9.9 2.2l11.1-2.5m-15.5-2.7l12.7 3.4m-8.6 1.3l7.3-1.6m-10.4-2.1l7.8 2.1m-5 1.1l6.3-1.5m5.1 8.7l2.6-8m-3 7.8l2.3-7.7M29.1 46l2.2-7.2m-2.7 7l2-6.9m-2.7 6.6l1.9-6.4m-2.5 6.1l1.8-5.9m-2.4 5.6l1.6-5.4m-2.2 5l1.3-4.8m-2 4.5l1.1-4.3m-1.8 3.9l.9-3.7M24 43.5l.9-3.2m-1.5 2.9l.7-2.7m-1.2 2.4l.6-2.3m-1.1 2.1l.4-1.9m-.9 1.7l.3-1.6m-.8 1.3l.1-1.1m-.6.8v-.7m-.4 1.2l8.8 4.4m-.8.2L21 43.2m2.7 4.9l4.2-1.4m-4.4 1l3.8-1.3m-5.9-2.5l5.3 2.7m-4.9-2.1l4.4 2.3m-2.9.6l2.5-.8m3 .3l-1.1 3.5m.5-3.3l-1.1 3.5m.3-3.2l-.9 2.9m.1-2.7l-.6 2.3m-.1-2l-.5 1.6m-.3-1.4l-.2 1.1m-.8 0l3 2.1m-2.7-1.4l2.4 1.8m-2.2-1l1.9 1.4m5-13.9l1.6-5.2m-2.2 5l1.4-5m-2.1 4.8l1.4-4.8m-2.1 4.6l1.3-4.6m-1.9 4.5l1.3-4.5m-2.1 4.3l1.3-4.3m-2.1 4l1.2-4m-1.9 3.8l1.1-3.8m-1.8 3.7L27 33m-1.8 3.5l1-3.5m-1.7 3.3l1-3.3m-1.7 3.1l1-3.1m-1.7 2.9l.8-2.9"/><path class="st2" d="M18.2 33s-.2 1 1.1 1.1c1.3.1 1.7-1.1 1.7-1.1l1.5 2.8.7-2.8m-4.1 0c.7.5.8 0 .8 0"/><path class="st1" d="M25.2 53.7c-.2-4-2.6-8.1-4.7-11.4-2.2-3.4-4.8-7.3-8.4-9.3-.1 0-.2.1-.1.1 3.6 2 6.2 5.9 8.4 9.3 2.1 3.3 4.4 7.3 4.7 11.4 0 0 .1 0 .1-.1z"/><path class="st2" d="M33.1 33c-.1 6.9-1.6 14.3-9.1 21.8m.7 2.6c5.5-4.7 10.7-14 10.7-24.4"/><path class="st1" d="M24.8 57.4c7.3-2.9 17.8-4.1 23.7 2.3.1.1.2 0 .1-.1-5.9-6.4-16.5-5.3-23.9-2.4-.1.1 0 .3.1.2z"/><path class="st1" d="M28 56.3c.2-.6 0-1.2-.4-1.7-.1-.1-.2 0-.1.1.4.5.5 1 .4 1.6-.1 0 0 .1.1 0z"/><path class="st1" d="M27.9 55.1c.2-.1.4-.1.6 0 .1 0 .7.5.4.6-.1 0 0 .2 0 .1.3-.1.1-.5 0-.7-.2-.3-.7-.4-1-.3-.1.2-.1.3 0 .3z"/><path class="st1" d="M28.9 55.2c.1-.6-.1-1.2-.7-1.3-.1 0-.1.1 0 .1.5.1.7.6.6 1.1-.1.1.1.2.1.1z"/><path class="st1" d="M30.1 55.7c-.1-.7-.6-1.1-1.2-1.1-.1 0-.1.1 0 .2.6 0 1 .4 1.1 1-.1 0 .1 0 .1-.1z"/><path class="st1" d="M29.6 54.8c.1-.7-.2-1.6-1-1.5-.1 0-.1.2 0 .1.8 0 1 .8.9 1.4-.1.1.1.1.1 0z"/><path class="st1" d="M31 55.5c0-.8-.7-1.4-1.5-1.3-.1 0-.1.2 0 .2.7 0 1.3.4 1.3 1.2.1 0 .3 0 .2-.1z"/><path class="st1" d="M30.3 54.3c0-.7-.3-1.7-1.1-1.8-.1 0-.1.1 0 .1.7 0 1 1 1 1.6 0 .2.1.2.1.1z"/><path class="st1" d="M30.1 53c.2-.2.2-.6.2-.8-.1-.3-.3-.5-.6-.6-.1 0-.1.1 0 .1.4.1.7.9.4 1.2-.2.1-.1.2 0 .1z"/><path class="st1" d="M31 55c.4-.3.5-.8.3-1.3s-.7-.8-1.2-.9c-.1 0-.1.1 0 .1.4.1.8.2 1 .6.3.4.3 1-.2 1.3-.1.2 0 .3.1.2z"/><path class="st1" d="M32.3 55.3c0-.3 0-.8-.2-1.1-.1-.2-.5-.2-.8-.3-.1 0-.1.1 0 .1.4 0 .6.1.8.5.1.2.1.5 0 .7.1.2.2.2.2.1z"/><path class="st1" d="M31.4 54c.2-.4.4-1 .1-1.4-.2-.4-.9-.6-1.3-.5-.1 0-.1.2 0 .2.4 0 .9.1 1.2.5.3.4.1.9-.1 1.3-.1-.1.1 0 .1-.1z"/><path class="st1" d="M30.8 52.1c.3-.6.2-1.2-.5-1.4-.1 0-.1.1 0 .1.6.1.6.7.4 1.1 0 .2.1.3.1.2z"/><path class="st1" d="M31.4 52.5c.3.2.3-.5.3-.7-.1-.4-.5-.8-.9-.8-.1 0-.1.1 0 .1.2 0 .3.1.5.2s.2.2.2.4c.1.2.1.4 0 .5-.1.1-.2.3-.1.3z"/><path class="st1" d="M32.3 54.4c.2-.7.1-1.8-.8-1.9-.1 0-.1.1 0 .1.9.1.9 1.1.7 1.7-.1.1.1.2.1.1z"/><path class="st1" d="M33.2 55.3c.1-.6 0-1.9-.9-1.8-.1 0-.1.2 0 .1.8-.1.9 1.2.8 1.7h.1zm-.7-1.9c.3-.2.3-.9.2-1.2-.2-.4-.6-.6-1-.6-.1 0-.1.2 0 .1.5-.1.9.4.9.8 0 .2-.1.6-.2.7-.1.1 0 .3.1.2zm-1.6-2.3c.2-.3.3-1-.1-1.1-.1 0-.2.1-.1.1.4.2.2.7.1.9-.1.1.1.2.1.1z"/><path class="st1" d="M31.7 51.7c.3-.3.3-.9.1-1.3-.2-.2-.6-.5-.9-.3-.1.1 0 .2.1.1.3-.2.7.3.8.5.1.2 0 .6-.2.8-.1.1 0 .2.1.2zm2.6 3.3c-.1-.7-.4-1-1.1-1-.1 0-.1.2 0 .2.2 0 .5 0 .6.1.2.2.3.5.3.7 0 .1.2.1.2 0z"/><path class="st1" d="M33.3 54.1c.3-.4.4-1 .3-1.5-.1-.5-.4-.6-.9-.6-.1 0-.1.2 0 .2 1 0 .9 1.2.5 1.8-.1.1 0 .2.1.1z"/><path class="st1" d="M32.8 52.2c.4-.5.5-.8.2-1.4-.3-.5-.6-.5-1.2-.5 0 0-.1 0-.1.1v.1c0 .1.2.1.1 0 0 .1.3 0 .4 0 .2 0 .5.2.6.4.3.4.1.8-.2 1.2 0 .1.2.2.2.1z"/><path class="st1" d="M31.8 50.4c.3-.1.2-.5.2-.8-.1-.3-.3-.6-.6-.7-.1 0-.1.1 0 .1.3.1.4.3.5.5 0 .1.1.6-.1.7-.1.1-.1.2 0 .2z"/><path class="st1" d="M32 49.5c.4-.3.3-1-.2-1.3-.1 0-.2.1-.1.1.3.1.5.8.2 1 0 .1.1.2.1.2z"/><path class="st1" d="M33 50.8c.1-.4.1-1-.2-1.2-.2-.2-.6-.3-.8-.1-.1.1 0 .2.1.1.3-.3.7.2.8.4.1.2.1.5 0 .8-.1.1.1.1.1 0zm.6 2c.2-.1.2-.1.3-.3.1-.2.2-.7.1-1-.1-.5-.6-.6-1-.6-.1 0-.1.1 0 .2.6 0 .9.3.8 1 0 .2 0 .6-.3.7 0-.2 0 0 .1 0zm.8 2.2c.4-.3.4-1 .3-1.4-.2-.5-.5-.8-1-.8-.1 0-.1.1 0 .2.5 0 .8.3.9.8.1.3.1.9-.2 1.1-.2 0-.1.1 0 .1z"/><path class="st1" d="M35.8 54.9c0-.8-.3-1.3-1.1-1.2-.1 0-.1.2 0 .2.4 0 .7-.1.9.5.1.2.1.4.1.6 0 0 .1 0 .1-.1z"/><path class="st1" d="M34.8 53.8c0-.1.1-.3.2-.4.1-.1.1-.3.1-.4 0-.3 0-.5-.1-.7-.2-.4-.5-.5-1-.6-.1 0-.1.1 0 .1.7.1 1 .6.9 1.3-.1.3-.2.4-.3.7 0 .1.2.1.2 0zm-.7-2.2c.4-.4.3-1.3-.1-1.6-.2-.2-1-.5-1.2-.2-.1.1.1.2.1.1s.4 0 .5 0c.2.1.4.2.6.4.2.3.2 1-.1 1.3 0 0 .1.1.2 0z"/><path class="st1" d="M33 49.8c.7-.8-.3-1.9-1.1-1.8-.1 0-.1.2 0 .1.3 0 .6 0 .8.2.3.3.5.9.2 1.3 0 .2.1.3.1.2z"/><path class="st1" d="M33.1 48.5c.5-.6.1-1.6-.6-1.8-.1 0-.1.1 0 .1.6.2 1 1 .6 1.6-.2.1-.1.2 0 .1zm2 3.9c.3-.3.4-.9.2-1.3-.1-.4-.6-.8-1.1-.9-.1 0-.1.1 0 .1.3 0 .7.3.9.7.2.3.1 1.1-.2 1.3 0 .1.1.2.2.1zm.7 2.2c1.3-.4.2-2.2-.8-2.1-.1 0-.1.2 0 .1.8-.1 1.8 1.4.7 1.8 0 0 0 .2.1.2z"/><path class="st1" d="M35.8 54.6c.2 0 .9 0 .9.4 0 .1.1.1.1 0 .1-.5-.7-.7-1.1-.6 0 .1 0 .2.1.2zm2 .4c.4-1-.6-2.2-1.6-1.7-.1 0 0 .2.1.1.9-.4 1.7.7 1.4 1.5-.1.1 0 .1.1.1z"/><path class="st1" d="M36.2 53.3c.5-.2.4-1.1.3-1.5-.1-.7-.6-.8-1.2-.7-.1 0-.1.2 0 .1.4-.1.6-.1.8.2.2.2.2.3.3.5 0 .3.1 1-.2 1.1-.1.2-.1.3 0 .3zm-1.8-3c.6-.6 0-2.5-1-1.9-.1.1 0 .2.1.1.6-.4 1 .5 1 .8 0 .3 0 .6-.2.8-.1.1 0 .2.1.2z"/><path class="st1" d="M35.3 51.2c.4-.2.5-1.1.4-1.4-.1-.5-.7-.9-1.2-.9-.1 0-.1.2 0 .2.4 0 .8.2 1 .6.1.3.1 1.3-.2 1.4-.1 0-.1.1 0 .1z"/><path class="st1" d="M34.5 48.9c.2-.2.2-.5.2-.7 0-.4 0-.6-.3-.8-.3-.2-1-.6-1.3-.1 0 .1.1.2.1.1.2-.4.9 0 1.1.2.2.2.5 1 .1 1.3-.1 0 0 .1.1 0z"/><path class="st1" d="M33.1 47.2c.9-.1.5-1.3 0-1.7-.1 0-.2.1-.1.1.4.2.8 1.3.1 1.4-.2.1-.1.2 0 .2z"/><path class="st1" d="M33.5 46c.3-.2.5-.4.5-.8.1-.4-.2-.8-.5-1.1-.1-.1-.2 0-.1.1.5.5.7 1.2 0 1.6 0 .1 0 .2.1.2z"/><path class="st1" d="M34.4 47.4c.1-.4.1-.8-.1-1.2-.2-.3-.5-.3-.8-.3-.1 0-.1.2 0 .2.8 0 .9.7.8 1.3h.1z"/><path class="st1" d="M35.6 49.4c.5-.9.1-2.7-1.2-2.1-.1 0 0 .2.1.1 1.2-.6 1.5 1.1 1 1.9-.1.1.1.2.1.1zm.9 2.5c.6-.1.6-.9.5-1.4-.2-.6-.9-1.1-1.5-1-.1 0-.1.2 0 .1.4-.1.9.3 1.1.7.2.3.4 1.4-.2 1.4 0 .1 0 .2.1.2z"/><path class="st1" d="M37.6 53.7c.3-.2.2-.8.1-1.2-.3-.7-.7-.7-1.3-.8-.1 0-.1.1 0 .1.3.1.7.1 1 .3.3.2.7 1.1.3 1.4-.3.1-.2.3-.1.2z"/><path class="st1" d="M38.9 55.1c0-.4.1-.9-.2-1.2-.3-.3-.8-.2-1.2-.3-.1 0-.1.1 0 .1.4 0 .9 0 1.2.3.2.3.1.7.1 1-.1.2.1.2.1.1z"/><path class="st1" d="M39 54.5c.6-.1.5-1 .3-1.3-.3-.5-.9-.8-1.6-.6-.1 0-.1.2 0 .1.4-.1.8 0 1.1.2l.3.3c.1.2.3 1-.2 1.1-.1.1 0 .3.1.2z"/><path class="st1" d="M37.8 52.7c.5-.3.5-1.4.4-1.9-.2-.5-.9-.8-1.4-.6-.1 0-.1.2 0 .1.2-.1.5 0 .7.1.4.2.5.5.5.9s0 1.1-.4 1.3c0 0 .1.1.2.1z"/><path class="st1" d="M36.9 50.2c.5-.4.6-1 .3-1.5s-.7-1-1.4-.8c-.1 0-.1.2 0 .1.6-.2 1 .3 1.2.8.3.5.2 1-.2 1.3-.1.1 0 .2.1.1zm-1.1-2.4c.5-.2.4-.8.1-1.2-.2-.2-.4-.5-.7-.6-.4-.1-.6.2-1 .2-.1 0-.1.1 0 .2.4 0 .8-.3 1.2 0 .4.3.9 1.1.3 1.4-.1-.1 0 0 .1 0z"/><path class="st1" d="M34.3 46.2c.4-.1.5-.4.5-.8 0-.5-.4-.7-.8-.9-.1 0-.2.1-.1.1.2.1.5.2.6.4.2.2.2 1-.2 1.1-.1 0-.1.1 0 .1zm4.6 8.4c.3.1 1.1.1 1.1.6 0 .1.1.1.2 0 0-.6-.8-.7-1.2-.8-.2.1-.2.2-.1.2z"/><path class="st1" d="M40.2 55.3c.6-.1.7-.9.5-1.4-.3-.7-.9-.8-1.6-.8-.1 0-.1.1 0 .1.5 0 .9.1 1.2.4.3.3.6 1.4-.1 1.5-.1.1-.1.2 0 .2z"/><path class="st1" d="M39.2 53.2c.5-.2.5-1.1.4-1.5-.2-.6-.8-1-1.4-1-.1 0-.1.2 0 .2.6 0 1.1.3 1.3.8.1.4.2 1.2-.3 1.4-.1.1-.1.2 0 .1z"/><path class="st1" d="M38.2 50.8c.5-.2.5-1 .3-1.5-.2-.6-.8-.8-1.4-.7-.1 0-.1.2 0 .1.5-.1 1 .2 1.2.6.1.3.2 1.1-.2 1.3 0 .1 0 .3.1.2zm3.6 4.8c.3-.8-.2-1.6-1.1-1.6-.1 0-.1.1 0 .2.8 0 1.2.7 1 1.4-.1.1.1.1.1 0z"/><path class="st1" d="M40.8 54c.5-.1.4-1.2.2-1.5-.2-.5-.9-1.1-1.5-.7-.1 0 0 .2.1.1.5-.3 1.1.3 1.2.7.1.3.3 1.2-.1 1.3-.1 0 0 .2.1.1z"/><path class="st1" d="M39.7 51.7c1-.8.1-2.7-1.1-2.4-.1 0-.1.2 0 .1 1.1-.2 1.9 1.4 1 2.1-.1.2 0 .3.1.2zm-2.5-3c.5-.5.4-1.1 0-1.6-.3-.5-.9-.9-1.4-.5-.1.1 0 .2.1.1.6-.4 1.1.1 1.3.6.3.5.3.9-.1 1.3-.1 0 0 .1.1.1zm-1.3-2.2c1-1-.3-2.5-1.5-1.7-.1.1 0 .2.1.1 1-.7 2.2.6 1.3 1.5l.1.1z"/><path class="st1" d="M34.5 44.8c.7-.5.3-1.7-.5-1.9-.1 0-.1.1 0 .1.6.1 1 1.2.5 1.6-.2.1-.1.2 0 .2z"/><path class="st1" d="M34.6 43.3c.4-.3.4-1.4-.3-1.4-.1 0-.1.2 0 .2.6 0 .5.9.2 1.1-.1 0 0 .1.1.1z"/><path class="st1" d="M36 44.9c.3-.6.2-1.2-.3-1.7-.3-.3-.9-.4-1.2-.1-.1.1 0 .2.1.1.4-.3 1 0 1.2.4.2.4.2.8 0 1.2.1.1.2.2.2.1zm2.5 4.5c.3-.5.4-1.1 0-1.7-.3-.5-.8-.7-1.4-.5-.1 0 0 .2 0 .1.5-.2 1.1.1 1.3.6.2.4.1.9-.1 1.3.1.2.2.3.2.2z"/><path class="st1" d="M37.4 47.3c.1 0 .1-.2 0-.2s-.1.2 0 .2z"/><path class="st1" d="M37.4 47.3c.1 0 .1-.2 0-.2s-.1.2 0 .2z"/><path class="st1" d="M37.5 47.2c.8-1-.1-2.5-1.4-2.2-.1 0-.1.2 0 .1 1.1-.3 1.9 1.1 1.2 2 0 .1.1.2.2.1zm5.3 8.7c.2-.7-.3-1.3-1-1.2-.1 0-.1.2 0 .1.6-.1 1 .4.9 1 0 .2.1.2.1.1z"/><path class="st1" d="M41.9 54.8c.4-.4.5-1 .3-1.5-.2-.4-.7-.8-1.2-.7-.1 0-.1.2 0 .1.5-.2.9.3 1.1.7.1.4 0 .9-.3 1.2 0 .2.1.3.1.2z"/><path class="st1" d="M41.2 52.8c.4-.5.5-1.1.2-1.7-.2-.6-.7-.8-1.4-.8-.1 0-.1.1 0 .2.6 0 1.1.3 1.3.9.1.5 0 1-.3 1.4h.2z"/><path class="st1" d="M40.1 50.3c.3-.5.4-1.2.2-1.7-.3-.6-.9-.7-1.6-.7-.1 0-.1.1 0 .2.6 0 1.2.1 1.4.7.2.5.1 1.1-.2 1.5 0 0 .1.1.2 0z"/><path class="st1" d="M38.7 48c.8-1.1.2-2.6-1.2-2.6-.1 0-.1.1 0 .2 1.2.1 1.8 1.4 1.1 2.4-.1-.1.1 0 .1 0z"/><path class="st1" d="M37.5 45.4c.4-.6.4-1.4 0-2-.2-.2-.4-.3-.7-.3-.3 0-.7-.1-1 .1-.1.1 0 .2.1.1.2-.1.5-.1.7-.1.4 0 .6 0 .8.4.3.5.4 1.2 0 1.7-.1.1 0 .2.1.1z"/><path class="st1" d="M35.9 43.4c.7-1 0-2.7-1.3-2.4-.1 0-.1.2 0 .1 1.2-.2 1.8 1.3 1.2 2.2-.1.1 0 .1.1.1z"/><path class="st1" d="M43.6 56.2c-.3-3.5-1.9-6.5-3.4-9.7-1-2.1-2.8-6.1-5.2-6.9-.1 0-.1.1 0 .1 2.4.8 4.3 5.1 5.3 7.2 1.4 3 2.9 5.8 3.2 9.1-.1.3.1.3.1.2zm-8.7-16.6c1.8 0 3.1-1 3.9-2.6.6-1.1.6-2.7-.3-3.7-.1-.1-.2 0-.1.1.9 1.1.7 2.8 0 3.9-.8 1.4-2 2.1-3.6 2.2 0-.1 0 .1.1.1z"/><path class="st1" d="M35.9 40.3c3.6.7 4.7-4.8 3.7-7.3 0-.1-.2 0-.1.1 1 2.2-.1 7.7-3.5 7-.1.1-.2.2-.1.2z"/><path class="st1" d="M39.5 44.8c1.4-1.9 1.2-4.4-.4-6-.1-.1-.2 0-.1.1 1.6 1.6 1.8 4 .4 5.8-.1.1 0 .2.1.1z"/><path class="st1" d="M39.7 45.9c1.4-.4 1.7-2.3 1.8-3.5.1-1.9-.8-3-2.2-4.2-.1-.1-.2 0-.1.1.9.8 1.8 1.6 2.1 2.8.3 1.2 0 4.3-1.6 4.7-.1-.1-.1.1 0 .1z"/><path class="st1" d="M39.4 38.3c1.9.7 3.9-.6 5.3-1.9.4-.4 2.2-3.1 1.3-3.5-.1 0-.2.1-.1.1.5.2-.5 2.2-.7 2.4-.4.7-1 1.1-1.6 1.6-1.2.9-2.6 1.6-4.1 1.1-.1.1-.1.2-.1.2z"/><path class="st1" d="M39.7 37.4c1.4.3 2.6-.1 3.7-.9s1.5-2.1 1.9-3.3c0-.1-.1-.1-.1 0-.4 1.1-.7 2.2-1.6 3-1 1-2.5 1.5-3.8 1.1-.2-.1-.2.1-.1.1zm1.8 5c1.3 0 2-1.5 2.5-2.5.4-.9.7-2.1-.1-2.9-.1-.1-.2 0-.1.1 1.3 1.3-.6 5.1-2.3 5.1-.1.1-.1.2 0 .2z"/><path class="st1" d="M41.2 43.7c1.4.4 2.8-1.2 3.3-2.3.7-1.5 1.1-3.3.3-4.9 0-.1-.2 0-.1.1.7 1.3.4 2.6 0 3.9-.4 1.2-1.7 3.6-3.5 3.1 0-.1-.1 0 0 .1z"/><path class="st1" d="M41.3 49c1.4.1 2.4-.9 2.8-2.1.5-1.4.7-3.3 0-4.6-.1-.1-.2 0-.1.1 1.2 2 .1 6.8-2.7 6.5-.1-.1-.1.1 0 .1z"/><path class="st1" d="M41.8 50.2c1.6.1 2.9-1.3 3.3-2.8.6-2.1.7-4.2-.6-6-.1-.1-.2 0-.1.1 1.1 1.5 1.1 2.9.8 4.7-.3 1.8-1.2 3.9-3.4 3.8-.1.1-.1.2 0 .2z"/><path class="st1" d="M44.5 41.6c1.9.2 3.2-2.1 3.7-3.7.5-1.7-.3-3.8-1.7-4.9-.1-.1-.2.1-.1.1 1.4 1 2.1 3.1 1.6 4.7-.4 1.4-1.7 3.8-3.5 3.6-.1 0-.1.2 0 .2z"/><path class="st1" d="M45.2 39.7c1.2-.1 1.6-1.2 1.8-2.3.3-1.3-.1-2.4-1-3.4-.1-.1-.2 0-.1.1.6.7 1.1 1.5 1.1 2.5 0 1.1-.4 2.8-1.7 3-.2 0-.2.1-.1.1zm3.1-2c2.2-.6 3.7-2.4 4-4.7 0-.1-.1-.1-.1 0-.2 2.2-1.7 4-3.9 4.5-.1.1-.1.2 0 .2z"/><path class="st1" d="M47.8 38.7c1.3.9 2.8-.2 3.8-1.1 1.4-1.2 2.2-2.9 2.4-4.7 0-.1-.1-.1-.1 0-.1 1.5-.7 2.9-1.8 4.1-.9 1-2.8 2.6-4.2 1.6-.1-.1-.2 0-.1.1z"/><path class="st1" d="M45.5 44.9c1.4-.3 2.7-.9 3.6-2 .9-1.1.9-2.7.9-4 0-.1-.1-.1-.1 0-.1 1.4-.1 3.1-1.1 4.1-.9.9-2.1 1.5-3.3 1.7-.2.1-.1.2 0 .2z"/><path class="st1" d="M45.5 45.8c1.6.3 3.1-.4 4.1-1.6 1.6-1.9 1.9-3.9 1.8-6.4 0-.1-.2-.1-.1 0 0 2.1-.1 3.8-1.3 5.6-1.1 1.5-2.4 2.6-4.4 2.3-.2 0-.2.1-.1.1zm5.9-8.1c1.2.6 3.4.4 4.1-.8 0-.1-.1-.2-.1-.1-.7 1.1-2.8 1.3-3.9.7-.1.1-.2.2-.1.2zm1.2-1.2c1.1.2 2.1 0 2.9-.7.1-.1 0-.2-.1-.1-.8.7-1.7.9-2.7.7-.2 0-.2.1-.1.1z"/><path class="st1" d="M43.1 49.9c3.2 2.3 7.3-1.2 5.4-4.7 0-.1-.2 0-.1.1 1.7 3.4-2.1 6.7-5.2 4.5-.1-.1-.2 0-.1.1z"/><path class="st1" d="M44.3 49.1c1 .2 2-.2 2.8-.9.8-.6.8-1.7.8-2.6 0-.1-.2-.1-.2 0 0 1-.1 1.9-.9 2.6-.7.5-1.6.9-2.5.7 0 0-.1.2 0 .2zm4.3-3.9c1.8.6 4.6.7 5.8-1.1.1-.1-.1-.2-.1-.1-1.2 1.7-3.9 1.5-5.6 1-.2.1-.2.2-.1.2zm1.3-1.3c1.6.3 4.2-.5 4.8-2.2 0-.1-.1-.1-.1 0-.6 1.5-3.1 2.3-4.6 2-.1 0-.2.2-.1.2zm-6.7 10.7c1.2.5 2.6.1 3.5-.8.9-1 1.1-2.5.9-3.8 0-.1-.2-.1-.1 0 .2 1.3 0 2.7-.9 3.7-.8.9-2.2 1.3-3.3.8-.1-.1-.2 0-.1.1zm-.5-2.4c.4-.2.6-.5.7-1 .1-.4.2-.9 0-1.2 0-.1-.2 0-.1.1.1.2 0 .8 0 1-.1.4-.3.7-.6.9-.2.1-.1.2 0 .2z"/><path class="st1" d="M43.1 53.5c.9.4 1.8-.1 2.4-.6.8-.7 1.2-1.5 1-2.5 0-.1-.2-.1-.1 0 .2.9-.2 1.6-.8 2.2-.6.6-1.5 1.1-2.4.8-.1 0-.2.1-.1.1zm4.5-3.6c.7.6 1.4 1.2 2.4 1 1-.3 2-.9 2.7-1.7.6-.7.9-1.6.7-2.5-.1-.4-.3-1.5-.8-1.5-.1 0-.1.2 0 .2.3 0 .5.8.6 1 .1.5.2.9.1 1.3-.2.9-.7 1.5-1.4 2-.4.3-.7.5-1.1.7-.7.4-1.1.5-1.8.1-.5-.2-.7-.4-1.1-.7-.3 0-.4.1-.3.1z"/><path class="st1" d="M48.2 49.1c1 .5 2.5.6 3.4-.3.8-.8.9-2.3.4-3.2-.1-.1-.2 0-.1.1.5.9.4 2.2-.3 3-.8.9-2.3.8-3.2.4-.3-.2-.3-.1-.2 0zm4.7-3.6c.3.2.7.4 1.1.4.1 0 .1-.1 0-.2-.4 0-.7-.1-1-.4-.1 0-.2.1-.1.2zm-1.8 5.1c.3.4.8.8 1.4.6.1 0 .1-.2 0-.1-.5.1-.9-.2-1.2-.6-.2-.1-.3 0-.2.1zm.6-.5c.2.3.5.4.9.4.1 0 .1-.2 0-.1-.3.1-.5 0-.7-.3-.1-.1-.2 0-.2 0z"/><path class="st1" d="M46.4 54.1c.7.5 2.1.7 2.9.2.5-.3 1.1-1.1 1.4-1.6.4-.7.5-1.3.4-2.1 0-.1-.2-.1-.2 0 .1.7.1 1.3-.3 1.9-.3.5-.8 1.1-1.2 1.4-.7.7-2.2.6-3 0 0 0-.1.2 0 .2z"/><path class="st1" d="M47 53.4c1.7.6 3.4-.6 3.3-2.4 0-.1-.2-.1-.2 0 .1 1.7-1.5 2.8-3.1 2.2-.1 0-.1.1 0 .2zm2.2 1.1c.6.2 1.2.2 1.8-.1.1 0 0-.2-.1-.1-.6.2-1.1.3-1.7.1 0 0-.1.1 0 .1zm.6-.5c.5 0 1.1.2 1.4-.3 0-.1-.1-.2-.1-.1-.2.4-.9.3-1.3.2-.1 0-.1.2 0 .2zm-4.3 3.3c.9-.5 1.1-2.1.8-3 0-.1-.2-.1-.1 0 .3.8.1 2.4-.7 2.8-.2.1-.1.3 0 .2zm-.7-.4c.2-.3.5-.7.6-1.1.1-.4 0-.9 0-1.4 0-.1-.2-.1-.2 0 0 .4.1.8.1 1.2-.1.5-.4.8-.6 1.2 0 .1.1.2.1.1z"/><path class="st1" d="M49.1 54.5c.3.8.3 2.3-.5 2.9-.8.6-2.2.4-3-.2-.1-.1-.2.1-.1.1.7.5 2.2.9 3 .3.9-.6 1-2.2.7-3.1 0-.1-.1-.1-.1 0z"/><path class="st1" d="M46 56.9c.7.2 1.4.2 1.8-.4.2-.2.4-.5.5-.8.1-.4.1-.9.1-1.3 0-.1-.2-.1-.1 0v.8c0 .4-.2.6-.4 1-.2.3-.4.6-.8.6-.3 0-.7 0-1-.1-.2 0-.2.2-.1.2zm3.1.2c.2.1.4.1.6.1.1 0 .1-.2 0-.1-.2 0-.3 0-.5-.1-.2 0-.2.1-.1.1zm0 .8c0-.3 0-.5-.2-.8 0-.1-.2 0-.1 0 .1.2.1.5.2.7 0 .2.1.2.1.1zm.3-1.6c.2.1.4 0 .6-.1.1 0 0-.2 0-.1-.2.1-.4.1-.6.1-.1-.1-.1.1 0 .1zm-1.2 3c.1-.4.3-1.2-.2-1.4-.1 0-.2.1-.1.1.4.2.2 1 .1 1.3 0 .1.2.1.2 0zm-23.5-5.7v-.1c0-.1-.1-.1-.1 0v.1c0 .1.1.1.1 0zm-.2-1.6s0-.1 0 0c-.1-.1-.2 0-.2 0l.1.1c.1 0 .2-.1.1-.1zm-.6-1.6c.1 0 .1-.2 0-.2s-.1.2 0 .2zm-.6-1.8c.1 0 .1-.2 0-.2-.1.1-.1.2 0 .2zm-.7-1.3c.2 0 .2-.2.1-.2h-.1c-.1 0-.1.2 0 .2zm-.6-1.4c.1 0 .1-.2 0-.2s-.1.2 0 .2zm-.8-1.5c.1 0 .1-.2 0-.2-.1.1-.1.2 0 .2zm-.9-1.4c.1 0 .1-.1 0-.1v.1zm-.8-1.4s0-.1 0 0c0-.2-.2-.2-.2-.1v.1c0 .1.2.1.2 0zm-1.2-1.4c.1 0 .1-.1 0-.1-.1-.1-.1.1 0 .1zm-1.1-1.6c.1 0 .1-.1 0-.1v.1zm-.8-1.5c-.1 0-.1 0 0 0-.2 0-.2.2-.1.2h.1v-.2zm-1-1c.1 0 .1-.1 0-.1s-.1.1 0 .1zm-1.1-.9c.1 0 .1-.1 0-.1-.1-.1-.1.1 0 .1zm-1.2-1c0-.2-.2-.2-.2-.1v.1c0 .1.2.1.2 0zm8-26.2c-1 7.4-4.4 14.1-10 19-2.4 2.1-5.6 4.5-8.8 5.3-.1 0-.1.2 0 .1 3.2-.8 6.4-3.2 8.8-5.3 5.7-4.9 9.1-11.7 10.1-19.1.1-.1-.1-.1-.1 0zm2.9 2.5c-.4 4.4-2.2 8.5-4.5 12.3-2.3 3.7-5.2 7.6-9.2 9.5-.1 0 0 .2.1.1 4-1.9 7-5.8 9.3-9.5 2.3-3.8 4.2-7.9 4.6-12.4H24z"/><path class="st1" d="M22 18.2c-3.5-2.4-2.1-7.2 2-7.6.1 0 .1-.2 0-.2-4.3.4-5.8 5.4-2.1 7.9.1.1.2 0 .1-.1z"/><path class="st1" d="M18.4 24.4c-1.5-.8-1.7-2.8-1.2-4.2.7-2.1 2.8-2.6 4.7-1.9.1 0 .1-.1 0-.1-2-.7-4-.3-4.8 1.8-.6 1.5-.4 3.7 1.2 4.5.1.1.2-.1.1-.1z"/><path class="st1" d="M18.4 24.4c-1.5-.3-4-.6-5.1.7-1.2 1.4-1.1 4-.1 5.4.1.1.2 0 .1-.1-1-1.4-1.1-4.1.3-5.3 1.1-1.1 3.4-.9 4.8-.6 0 0 .1-.1 0-.1z"/><path class="st1" d="M13.3 30.4c-3-2.5-5.9-.1-8.4 1.9-.1.1 0 .2.1.1 2.4-1.9 5.3-4.3 8.2-1.9 0 .1.2 0 .1-.1zm1-3.3c-.1-.2.3-.6.5-.6.4 0 .4.7.1.8-.2 0-.6.1-.6-.2 0-.1-.1-.1-.1 0 0 .7 1.2.4 1.1-.3-.1-.8-1.5-.6-1.1.3 0 .1.1.1.1 0zm4.3-6.2c-.1-.2.3-.6.5-.6.4 0 .4.7.1.8-.1.1-.6.1-.6-.2 0-.1-.1-.1-.1 0 0 .7 1.2.4 1.1-.3-.1-.8-1.5-.6-1.1.3 0 .2.1.1.1 0zm2.8-6.7c.3-.9.6-.9.8 0-.3.3-.5.3-.8 0 0-.2-.1-.2-.2-.1-.1.7 1.3.6 1.2-.2-.1-.8-1.3-.5-1.2.3.1.2.3.1.2 0zm2.3-.3l.9.3c.1 0 .1-.1 0-.1l-.9-.3c-.1-.1-.1.1 0 .1zm.2-1.5c.4.1.7.3 1.1.4.1 0 .2-.1.1-.1-.3-.2-.7-.4-1.1-.5-.2.1-.2.2-.1.2zm-.8 3.3l.9.3c.1 0 .1-.1 0-.1l-.9-.3s-.1.1 0 .1zm-.6 1.7c.3.1.6.3.8.4.1 0 .2-.1.1-.1-.3-.1-.6-.3-.9-.4 0-.1-.1 0 0 .1zm-.7 1.4c.3 0 .6.1.9.3.1 0 .2-.1.1-.1-.3-.2-.6-.2-.9-.3-.1-.1-.1.1-.1.1zm-.6 1.4c.3 0 .5.1.8.3.1 0 .2-.1.1-.1-.3-.2-.5-.3-.9-.3-.1 0-.1.1 0 .1zm-.8 1.4c.3 0 .6.1.8.3.1.1.2-.1.1-.1-.3-.2-.5-.3-.9-.3-.1-.1-.1.1 0 .1zm-1 1.4c.3.1.6.1.9.3.1 0 .2-.1.1-.1-.3-.2-.6-.2-.9-.3-.1 0-.2.1-.1.1zm-1 1.5c.3.1.6.2.8.4.1 0 .2-.1.1-.1-.3-.1-.6-.3-.9-.4 0 0-.1.1 0 .1zm-1 1.6c.3 0 .6.1.9.3.1 0 .2-.1.1-.1l-.9-.3c-.2-.1-.2.1-.1.1zm-1 1.3c.3.1.6.1.8.3.1.1.2-.1.1-.1-.3-.2-.6-.2-.9-.3 0-.1-.1 0 0 .1zm-1 1.2c.3.1.5.2.8.3.1.1.2-.1.1-.1-.3-.2-.5-.3-.8-.3-.1-.1-.2 0-.1.1zm-1 1c.3.1.6.3.8.4.1 0 .1-.1 0-.1-.3-.1-.6-.3-.8-.4-.1-.1-.1.1 0 .1z"/><path class="st1" d="M13.3 30.5c.3 0 .5.2.7.5.1.1.2 0 .1-.1-.2-.2-.5-.5-.8-.5-.1 0-.1.1 0 .1zm-1.5 1.1c.3 0 .6.1.9.3.1.1.2-.1.1-.1-.3-.2-.6-.4-.9-.3-.2 0-.2.1-.1.1zm-11.7.8c.9-1 2.3-1.3 3.5-1.9 1.1-.6 2.2-1.3 3.3-2 1.9-1.4 3.7-2.9 5.3-4.6 4.3-4.6 7-10.3 8.2-16.4 0-.1-.1-.1-.1 0-1.3 6.5-4.3 12.4-9 17.1-1.6 1.6-3.5 3.1-5.4 4.4-1.8 1.2-4.4 1.8-5.9 3.4 0 0 .1.1.1 0z"/><path class="st1" d="M20.1 8.9c.3-.3.7-.6 1.1-.8.1-.1 0-.2-.1-.1-.4.3-.8.5-1.1.8 0 .1.1.2.1.1z"/><path class="st1" d="M20 8.9c.4.3.6.6.8 1 0 .1.2 0 .1-.1-.2-.4-.4-.8-.8-1.1-.1 0-.2.1-.1.2z"/><path class="st1" d="M20.9 9.8c-.5.2-.9.6-1.3 1-.1.1 0 .2.1.1.4-.3.8-.8 1.3-.9 0-.1-.1-.2-.1-.2z"/><path class="st1" d="M19.5 10.9c.2.5.5 1 .7 1.5 0 .1.2 0 .1-.1-.2-.5-.5-1-.7-1.5 0-.1-.2 0-.1.1z"/><path class="st1" d="M20.2 12.2c-.5.2-.9.5-1.4.6-.1 0-.1.2 0 .1.5-.1.9-.4 1.4-.6.2 0 .1-.1 0-.1z"/><path class="st1" d="M18.8 12.9c.2.5.5.9.8 1.3.1.1.2 0 .1-.1-.3-.4-.6-.9-.8-1.3l-.1.1z"/><path class="st1" d="M19.6 14.2c-.5.1-1 .3-1.5.5-.1 0 0 .2.1.1.5-.2 1-.4 1.5-.5.1 0 0-.2-.1-.1z"/><path class="st1" d="M18.1 14.8c.3.4.5.9.8 1.3.1.1.2 0 .1-.1-.3-.4-.5-.9-.8-1.3 0-.1-.2 0-.1.1z"/><path class="st1" d="M18.9 16c-.6.3-1.1.5-1.8.6-.1 0-.1.2 0 .1.6-.1 1.2-.4 1.8-.7.2.1.1 0 0 0z"/><path class="st1" d="M17.1 16.7c.2.5.5 1 .8 1.5.1.1.2 0 .1-.1-.3-.5-.6-.9-.8-1.4.1-.1-.1-.1-.1 0z"/><path class="st1" d="M18 18.1c-.6.1-1.2.4-1.8.6-.1 0-.1.2 0 .1.6-.2 1.2-.5 1.8-.6.1 0 .1-.1 0-.1z"/><path class="st1" d="M16.1 18.7c.2.5.5 1 .7 1.5 0 .1.2 0 .1 0-.2-.5-.5-1-.7-1.5 0-.1-.1 0-.1 0z"/><path class="st1" d="M16.8 20.2c-.6-.1-1.3 0-1.9.2-.1 0-.1.2 0 .1.6-.2 1.2-.3 1.8-.2.2 0 .2-.1.1-.1z"/><path class="st1" d="M14.9 20.5c.2.5.5 1 .6 1.6 0 .1.2.1.1 0-.1-.6-.4-1.1-.6-1.6.1-.1-.1-.1-.1 0z"/><path class="st1" d="M15.6 22c-.6-.1-1.2 0-1.9.1-.1 0-.1.2 0 .2.6-.1 1.2-.2 1.9-.1.1 0 .1-.2 0-.2z"/><path class="st1" d="M13.7 22.3c.3.6.1 1.2.3 1.8 0 .1.2.1.1 0-.2-.6 0-1.3-.3-1.9-.1-.1-.2 0-.1.1z"/><path class="st1" d="M14 24c-.6 0-1.3.1-1.9 0-.1 0-.1.1 0 .1.6.1 1.3 0 1.9 0 .1.1.1-.1 0-.1z"/><path class="st1" d="M12 24.1c.2.6.2 1.1.4 1.7 0 .1.2.1.1 0-.2-.6-.2-1.1-.4-1.7.1-.1-.1-.1-.1 0z"/><path class="st1" d="M10.6 25.6c.6.1 1.3.2 1.9.2.1 0 .1-.1 0-.1-.6 0-1.2-.1-1.9-.2-.1 0-.1.1 0 .1z"/><path class="st1" d="M10.5 25.6c.2.6 0 1.2.2 1.8 0 .1.2.1.1 0-.1-.6 0-1.2-.2-1.8.1-.2-.1-.1-.1 0z"/><path class="st1" d="M10.8 27.2c-.6 0-1.3-.1-1.9-.2-.1 0-.1.1 0 .1.6.2 1.3.2 2 .2 0 .1 0-.1-.1-.1z"/><path class="st1" d="M8.7 27.1c.1.6 0 1.1 0 1.7 0 .1.2.1.1 0 0-.6.1-1.2 0-1.7.1-.1-.1-.1-.1 0z"/><path class="st1" d="M8.8 28.8c-.6-.1-1.2-.2-1.8-.5-.1 0-.2.1-.1.1.6.3 1.2.4 1.8.5.2.1.2-.1.1-.1z"/><path class="st1" d="M6.9 28.4c0 .7-.3 1.3-.3 2 0 .1.2.1.2 0-.1-.7.2-1.3.3-2 0-.1-.1-.1-.2 0z"/><path class="st1" d="M4.8 29.9c.5.3 1.3.5 1.9.6.1 0 .1-.1 0-.1-.6-.1-1.3-.3-1.9-.6 0-.1-.1 0 0 .1z"/><path class="st2" d="M27.4 14.5l-3.5 2.3 6.1 2.1-10.1 5 12.7 3-20.5 5.5m7.6-7.9l11.8 2.7m-17.8 4l15.4-3.9m-9.9-2.2l11.1 2.4m-15.5 2.7l12.7-3.3m-8.6-1.3l7.3 1.6m-10.4 2l7.8-2m-5-1.1l6.3 1.4m5.1-8.6l2.6 8m-3-7.8l2.3 7.6m-2.8-7.4l2.2 7.3m-2.7-7l2 6.8m-2.7-6.5l1.9 6.4m-2.5-6.1l1.8 5.9m-2.4-5.6l1.6 5.4m-2.2-5.1l1.3 4.9m-2-4.5l1.1 4.3m-1.8-3.9l.9 3.7M24 21.9l.9 3.2m-1.5-2.9l.7 2.7m-1.2-2.5l.6 2.4m-1.1-2.1l.4 1.9m-.9-1.7l.3 1.6m-.8-1.3l.1 1.1m-.6-.8v.7m-.4-1.2l8.8-4.4m-.8-.2L21 22.2m2.7-4.9l4.2 1.4m-4.4-1.1l3.8 1.4m-5.9 2.5l5.3-2.7m-4.9 2l4.4-2.2m-2.9-.6l2.5.8m3-.3l-1.1-3.6m.5 3.4l-1.1-3.5m.3 3.2l-.9-2.9m.1 2.7l-.6-2.3m-.1 2l-.5-1.6m-.3 1.4l-.2-1.1m-.8 0l3-2.1m-2.7 1.4l2.4-1.8m-2.2 1l1.9-1.4m5 13.9l1.6 5.2m-2.2-5l1.4 5m-2.1-4.8l1.4 4.8m-2.1-4.7l1.3 4.7m-1.9-4.5l1.3 4.5m-2.1-4.3l1.3 4.3m-2.1-4.1l1.2 4.1m-1.9-3.9l1.1 3.9m-1.8-3.7l1.1 3.7m-1.8-3.5l1 3.5m-1.7-3.3l1 3.3m-1.7-3.1l1 3.1m-1.7-3l.8 3"/><path class="st2" d="M18.2 32.4s-.2-1 1.1-1.1c1.3-.1 1.7 1.1 1.7 1.1l1.5-2.8.7 2.8m-4.1 0c.7-.5.8 0 .8 0"/><path class="st1" d="M25.1 11.7c-.2 4-2.6 8-4.7 11.4-2.1 3.4-4.8 7.3-8.4 9.3-.1 0 0 .2.1.1 3.6-2 6.3-5.9 8.4-9.3 2.1-3.3 4.5-7.4 4.7-11.4 0-.2-.1-.2-.1-.1z"/><path class="st2" d="M33.1 32.4c-.1-6.9-1.6-14.3-9.1-21.9m.7-2.5c5.5 4.7 10.7 14 10.7 24.4"/><path class="st1" d="M24.7 8.1c7.4 2.9 17.9 4.1 23.9-2.4.1-.1 0-.2-.1-.1C42.6 12 32.1 10.8 24.8 8c-.1-.1-.2.1-.1.1z"/><path class="st1" d="M27.8 9.1c.1.6 0 1.1-.4 1.6-.1.1 0 .2.1.1.4-.5.6-1.1.4-1.7 0-.1-.1 0-.1 0z"/><path class="st1" d="M27.9 10.4c.3.1.8 0 1-.3.1-.2.3-.6 0-.7-.1 0-.1.1 0 .1.2.1-.3.6-.4.6-.2.1-.4.1-.6 0-.1.1-.1.3 0 .3z"/><path class="st1" d="M28.7 10.2c.1.5-.1 1-.6 1.1-.1 0-.1.2 0 .1.6-.1.9-.7.7-1.3.1 0-.1 0-.1.1z"/><path class="st1" d="M29.9 9.7c-.1.6-.5 1-1.1 1-.1 0-.1.2 0 .1.7 0 1.2-.5 1.2-1.1.1-.1-.1-.1-.1 0z"/><path class="st1" d="M29.5 10.6c.1.6-.1 1.4-.9 1.4-.1 0-.1.1 0 .2.8.1 1.1-.8 1-1.5 0-.2-.2-.2-.1-.1z"/><path class="st1" d="M30.9 9.8c0 .7-.6 1.2-1.3 1.2-.1 0-.1.1 0 .2.8.1 1.5-.5 1.5-1.3 0-.2-.2-.2-.2-.1z"/><path class="st1" d="M30.2 11.1c0 .6-.2 1.6-1 1.6-.1 0-.1.2 0 .2.8 0 1.2-1.1 1.1-1.8 0-.1-.1-.1-.1 0z"/><path class="st1" d="M30 12.5c.4.3 0 1.1-.4 1.2-.1 0-.1.2 0 .1.3-.1.5-.3.6-.6 0-.2 0-.7-.2-.8 0-.1-.1 0 0 .1z"/><path class="st1" d="M30.9 10.4c.4.3.5.9.2 1.3-.2.4-.6.5-1 .6-.1 0-.1.2 0 .1.5-.1 1-.4 1.2-.9.2-.5.1-1-.3-1.3-.1.1-.2.2-.1.2z"/><path class="st1" d="M32.2 10.1v.7c-.2.4-.4.4-.8.5-.1 0-.1.2 0 .2.3 0 .6 0 .8-.3.2-.3.2-.8.2-1.1-.1-.1-.2-.1-.2 0z"/><path class="st1" d="M31.3 11.5c.2.4.3.9.1 1.3-.2.3-.8.5-1.2.5-.1 0-.1.1 0 .2.4.1 1-.1 1.3-.5.3-.4.1-1-.1-1.4 0-.3-.2-.2-.1-.1z"/><path class="st1" d="M30.7 13.3c.2.5.1 1-.4 1.1-.1 0-.1.2 0 .1.7-.2.8-.8.5-1.4 0 .1-.1.1-.1.2z"/><path class="st1" d="M31.5 13c0 .1 0 .1.1.2.1.3 0 .6-.3.8-.1.1-.3.2-.5.2-.1 0-.1.2 0 .2.4 0 .8-.4.9-.8 0-.2 0-.8-.3-.7-.1 0 0 .1.1.1z"/><path class="st1" d="M32.2 11.1c.2.6.2 1.6-.7 1.7-.1 0-.1.2 0 .2.9-.1 1.1-1.1.8-1.9 0-.2-.2-.1-.1 0z"/><path class="st1" d="M33.1 10.2c.1.5 0 1.7-.8 1.7-.1 0-.1.1 0 .1.9.1 1-1.3.9-1.8 0-.2-.1-.1-.1 0z"/><path class="st1" d="M32.4 12.1c.1.1.2.6.2.7 0 .5-.4.9-.9.8-.1 0-.1.1 0 .1.4.1.9-.2 1-.6.1-.3.1-1.1-.2-1.2-.1 0-.2.1-.1.2zm-1.6 2.2c.1.2.3.8-.1.9-.1 0 0 .2.1.1.4-.2.3-.8.1-1.1 0 0-.2 0-.1.1z"/><path class="st1" d="M31.6 13.8c.2.2.2.6.2.8-.1.3-.5.8-.8.5-.1-.1-.2.1-.1.1.3.2.8-.1.9-.3.2-.3.2-1-.1-1.3-.1 0-.2.1-.1.2zm2.5-3.5c0 .3-.1.6-.3.7-.2.1-.4.1-.6.1-.1 0-.1.1 0 .1.7 0 1-.3 1.1-1 0 .1-.2.1-.2.1z"/><path class="st1" d="M33.2 11.3c.4.6.6 1.8-.5 1.8-.1 0-.1.1 0 .1.5 0 .8-.1.9-.6.1-.5 0-1-.3-1.5-.1.1-.2.2-.1.2z"/><path class="st1" d="M32.7 13.3c.3.4.4.8.2 1.2-.1.2-.3.3-.5.4-.1 0-.4 0-.4.1 0-.1-.1-.1-.1 0v.1s0 .1.1.1c.6 0 .9 0 1.2-.5.3-.5.2-.9-.2-1.4-.2-.2-.4-.1-.3 0z"/><path class="st1" d="M31.8 15.1c.2.1.1.5.1.7-.1.3-.2.4-.5.5-.1 0-.1.2 0 .1.3-.1.5-.4.6-.7 0-.2.1-.7-.2-.8-.1 0-.1.2 0 .2zm.2 1c.3.2.1.9-.2 1-.1 0 0 .2.1.1.4-.2.6-1 .2-1.3-.1 0-.2.1-.1.2z"/><path class="st1" d="M32.9 14.6c.1.2.1.5 0 .8-.1.2-.5.7-.8.4-.1-.1-.2 0-.1.1.2.2.6.1.8-.1.3-.3.4-.9.2-1.2 0-.1-.2-.1-.1 0z"/><path class="st1" d="M33.6 12.8c.2.1.2.5.3.7.1.6-.3.9-.8 1-.1 0-.1.2 0 .1.4 0 .9-.1 1-.6.1-.3 0-.8-.1-1-.1-.2-.1-.2-.3-.3-.2-.1-.2 0-.1.1zm.7-2.3c.3.2.3.8.2 1.1-.1.5-.4.8-.9.8-.1 0-.1.2 0 .1.6 0 .9-.3 1-.8.1-.4.1-1.1-.3-1.4 0 0-.1.2 0 .2z"/><path class="st1" d="M35.7 10.4c0 .2 0 .4-.1.6-.2.2-.4.3-.6.5h-.3c-.1 0-.1.1 0 .2.8.1 1.1-.4 1.1-1.2 0-.2-.1-.2-.1-.1z"/><path class="st1" d="M34.6 11.6c0 .3.2.4.3.7.1.7-.1 1.2-.9 1.3-.1 0-.1.2 0 .1.4 0 .8-.1 1-.6.1-.2.1-.4.1-.7 0-.1 0-.3-.1-.4-.1-.1-.2-.3-.2-.4 0-.1-.2-.1-.2 0zm-.6 2.3c.3.3.3 1 .1 1.3-.1.2-.3.3-.5.4-.1 0-.5.1-.5.1-.1-.1-.2 0-.1.1.2.3 1-.1 1.2-.2.4-.4.5-1.2.1-1.6-.3-.3-.4-.2-.3-.1z"/><path class="st1" d="M32.9 15.7c.3.4.1 1-.2 1.3-.2.2-.5.3-.8.2-.1 0-.1.1 0 .1.9.1 1.9-1 1.1-1.8 0 0-.1.1-.1.2z"/><path class="st1" d="M33 17c.5.5 0 1.4-.6 1.6-.1 0-.1.2 0 .1.7-.2 1.2-1.2.6-1.8 0-.1-.1 0 0 .1zm2-3.9c.3.2.3 1 .2 1.3-.2.3-.6.6-1 .6-.1 0-.1.2 0 .2.5 0 .9-.4 1.1-.9.1-.4.1-1.1-.2-1.3-.1-.1-.2 0-.1.1zm.8-2.1c1 .3.1 1.9-.7 1.8-.1 0-.1.1 0 .1 1 .1 2.1-1.6.8-2.1-.2 0-.2.1-.1.2z"/><path class="st1" d="M35.8 10.9c.4.1 1.1-.1 1.1-.6 0-.1-.2-.1-.1 0 .1.4-.7.4-.9.4-.2.1-.2.2-.1.2zm1.8-.4c.3.9-.5 1.9-1.4 1.5-.1 0-.2.1-.1.1 1.1.5 2-.7 1.6-1.7 0-.1-.1 0-.1.1z"/><path class="st1" d="M36.2 12.2c.3.1.3.9.2 1.1 0 .1 0 .2-.1.3-.2.5-.6.5-1 .4-.1 0-.1.1 0 .1.6.1 1.1 0 1.2-.7.1-.4.2-1.3-.3-1.5-.1.2-.1.3 0 .3zm-2 3c.7.5-.2 2.2-1 1.6-.1 0-.2.1-.1.1 1 .6 2-1.3 1.2-1.9-.1.1-.2.2-.1.2z"/><path class="st1" d="M35.3 14.4c.4.1.4 1.2.2 1.4-.2.4-.6.6-1 .6-.1 0-.1.1 0 .1.5 0 1.1-.4 1.2-.9.1-.4.1-1.3-.4-1.4-.1 0-.1.1 0 .2zm-.9 2.2c.3.3.1 1.1-.1 1.3-.2.2-.9.5-1.1.2 0-.1-.2 0-.1.1.2.5 1 .1 1.3-.1.3-.2.3-.4.3-.7 0-.3.1-.6-.2-.8-.1-.2-.2-.1-.1 0z"/><path class="st1" d="M33 18.3c.8.1.4 1.1-.1 1.4-.1 0 0 .2.1.1.6-.3.9-1.5 0-1.7 0 .1-.1.2 0 .2z"/><path class="st1" d="M33.4 19.5c.7.5.5 1.1 0 1.6-.1.1 0 .2.1.1.3-.3.6-.7.5-1.1 0-.4-.2-.6-.5-.8-.1 0-.1.2-.1.2z"/><path class="st1" d="M34.2 18.1c.1.6 0 1.3-.8 1.3-.1 0-.1.1 0 .1.3 0 .6 0 .8-.3.2-.4.2-.8.1-1.2.1-.1-.1 0-.1.1z"/><path class="st1" d="M35.5 16.1c.4.7.2 2.4-1 1.9-.1 0-.2.1-.1.1 1.3.6 1.8-1.2 1.2-2.1 0-.1-.2 0-.1.1zm1-2.5c.2 0 .4.5.4.7 0 .3 0 .5-.2.7-.2.4-.7.7-1.1.7-.1 0-.1.1 0 .1.6.1 1.3-.4 1.5-1 .2-.4.1-1.3-.5-1.4-.2.1-.2.2-.1.2z"/><path class="st1" d="M37.5 11.8c.4.3 0 1.1-.3 1.4-.3.2-.6.2-1 .3-.1 0-.1.2 0 .1.6-.1 1.1-.1 1.3-.8.1-.3.2-.9-.1-1.2.1 0 0 .1.1.2z"/><path class="st1" d="M38.7 10.3c0 .3.1.8-.1 1-.1.2-.5.3-.7.3h-.5c-.1 0-.1.2 0 .2.4 0 .9.1 1.2-.3.3-.3.2-.8.2-1.2.1-.1-.1-.1-.1 0z"/><path class="st1" d="M38.9 11c.1.2.2.4.3.5 0 .2 0 .3-.1.4-.1.2-.2.3-.3.5-.3.3-.8.3-1.1.2-.1 0-.1.1 0 .1.6.2 1.2-.1 1.6-.6.2-.4.3-1.2-.3-1.3-.1 0-.2.2-.1.2z"/><path class="st1" d="M37.7 12.8c.4.2.4.9.4 1.3s-.1.7-.5.9c-.2.1-.5.1-.7.1-.1 0-.1.1 0 .1.5.2 1.2-.1 1.4-.6.2-.5.1-1.6-.4-1.9-.2-.1-.3.1-.2.1z"/><path class="st1" d="M36.8 15.3c.4.3.5.9.2 1.3s-.6.9-1.2.8c-.1 0-.1.1 0 .1.6.2 1.1-.3 1.4-.8.3-.5.2-1.1-.3-1.5-.1-.1-.2 0-.1.1zm-1.1 2.4c.6.3.1 1.2-.3 1.4-.5.3-.8 0-1.2 0-.1 0-.1.2 0 .1.4 0 .6.3 1 .2.3-.1.5-.4.7-.6.3-.4.4-1-.1-1.2-.1-.1-.2.1-.1.1z"/><path class="st1" d="M34.3 19.3c.5.1.4.8.2 1.1-.1.2-.4.3-.6.4-.1 0 0 .2.1.1.4-.2.8-.4.8-.9 0-.3-.1-.7-.5-.8-.1 0-.1.1 0 .1zm4.6-8.4c.5-.1 1.2-.1 1.2-.8 0-.1-.2-.1-.2 0 0 .2-.5.5-.7.5-.1 0-.3.1-.4.1 0 .1 0 .2.1.2z"/><path class="st1" d="M40.2 10.2c.7.1.4 1.2.1 1.5-.3.4-.7.4-1.2.4-.1 0-.1.2 0 .1.7 0 1.2-.2 1.6-.8.2-.4.1-1.3-.5-1.4-.1 0-.1.2 0 .2z"/><path class="st1" d="M39.1 12.3c.5.2.4 1 .3 1.4-.2.6-.7.9-1.3.8-.1 0-.1.1 0 .1.7.1 1.2-.3 1.4-1 .1-.5.2-1.3-.4-1.5v.2z"/><path class="st1" d="M38.2 14.7c.5.2.4.9.2 1.3-.2.5-.7.7-1.2.6-.1 0-.1.1 0 .1.6.1 1.2-.2 1.4-.7.2-.4.2-1.3-.3-1.5-.2 0-.2.1-.1.2zm3.4-4.9c.3.7-.2 1.4-1 1.4-.1 0-.1.2 0 .2.9 0 1.4-.8 1.1-1.6.1-.2-.1-.1-.1 0z"/><path class="st1" d="M40.7 11.5c.4.1.2 1.1.1 1.3-.2.4-.7 1-1.2.7-.1-.1-.2.1-.1.1.6.3 1.2-.2 1.5-.7.2-.3.3-1.4-.2-1.5-.1-.1-.2.1-.1.1z"/><path class="st1" d="M39.6 13.8c.9.7 0 2.4-1 2.1-.1 0-.1.1 0 .1 1.2.3 2.2-1.6 1.1-2.4-.1 0-.2.1-.1.2zm-2.5 3c.4.4.3.9.1 1.3-.2.5-.7 1-1.3.6-.1-.1-.2.1-.1.1.6.4 1.1 0 1.4-.5.3-.6.5-1.2 0-1.6-.1-.1-.2 0-.1.1z"/><path class="st1" d="M35.8 19c.9.9-.3 2.2-1.3 1.5-.1-.1-.2.1-.1.1 1.2.8 2.5-.7 1.5-1.7 0-.1-.1.1-.1.1z"/><path class="st1" d="M34.4 20.7c.6.4.1 1.5-.5 1.6-.1 0-.1.2 0 .1.8-.1 1.2-1.4.5-1.9 0 0-.1.2 0 .2z"/><path class="st1" d="M34.5 22.2c.3.2.4 1.1-.2 1.1-.1 0-.1.1 0 .1.7 0 .7-1 .3-1.4-.1.1-.2.2-.1.2z"/><path class="st1" d="M35.9 20.5c.2.4.2.8 0 1.2-.2.4-.8.7-1.2.4-.1-.1-.2 0-.1.1.3.3.9.3 1.2-.1.4-.5.5-1.1.3-1.7-.1 0-.2.1-.2.1zm2.5-4.4c.3.4.3.9.1 1.3-.2.5-.7.8-1.3.6-.1 0-.1.1 0 .1.5.2 1.1 0 1.4-.5.4-.5.3-1.2 0-1.7-.1 0-.2.1-.2.2z"/><path class="st1" d="M37.4 18.3c.1 0 .1-.2 0-.2s-.1.2 0 .2z"/><path class="st1" d="M37.4 18.3c.1 0 .1-.2 0-.2s-.1.2 0 .2z"/><path class="st1" d="M37.4 18.2c.7.9-.1 2.2-1.2 2-.1 0-.1.1 0 .1 1.3.3 2.2-1.2 1.4-2.2-.2 0-.3.1-.2.1zm5.3-8.7c.2.6-.2 1.1-.9 1-.1 0-.1.1 0 .1.7.1 1.2-.5 1-1.2 0 0-.1 0-.1.1z"/><path class="st1" d="M41.8 10.7c.3.3.5.8.3 1.2-.1.4-.6.9-1.1.7-.1 0-.1.1 0 .1.5.2 1-.2 1.2-.7.2-.5.1-1.1-.3-1.5 0 0-.1.1-.1.2z"/><path class="st1" d="M41 12.7c.3.4.4.9.3 1.4-.2.6-.6.9-1.3.9-.1 0-.1.2 0 .2.6 0 1.1-.2 1.4-.8.2-.6.1-1.2-.2-1.7-.1-.2-.2-.1-.2 0z"/><path class="st1" d="M40 15.2c.3.5.4 1 .2 1.5-.3.6-.9.7-1.4.7-.1 0-.1.2 0 .1.6 0 1.2-.1 1.6-.7.3-.6.2-1.2-.2-1.7-.2-.1-.3 0-.2.1z"/><path class="st1" d="M38.6 17.5c.8 1 .1 2.3-1.1 2.4-.1 0-.1.2 0 .1 1.4-.1 2-1.6 1.2-2.6 0-.1-.2 0-.1.1z"/><path class="st1" d="M37.4 20c.4.5.3 1.2 0 1.7-.2.3-.5.4-.8.4-.2 0-.5 0-.7-.1-.1-.1-.2.1-.1.1.3.2.6.1.9.1.3 0 .6-.1.7-.3.4-.6.5-1.4 0-2 0 0-.1.1 0 .1z"/><path class="st1" d="M35.7 22.1c.6.9.1 2.4-1.2 2.2-.1 0-.1.1 0 .1 1.3.2 2-1.4 1.3-2.4 0-.1-.1 0-.1.1z"/><path class="st1" d="M43.4 9.2c-.2 3.3-1.8 6.2-3.2 9.1-1 2.2-2.9 6.4-5.3 7.2-.1 0-.1.2 0 .1 2.4-.8 4.2-4.8 5.2-6.9 1.5-3.1 3.2-6.1 3.4-9.7.1.1-.1.1-.1.2zm-8.5 16.7c1.6 0 2.8.8 3.6 2.2.7 1.1.9 2.8 0 3.9-.1.1 0 .2.1.1.8-1 .8-2.6.3-3.7-.8-1.6-2.1-2.6-3.9-2.6-.2 0-.2.1-.1.1z"/><path class="st1" d="M36 25.2c3.4-.7 4.5 4.8 3.5 7 0 .1.1.2.1.1 1-2.4-.1-8-3.7-7.3-.1.1 0 .2.1.2z"/><path class="st1" d="M39.3 20.6c1.4 1.8 1.2 4.2-.4 5.8-.1.1 0 .2.1.1 1.7-1.7 1.9-4.1.4-6 0 0-.1 0-.1.1z"/><path class="st1" d="M39.7 19.7c1.6.4 1.9 3.4 1.6 4.7-.3 1.2-1.2 2-2.1 2.8-.1.1 0 .2.1.1 1.3-1.2 2.3-2.3 2.2-4.2-.1-1.2-.4-3.1-1.8-3.5-.1-.1-.1 0 0 .1z"/><path class="st1" d="M39.5 27.2c1.5-.5 2.9.2 4.1 1.1.6.4 1.2.9 1.6 1.6.1.2 1.2 2.2.7 2.4-.1 0 0 .2.1.1.9-.4-.9-3.1-1.3-3.5-1.3-1.3-3.4-2.5-5.3-1.9 0 .1 0 .2.1.2z"/><path class="st1" d="M39.7 28.1c1.4-.3 2.8.2 3.8 1.1.9.8 1.2 2 1.6 3 0 .1.2.1.1 0-.4-1.2-.8-2.5-1.9-3.3-1-.9-2.3-1.3-3.6-.9-.1 0-.1.1 0 .1zm1.8-5c1.7 0 3.6 3.8 2.3 5.1-.1.1 0 .2.1.1.8-.8.5-2 .1-2.9-.5-1-1.2-2.5-2.5-2.5-.1.1-.1.2 0 .2z"/><path class="st1" d="M41.3 21.9c1.7-.5 3.1 1.9 3.5 3.1.4 1.3.7 2.6 0 3.9 0 .1.1.2.1.1.8-1.5.4-3.3-.3-4.9-.6-1.2-1.9-2.7-3.3-2.3-.1-.1-.1.1 0 .1z"/><path class="st1" d="M41.3 16.5c2.8-.2 3.9 4.5 2.7 6.5-.1.1.1.2.1.1.8-1.3.5-3.3 0-4.6-.4-1.3-1.4-2.3-2.8-2.1-.1 0-.1.1 0 .1z"/><path class="st1" d="M41.8 15.3c2.2-.1 3.1 2 3.4 3.8.3 1.8.3 3.2-.8 4.7-.1.1.1.2.1.1 1.3-1.8 1.2-3.9.6-6-.4-1.5-1.7-2.8-3.3-2.8-.1.1-.1.2 0 .2z"/><path class="st1" d="M44.5 23.9c1.8-.2 3.1 2.1 3.5 3.6.5 1.6-.3 3.7-1.6 4.7-.1.1 0 .2.1.1 1.4-1 2.2-3.2 1.7-4.9-.5-1.6-1.7-3.9-3.7-3.7-.1.1-.1.3 0 .2z"/><path class="st1" d="M45.2 25.8c.4.3.8.5 1.2.8.1.3.2.5.3.8.1.4.2 1 .2 1.4 0 .9-.5 1.8-1.1 2.5-.1.1 0 .2.1.1.9-1 1.3-2.1 1-3.4-.2-1.1-.5-2.2-1.8-2.3 0-.1 0 .1.1.1zm3.1 2c2.2.6 3.6 2.3 3.9 4.5 0 .1.2.1.1 0-.3-2.3-1.8-4.1-4-4.7-.1.1-.1.2 0 .2z"/><path class="st1" d="M47.9 26.8c1.4-1 3.3.6 4.2 1.6 1 1.1 1.6 2.5 1.8 4.1 0 .1.2.1.1 0-.2-1.8-1-3.5-2.4-4.7-1-.9-2.5-2.1-3.8-1.1-.1 0 0 .2.1.1z"/><path class="st1" d="M45.4 20.6c1.2.2 2.4.8 3.3 1.7 1 1.1 1.1 2.7 1.1 4.1 0 .1.2.1.1 0-.1-1.3-.1-2.9-.9-4-.9-1.1-2.2-1.7-3.6-2 0 .1-.1.2 0 .2z"/><path class="st1" d="M45.5 19.7c2-.3 3.4.7 4.4 2.3 1.2 1.7 1.3 3.5 1.3 5.6 0 .1.1.1.1 0 0-2.5-.2-4.5-1.8-6.4-1-1.2-2.5-1.8-4.1-1.6 0-.1 0 .1.1.1zm5.9 8.1c1.1-.5 3.2-.4 3.9.7 0 .1.2 0 .1-.1-.7-1.2-2.9-1.4-4.1-.8 0 .1.1.2.1.2zm1.2 1.2c1-.2 2 0 2.7.7.1.1.2 0 .1-.1-.8-.7-1.8-.9-2.9-.7 0 0 0 .1.1.1z"/><path class="st1" d="M43.2 15.6c3.1-2.2 7 1.1 5.2 4.5 0 .1.1.2.1.1 1.8-3.5-2.2-7-5.4-4.7-.1.1 0 .2.1.1z"/><path class="st1" d="M44.3 16.4c.9-.2 1.8.2 2.5.7.9.7 1 1.6.9 2.6 0 .1.1.1.2 0 0-.9 0-2-.8-2.6-.8-.6-1.8-1.1-2.8-.9-.1.1 0 .2 0 .2zm4.3 3.9c1.7-.5 4.5-.7 5.6 1 .1.1.2 0 .1-.1-1.2-1.7-4-1.6-5.8-1.1 0 .1 0 .2.1.2zm1.4 1.3c1.5-.3 4.1.5 4.6 2.1 0 .1.2.1.1 0-.6-1.7-3.2-2.5-4.8-2.2-.1 0 0 .2.1.1zM43.3 11c1.2-.4 2.5-.1 3.3.8.9 1 1.1 2.4.9 3.7 0 .1.1.1.1 0 .2-1.3 0-2.8-.9-3.8s-2.2-1.3-3.5-.8c-.1 0 0 .1.1.1zm-.7 2.3c.4.2.5.6.6.9.1.3.2.8 0 1 0 .1.1.2.1.1.2-.3.1-.9 0-1.2-.1-.4-.3-.7-.7-1 0 0-.1.2 0 .2z"/><path class="st1" d="M43.2 12c.9-.4 1.8.2 2.4.8.6.6 1 1.3.8 2.2 0 .1.1.1.1 0 .2-1-.3-1.8-1-2.5-.7-.6-1.6-1-2.4-.6-.1 0 0 .1.1.1zm4.5 3.6c.2-.1.3-.3.5-.4.9-.7 1.3-.7 2.1-.3.5.2 1 .5 1.4.8.6.4 1.1 1 1.4 1.7.1.4.2 2.7-.6 2.7-.1 0-.1.1 0 .1.5 0 .7-1.1.8-1.5.2-.9-.1-1.8-.7-2.5s-1.6-1.3-2.5-1.6c-1.1-.3-1.7.3-2.5.9-.1 0 0 .1.1.1z"/><path class="st1" d="M48.2 16.4c1-.4 2.5-.5 3.2.4.7.8.8 2.1.3 3-.1.1.1.2.1.1.6-1 .4-2.4-.4-3.2-.8-.9-2.4-.8-3.4-.3.1-.1.1.1.2 0zm4.7 3.6c.3-.2.6-.3 1-.4.1 0 .1-.2 0-.2-.4 0-.7.1-1.1.4 0 .2.1.3.1.2zm-1.7-5.1c.3-.4.7-.7 1.2-.6.1 0 .1-.1 0-.1-.6-.1-1 .2-1.4.6 0 0 .1.1.2.1zm.7.4c.2-.3.4-.4.7-.3.1 0 .1-.1 0-.1-.4-.1-.7.1-.9.4 0 0 .1.1.2 0z"/><path class="st1" d="M46.5 11.4c.7-.6 2.3-.7 3 0 .4.4.8.9 1.1 1.3.4.6.4 1.3.4 2 0 .1.1.1.2 0 .1-.7.1-1.4-.3-2-.4-.6-.9-1.4-1.5-1.7-.8-.5-2.2-.3-2.9.2-.2.1-.1.2 0 .2z"/><path class="st1" d="M47 12.1c1.6-.5 3.2.5 3.1 2.2 0 .1.1.1.2 0 .1-1.8-1.6-3-3.3-2.4-.1.1-.1.3 0 .2zm2.3-1.1c.6-.2 1.1-.2 1.7.1.1 0 .2-.1.1-.1-.6-.3-1.2-.3-1.8-.1-.2 0-.1.1 0 .1zm.5.5c.4 0 1-.2 1.3.2 0 .1.2 0 .1-.1-.3-.5-.9-.3-1.4-.3-.1.1-.1.2 0 .2zm-4.4-3.3c.8.5 1 2 .7 2.8 0 .1.1.1.1 0 .3-.9.1-2.5-.8-3 0 0-.1.1 0 .2zm-.7.4c.2.4.6.8.6 1.2 0 .4 0 .8-.1 1.2 0 .1.1.1.2 0 0-.4.1-.9 0-1.4-.1-.4-.4-.8-.6-1.1 0-.1-.1 0-.1.1z"/><path class="st1" d="M49.2 10.9c.3-.9.2-2.5-.7-3.1-.8-.6-2.3-.2-3 .3-.1.1 0 .2.1.1.7-.5 2.2-.9 3-.2.7.6.7 2 .5 2.9 0 .1.1.1.1 0z"/><path class="st1" d="M46 8.6c.3-.1.6-.1.9-.1.5 0 .6.3.9.6.2.3.4.5.4.9v.9c0 .1.1.1.1 0 0-.4.1-.8 0-1.2-.1-.3-.3-.6-.5-.8-.5-.6-1.1-.6-1.8-.4-.1 0-.1.2 0 .1zm3.1-.2c.2-.1.3-.1.5-.1.1 0 .1-.1 0-.1-.2 0-.4 0-.6.1 0 0 0 .1.1.1zm-.1-1c0 .3-.1.5-.2.7 0 .1.1.1.1 0 .1-.3.2-.5.2-.8 0 .1-.1 0-.1.1zm.4 1.8c.2-.1.4 0 .6.1.1 0 .1-.1 0-.1-.2-.1-.4-.1-.6-.1-.1 0-.1.2 0 .1zM48 6.1c0 .3.2 1.1-.1 1.3-.1 0 0 .2.1.1.5-.2.3-1 .2-1.4 0-.1-.2-.1-.2 0zm-23.4 5.6v.1c0 .1.1.1.1 0v-.1c0-.1-.1-.1-.1 0zm-.2 1.6c-.1.1 0 .2 0 .2l.1-.1c.1-.1 0-.2-.1-.1zm-.5 1.9c.1 0 .1-.1 0-.1-.1-.1-.1.1 0 .1zm-.6 1.7c.1 0 .1-.1 0-.1-.1-.1-.1.1 0 .1zm-.7 1.4c.2 0 .2-.2.1-.2h-.1c-.1 0-.1.2 0 .2zm-.6 1.3c.1 0 .1-.1 0-.1s-.1.1 0 .1zm-.8 1.5c.1 0 .1-.1 0-.1s-.1.1 0 .1zm-.9 1.4c.1 0 .1-.2 0-.2v.2zm-1 1.3c0 .2.2.2.2.1v-.1c0-.1-.2-.1-.2 0zm-1 1.6c.1 0 .1-.1 0-.1-.1-.1-.1.1 0 .1zM17.2 27c.1 0 .1-.1 0-.1v.1zm-.8 1.1c-.1 0-.1 0 0 0-.2 0-.2.1-.1.1h.1v-.1zm-1 1.3c.1 0 .1-.2 0-.2-.1.1-.1.2 0 .2zm-1.1 1c.1 0 .1-.1 0-.1-.1-.1-.1.1 0 .1zm-1.4.8c0 .2.2.2.2.1v-.1c0-.1-.2-.1-.2 0zm184.2 26.2c1-7.4 4.4-14.1 10-19 2.4-2.1 5.6-4.5 8.8-5.3.1 0 .1-.2 0-.1-3.2.8-6.4 3.2-8.8 5.3-5.7 4.9-9.1 11.7-10.1 19.1-.1 0 .1.1.1 0zm-2.9-2.6c.4-4.4 2.2-8.5 4.5-12.3 2.3-3.7 5.2-7.6 9.2-9.5.1 0 0-.2-.1-.1-4 1.9-7 5.8-9.3 9.5-2.3 3.8-4.2 7.9-4.6 12.4.2.1.3.1.3 0z"/><path class="st1" d="M196.2 47.2c3.5 2.4 2.1 7.2-2 7.6-.1 0-.1.2 0 .1 4.3-.4 5.8-5.4 2.1-7.9-.1 0-.2.1-.1.2z"/><path class="st1" d="M199.8 41c1.5.8 1.7 2.8 1.2 4.2-.7 2.1-2.8 2.6-4.7 1.9-.1 0-.1.1 0 .1 2 .7 4 .3 4.8-1.8.6-1.5.4-3.7-1.2-4.5-.1-.1-.2 0-.1.1z"/><path class="st1" d="M199.8 41c1.5.3 4 .6 5.1-.7 1.2-1.4 1.1-4 .1-5.4-.1-.1-.2 0-.1.1 1 1.4 1.1 4.1-.3 5.3-1.1 1.1-3.4.9-4.8.6 0-.1-.1.1 0 .1z"/><path class="st1" d="M204.9 35c3 2.5 5.9.1 8.4-1.9.1-.1 0-.2-.1-.1-2.4 1.9-5.3 4.3-8.2 1.9-.1-.1-.2 0-.1.1zm-1 3.3c.1.2-.3.6-.5.6-.4 0-.4-.7-.1-.8.2-.1.6-.1.6.2 0 .1.1.1.1 0 0-.7-1.2-.4-1.1.3.1.8 1.5.6 1.1-.3 0-.2-.1-.1-.1 0zm-4.3 6.1c.1.2-.3.6-.5.6-.4 0-.4-.7-.1-.8.1 0 .6 0 .6.2 0 .1.1.1.1 0 0-.7-1.2-.4-1.1.3.1.8 1.5.6 1.1-.3 0-.1-.1 0-.1 0zm-2.8 6.7c-.3.9-.6.9-.8 0 .3-.2.5-.2.8 0 0 .2.1.2.2.1.1-.7-1.3-.6-1.2.2.1.8 1.3.5 1.2-.3-.1-.1-.3 0-.2 0zm-2.3.4l-.9-.3c-.1 0-.1.1 0 .1l.9.3c.1.1.1-.1 0-.1zm-.2 1.4c-.4-.1-.7-.3-1.1-.4-.1 0-.2.1-.1.1.3.2.7.4 1.1.5.2 0 .2-.1.1-.2zm.8-3.3l-.9-.3c-.1 0-.1.1 0 .1l.9.3v-.1zm.6-1.6c-.3-.1-.6-.3-.8-.4-.1 0-.2.1-.1.1.3.1.6.3.9.4 0 .1.1 0 0-.1zm.6-1.4c-.3 0-.6-.1-.9-.3-.1 0-.2.1-.1.1.3.2.6.2.9.3.2 0 .2-.1.1-.1zm.7-1.5c-.3 0-.5-.1-.8-.3-.1 0-.2.1-.1.1.3.2.5.3.9.3.1.1.1-.1 0-.1zm.8-1.3c-.3 0-.6-.1-.8-.3-.1-.1-.2.1-.1.1.3.2.5.3.9.3.1 0 .1-.1 0-.1zm1-1.5c-.3-.1-.6-.1-.9-.3-.1 0-.2.1-.1.1.3.2.6.2.9.3.1.1.1 0 .1-.1zm1-1.5c-.3-.1-.6-.2-.8-.4-.1 0-.2.1-.1.1.3.1.6.3.9.4v-.1zm1-1.5c-.3 0-.6-.1-.9-.3-.1 0-.2.1-.1.1l.9.3c.1.1.1-.1.1-.1zm1-1.3c-.3-.1-.6-.1-.8-.3-.1-.1-.2.1-.1.1.3.2.6.2.9.3 0 .1.1-.1 0-.1zm1-1.2c-.3-.1-.5-.2-.8-.3-.1-.1-.2.1-.1.1.3.2.5.3.8.3.1.1.2-.1.1-.1zm1-1c-.3-.1-.6-.3-.8-.4-.1 0-.1.1 0 .1.3.1.6.3.8.4.1 0 .1-.1 0-.1z"/><path class="st1" d="M204.9 34.8c-.3 0-.5-.2-.7-.5-.1-.1-.2 0-.1.1.2.2.5.5.8.5.1.1.1 0 0-.1zm1.5-1.1c-.3 0-.6-.1-.9-.3-.1-.1-.2.1-.1.1.3.2.6.4.9.3.2.1.2-.1.1-.1zm11.7-.8c-.9 1-2.3 1.3-3.5 1.9-1.1.6-2.2 1.3-3.3 2-1.9 1.4-3.7 2.9-5.3 4.6-4.3 4.6-7 10.3-8.2 16.4 0 .1.1.1.1 0 1.3-6.5 4.3-12.4 9-17.1 1.6-1.6 3.5-3.1 5.4-4.4 1.8-1.2 4.4-1.8 5.9-3.4 0 .1-.1 0-.1 0z"/><path class="st1" d="M198.1 56.5c-.3.3-.7.6-1.1.8-.1.1 0 .2.1.1.4-.3.8-.5 1.1-.8 0-.1-.1-.2-.1-.1z"/><path class="st1" d="M198.2 56.5c-.4-.3-.6-.6-.8-1 0-.1-.2 0-.1.1.2.4.4.8.8 1.1.1 0 .1-.2.1-.2z"/><path class="st1" d="M197.3 55.6c.5-.2.9-.6 1.3-1 .1-.1 0-.2-.1-.1-.4.3-.8.8-1.3.9l.1.2z"/><path class="st1" d="M198.7 54.5c-.2-.5-.5-1-.7-1.5 0-.1-.2 0-.1.1.2.5.5 1 .7 1.5 0 .1.2 0 .1-.1z"/><path class="st1" d="M198 53.1c.5-.2.9-.5 1.4-.6.1 0 .1-.2 0-.1-.5.1-.9.4-1.4.6-.2 0-.1.2 0 .1z"/><path class="st1" d="M199.4 52.4c-.2-.5-.5-.9-.8-1.3-.1-.1-.2 0-.1.1.3.4.6.9.8 1.3 0 .1.1 0 .1-.1z"/><path class="st1" d="M198.5 51.2c.5-.1 1-.3 1.5-.5.1 0 0-.2-.1-.1-.5.2-1 .4-1.5.5l.1.1z"/><path class="st1" d="M200.1 50.6c-.3-.4-.5-.9-.8-1.3-.1-.1-.2 0-.1.1.3.4.5.9.8 1.3 0 0 .2 0 .1-.1z"/><path class="st1" d="M199.2 49.4c.6-.3 1.1-.5 1.8-.6.1 0 .1-.2 0-.1-.6.1-1.2.4-1.8.7-.1-.1 0 0 0 0z"/><path class="st1" d="M201.1 48.6c-.2-.5-.5-1-.8-1.5-.1-.1-.2 0-.1.1.3.5.6.9.8 1.4-.1.2.1.1.1 0z"/><path class="st1" d="M200.2 47.3c.6-.1 1.2-.4 1.8-.6.1 0 .1-.2 0-.1-.6.2-1.2.5-1.8.6-.1 0-.1.1 0 .1z"/><path class="st1" d="M202.1 46.6c-.2-.5-.5-1-.7-1.5 0-.1-.2 0-.1 0 .2.5.5 1 .7 1.5 0 .2.1.1.1 0z"/><path class="st1" d="M201.3 45.2c.6.1 1.3 0 1.9-.2.1 0 .1-.2 0-.1-.6.2-1.2.3-1.8.2-.1-.1-.1.1-.1.1z"/><path class="st1" d="M203.3 44.9c-.2-.5-.5-1-.6-1.6 0-.1-.2-.1-.1 0 .1.6.4 1.1.6 1.6-.1.1.1.1.1 0z"/><path class="st1" d="M202.6 43.3c.6.1 1.2 0 1.9-.1.1 0 .1-.2 0-.2-.6.1-1.2.2-1.9.1-.1.1-.1.2 0 .2z"/><path class="st1" d="M204.5 43.1c-.3-.6-.1-1.2-.3-1.8 0-.1-.2-.1-.1 0 .2.6 0 1.3.3 1.9.1.1.2 0 .1-.1z"/><path class="st1" d="M204.2 41.4c.6 0 1.3-.1 1.9 0 .1 0 .1-.1 0-.1-.6-.1-1.3 0-1.9 0-.1-.1-.1.1 0 .1z"/><path class="st1" d="M206.2 41.3c-.2-.6-.2-1.1-.4-1.7 0-.1-.2-.1-.1 0 .2.6.2 1.1.4 1.7-.1.1.1.1.1 0z"/><path class="st1" d="M207.6 39.8c-.6-.1-1.3-.2-1.9-.2-.1 0-.1.1 0 .1.6 0 1.2.1 1.9.2.1 0 .1-.1 0-.1z"/><path class="st1" d="M207.7 39.8c-.2-.6 0-1.2-.2-1.8 0-.1-.2-.1-.1 0 .1.6 0 1.2.2 1.8-.1.1.1.1.1 0z"/><path class="st1" d="M207.4 38.1c.6 0 1.3.1 1.9.2.1 0 .1-.1 0-.1-.6-.2-1.3-.2-2-.2 0 0 0 .1.1.1z"/><path class="st1" d="M209.5 38.3c-.1-.6 0-1.1 0-1.7 0-.1-.2-.1-.1 0 0 .6-.1 1.2 0 1.7-.1.1.1.1.1 0z"/><path class="st1" d="M209.4 36.6c.6.1 1.2.2 1.8.5.1 0 .2-.1.1-.1-.6-.3-1.2-.4-1.8-.5-.2-.1-.2 0-.1.1z"/><path class="st1" d="M211.3 37c0-.7.3-1.3.3-2 0-.1-.2-.1-.1 0 .1.7-.2 1.3-.3 2-.1.1 0 .1.1 0z"/><path class="st1" d="M213.4 35.5c-.5-.3-1.3-.5-1.9-.6-.1 0-.1.1 0 .1.6.1 1.3.3 1.9.6 0 .1.1 0 0-.1z"/><path class="st2" d="M190.8 50.8l3.5-2.3-6.1-2 10.1-5.1-12.7-2.9 20.5-5.5m-7.6 7.9l-11.8-2.7m17.8-4.1l-15.4 4m9.9 2.2l-11.1-2.5m15.4-2.7l-12.6 3.4m8.6 1.3l-7.3-1.6m10.4-2.1l-7.8 2.1m5 1.1l-6.3-1.5m-5.1 8.7l-2.6-8m3 7.8l-2.3-7.7m2.8 7.4l-2.2-7.2m2.7 7l-2-6.9m2.7 6.6l-1.9-6.4m2.4 6.1l-1.7-5.9m2.4 5.6l-1.6-5.4m2.2 5l-1.3-4.8m2 4.5l-1.1-4.3m1.8 3.9l-.9-3.7m1.6 3.4l-.9-3.2m1.5 2.9l-.7-2.7m1.2 2.4l-.6-2.3m1.1 2.1l-.4-1.9m.8 1.7l-.2-1.6m.8 1.3l-.1-1.1m.6.8l-.1-.7m.5 1.2l-8.8 4.4m.8.2l7.5-3.8m-2.7 4.9l-4.2-1.4m4.4 1l-3.9-1.3m6-2.5l-5.3 2.7m4.9-2.1l-4.5 2.3m3 .6l-2.5-.8m-3 .3l1.1 3.5m-.5-3.3l1.1 3.5m-.3-3.2l.9 2.9m-.1-2.7l.6 2.3m.1-2l.5 1.6m.3-1.4l.2 1.1m.8 0l-3 2.1m2.7-1.4l-2.4 1.8m2.2-1l-1.9 1.4m-5-13.9l-1.6-5.2m2.2 5l-1.4-5m2.1 4.8l-1.4-4.8m2.1 4.6l-1.3-4.6m1.9 4.5L188 33m2.1 4.3l-1.3-4.3m2.1 4l-1.2-4m1.9 3.8l-1.1-3.8m1.8 3.7l-1.1-3.7m1.8 3.5l-1-3.5m1.7 3.3l-1-3.3m1.7 3.1l-1-3.1m1.7 2.9l-.8-2.9"/><path class="st2" d="M200 33s.2 1-1.1 1.1c-1.3.1-1.7-1.1-1.7-1.1l-1.5 2.8-.7-2.8m4.1 0c-.7.5-.8 0-.8 0"/><path class="st1" d="M193.1 53.7c.2-4 2.6-8 4.7-11.4 2.1-3.4 4.8-7.3 8.4-9.3.1 0 0-.2-.1-.1-3.6 2-6.3 5.9-8.4 9.3-2.1 3.3-4.5 7.4-4.7 11.4 0 .2.1.2.1.1z"/><path class="st2" d="M185.1 33c.1 6.9 1.7 14.3 9.1 21.8m-.8 2.6c-5.5-4.7-10.7-14-10.7-24.4"/><path class="st1" d="M193.5 57.3c-7.4-2.9-17.9-4.1-23.9 2.4-.1.1 0 .2.1.1 5.9-6.4 16.4-5.2 23.7-2.3.1 0 .2-.2.1-.2z"/><path class="st1" d="M190.4 56.2c-.1-.6 0-1.1.4-1.6.1-.1 0-.2-.1-.1-.4.5-.6 1.1-.4 1.7 0 .2.1.1.1 0z"/><path class="st1" d="M190.3 55c-.3-.1-.8 0-1 .3-.1.2-.3.6 0 .7.1 0 .1-.1 0-.1-.2-.1.3-.6.4-.6.2-.1.4-.1.6 0 .1-.2.1-.3 0-.3z"/><path class="st1" d="M189.5 55.1c-.1-.5.1-1 .6-1.1.1 0 .1-.2 0-.1-.6.1-.9.7-.7 1.3-.1.1.1 0 .1-.1z"/><path class="st1" d="M188.3 55.7c.1-.6.5-1 1.1-1 .1 0 .1-.2 0-.2-.7 0-1.2.5-1.2 1.1-.1.2.1.2.1.1z"/><path class="st1" d="M188.7 54.8c-.1-.6.1-1.4.9-1.4.1 0 .1-.1 0-.1-.8-.1-1.1.8-1 1.5 0 .1.2.1.1 0z"/><path class="st1" d="M187.3 55.5c0-.7.6-1.2 1.3-1.2.1 0 .1-.1 0-.2-.8-.1-1.5.5-1.5 1.3 0 .2.2.2.2.1z"/><path class="st1" d="M188 54.3c0-.6.2-1.6 1-1.6.1 0 .1-.2 0-.1-.8 0-1.2 1.1-1.1 1.8 0 0 .1 0 .1-.1z"/><path class="st1" d="M188.2 52.9c-.4-.3 0-1.1.4-1.2.1 0 .1-.2 0-.1-.3.1-.5.3-.6.6 0 .2 0 .7.2.8 0 .1.1 0 0-.1z"/><path class="st1" d="M187.3 54.9c-.4-.3-.5-.9-.2-1.3.2-.4.6-.5 1-.6.1 0 .1-.2 0-.1-.5.1-1 .4-1.2.9-.2.5-.1 1 .3 1.3.1 0 .2-.1.1-.2z"/><path class="st1" d="M186 55.3v-.7c.2-.4.4-.4.8-.5.1 0 .1-.2 0-.1-.3 0-.6 0-.8.3-.2.3-.2.8-.2 1.1.1 0 .2 0 .2-.1z"/><path class="st1" d="M186.9 53.9c-.2-.4-.3-.9-.1-1.3.2-.3.8-.5 1.2-.5.1 0 .1-.1 0-.2-.4-.1-1 .1-1.3.5-.3.4-.1 1 .1 1.4 0 .3.2.2.1.1z"/><path class="st1" d="M187.5 52.1c-.2-.5-.1-1 .4-1.1.1 0 .1-.2 0-.1-.7.2-.8.8-.5 1.4 0-.1.1-.2.1-.2z"/><path class="st1" d="M186.7 52.4c0-.1 0-.1-.1-.2-.1-.3 0-.6.3-.8.1-.1.3-.2.5-.2.1 0 .1-.2 0-.1-.4 0-.8.4-.9.8 0 .2 0 .8.3.7.1-.1 0-.3-.1-.2z"/><path class="st1" d="M186 54.3c-.2-.6-.2-1.6.7-1.7.1 0 .1-.2 0-.1-.9.1-1.1 1.1-.8 1.9 0 .1.2 0 .1-.1z"/><path class="st1" d="M185.1 55.2c-.1-.5 0-1.7.8-1.7.1 0 .1-.1 0-.1-.9-.1-1 1.3-.9 1.8 0 .1.1.1.1 0z"/><path class="st1" d="M185.8 53.3c-.1-.1-.2-.6-.2-.7 0-.5.4-.9.9-.8.1 0 .1-.1 0-.1-.4-.1-.9.2-1 .6-.1.3-.1 1.1.2 1.2.1 0 .2-.2.1-.2zm1.6-2.2c-.1-.2-.3-.8.1-.9.1 0 0-.2-.1-.1-.4.2-.3.8-.1 1.1l.1-.1z"/><path class="st1" d="M186.6 51.6c-.2-.2-.2-.6-.2-.8.1-.3.5-.8.8-.5.1.1.2-.1.1-.1-.3-.2-.8.1-.9.3-.2.3-.2 1 .1 1.3.1-.1.2-.2.1-.2zm-2.5 3.4c0-.3.1-.6.3-.7.2-.1.4-.1.6-.1.1 0 .1-.1 0-.2-.7 0-1 .3-1.1 1 0 .1.2.1.2 0z"/><path class="st1" d="M185 54c-.4-.6-.6-1.8.5-1.8.1 0 .1-.1 0-.2-.5 0-.8.1-.9.6-.1.5 0 1 .3 1.5.1.1.2 0 .1-.1z"/><path class="st1" d="M185.5 52.1c-.3-.4-.4-.8-.2-1.2.1-.2.3-.3.5-.4.1 0 .4 0 .4-.1 0 .1.1.1.1 0v-.1s0-.1-.1-.1c-.6 0-.9 0-1.2.5-.3.5-.2.9.2 1.4.2.2.4.1.3 0z"/><path class="st1" d="M186.4 50.3c-.2-.1-.1-.5-.1-.7.1-.3.2-.4.5-.5.1 0 .1-.2 0-.1-.3.1-.5.4-.6.7 0 .2-.1.7.2.8.1-.1.1-.2 0-.2zm-.2-1c-.3-.2-.1-.9.2-1 .1 0 0-.2-.1-.1-.4.2-.6 1-.2 1.3.1 0 .2-.1.1-.2z"/><path class="st1" d="M185.3 50.8c-.1-.2-.1-.5 0-.8.1-.2.5-.7.8-.4.1.1.2 0 .1-.1-.2-.2-.6-.1-.8.1-.3.3-.4.9-.2 1.2 0 .1.2.1.1 0z"/><path class="st1" d="M184.6 52.6c-.2-.1-.2-.5-.3-.7-.1-.6.3-.9.8-1 .1 0 .1-.2 0-.2-.4 0-.9.1-1 .6-.1.3 0 .8.1 1 .1.2.1.2.3.3.2.2.2 0 .1 0zm-.7 2.3c-.3-.2-.3-.8-.2-1.1.1-.5.4-.8.9-.8.1 0 .1-.2 0-.2-.6 0-.9.3-1 .8-.1.4-.1 1.1.3 1.4 0 0 .1-.1 0-.1z"/><path class="st1" d="M182.5 54.9c0-.2 0-.4.1-.6.2-.2.4-.3.6-.5h.3c.1 0 .1-.1 0-.2-.8-.1-1.1.4-1.1 1.2 0 .2.1.2.1.1z"/><path class="st1" d="M183.6 53.8c0-.3-.2-.4-.3-.7-.1-.7.1-1.2.9-1.3.1 0 .1-.2 0-.1-.4 0-.8.1-1 .6-.1.2-.1.4-.1.7 0 .1 0 .3.1.4.1.1.2.3.2.4 0 .1.2.1.2 0z"/><path class="st1" d="M184.2 51.5c-.3-.3-.3-1-.1-1.3.1-.2.3-.3.5-.4.1 0 .5-.1.5-.1.1.1.2 0 .1-.1-.2-.3-1 .1-1.2.2-.4.4-.5 1.2-.1 1.6.3.3.4.2.3.1z"/><path class="st1" d="M185.3 49.7c-.3-.4-.1-1 .2-1.3.2-.2.5-.3.8-.2.1 0 .1-.1 0-.1-.9-.1-1.9 1-1.1 1.8 0 0 .1-.1.1-.2z"/><path class="st1" d="M185.2 48.4c-.5-.5 0-1.4.6-1.6.1 0 .1-.2 0-.1-.7.2-1.2 1.2-.6 1.8 0 .1.1 0 0-.1zm-2 3.9c-.3-.2-.3-1-.2-1.3.2-.3.5-.6.9-.7.1 0 .1-.2 0-.1-.5 0-.9.4-1.1.9-.1.4-.1 1.1.2 1.3.2.1.3 0 .2-.1zm-.8 2.1c-1-.3-.1-1.9.7-1.8.1 0 .1-.1 0-.1-1-.1-2.1 1.6-.8 2.1.1 0 .2-.2.1-.2z"/><path class="st1" d="M182.4 54.5c-.4-.1-1.1.1-1.1.6 0 .1.2.1.1 0-.1-.4.7-.4.9-.4.2-.1.2-.2.1-.2zm-1.8.4c-.3-.9.5-1.9 1.4-1.5.1 0 .2-.1.1-.1-1.1-.5-2 .7-1.6 1.7 0 0 .1 0 .1-.1z"/><path class="st1" d="M182 53.1c-.3-.1-.3-.9-.2-1.1 0-.1 0-.2.1-.3.2-.5.6-.5 1-.4.1 0 .1-.1 0-.1-.6-.1-1.1 0-1.2.7-.1.4-.2 1.3.3 1.5.1-.1.1-.2 0-.3zm1.9-2.9c-.2-.2-.2-.5-.2-.8 0-.4.4-1.3 1-.8.1.1.2-.1.1-.1-1-.7-1.6 1.3-1 1.9.1-.1.2-.2.1-.2z"/><path class="st1" d="M182.9 51c-.4-.1-.4-1.2-.2-1.4.2-.4.6-.6 1-.6.1 0 .1-.1 0-.2-.5 0-1.1.4-1.2.9-.1.4-.1 1.3.4 1.4.1.1.1 0 0-.1z"/><path class="st1" d="M183.8 48.8c-.3-.3-.1-1.1.1-1.3.2-.2.9-.5 1.1-.2 0 .1.2 0 .1-.1-.2-.5-1-.1-1.3.1-.3.2-.3.4-.3.7 0 .3-.1.6.2.8.1.2.2.1.1 0z"/><path class="st1" d="M185.2 47c-.8-.1-.4-1.1.1-1.4.1 0 0-.2-.1-.1-.6.3-.9 1.5 0 1.7 0 0 .1-.1 0-.2z"/><path class="st1" d="M184.8 45.9c-.7-.5-.5-1.1 0-1.6.1-.1 0-.2-.1-.1-.3.3-.6.7-.5 1.1 0 .4.2.6.5.8.1-.1.1-.2.1-.2z"/><path class="st1" d="M184 47.3c-.1-.6 0-1.3.8-1.3.1 0 .1-.1 0-.2-.3 0-.6 0-.8.3-.2.4-.2.8-.1 1.2-.1.1.1.1.1 0z"/><path class="st1" d="M182.7 49.3c-.4-.7-.2-2.4 1-1.9.1 0 .2-.1.1-.1-1.3-.6-1.8 1.2-1.2 2.1 0 .1.2 0 .1-.1zm-1 2.5c-.2 0-.4-.5-.4-.7 0-.3 0-.5.2-.7.2-.4.7-.7 1.1-.7.1 0 .1-.1 0-.1-.6-.1-1.3.4-1.5 1-.2.4-.1 1.3.5 1.4.2-.1.2-.2.1-.2z"/><path class="st1" d="M180.7 53.6c-.4-.3 0-1.1.3-1.4.3-.2.6-.2 1-.3.1 0 .1-.2 0-.1-.6.1-1.1.1-1.3.8-.1.3-.2.9.1 1.2-.1 0-.1-.2-.1-.2z"/><path class="st1" d="M179.5 55.1c0-.3-.1-.8.1-1 .1-.2.5-.3.7-.3h.5c.1 0 .1-.2 0-.1-.4 0-.9-.1-1.2.3-.3.3-.2.8-.2 1.2-.1 0 .1 0 .1-.1z"/><path class="st1" d="M179.3 54.4c-.1-.2-.2-.4-.3-.5 0-.2 0-.3.1-.4.1-.2.2-.3.3-.5.3-.3.8-.3 1.1-.2.1 0 .1-.1 0-.1-.6-.2-1.2.1-1.6.6-.2.4-.3 1.2.3 1.3.1 0 .2-.2.1-.2z"/><path class="st1" d="M180.5 52.6c-.4-.2-.4-.9-.4-1.3s.1-.7.5-.9c.2-.1.5-.1.7-.1.1 0 .1-.1 0-.1-.5-.2-1.2.1-1.4.6-.2.5-.1 1.6.4 1.9.2 0 .3-.1.2-.1z"/><path class="st1" d="M181.4 50.1c-.4-.3-.5-.9-.2-1.3s.6-.9 1.2-.8c.1 0 .1-.1 0-.1-.6-.2-1.1.3-1.4.8-.3.5-.2 1.1.3 1.5.1.1.2 0 .1-.1zm1.1-2.4c-.6-.3-.1-1.2.3-1.4.5-.3.8 0 1.2 0 .1 0 .1-.2 0-.2-.4 0-.6-.3-1-.2-.3.1-.5.4-.7.6-.3.4-.4 1 .1 1.2.1.1.2 0 .1 0z"/><path class="st1" d="M183.9 46.1c-.5-.1-.4-.8-.2-1.1.1-.2.4-.3.6-.4.1 0 0-.2-.1-.1-.4.2-.8.4-.8.9 0 .3.1.7.5.8.1 0 .1-.1 0-.1zm-4.6 8.4c-.5.1-1.2.1-1.2.8 0 .1.2.1.2 0 0-.2.5-.5.7-.5.1 0 .3-.1.4-.1 0-.1 0-.2-.1-.2z"/><path class="st1" d="M178 55.2c-.7-.1-.4-1.2-.1-1.5.3-.4.7-.4 1.2-.4.1 0 .1-.2 0-.1-.7 0-1.2.2-1.6.8-.2.4-.1 1.3.5 1.4.1-.1.1-.2 0-.2z"/><path class="st1" d="M179.1 53.1c-.5-.2-.4-1-.3-1.4.2-.6.7-.9 1.3-.8.1 0 .1-.1 0-.2-.7-.1-1.2.3-1.4 1-.1.5-.2 1.3.4 1.5v-.1z"/><path class="st1" d="M180 50.7c-.5-.2-.4-.9-.2-1.3.2-.5.7-.7 1.2-.6.1 0 .1-.1 0-.1-.6-.1-1.2.2-1.4.7-.2.4-.2 1.3.3 1.5.2 0 .2-.2.1-.2zm-3.5 4.9c-.3-.7.2-1.4 1-1.4.1 0 .1-.2 0-.2-.9 0-1.4.8-1.1 1.6 0 .1.2.1.1 0z"/><path class="st1" d="M177.5 53.9c-.4-.1-.2-1.1-.1-1.3.2-.4.7-1 1.2-.7.1.1.2-.1.1-.1-.6-.3-1.2.2-1.5.7-.2.3-.3 1.4.2 1.5.1.1.2-.1.1-.1z"/><path class="st1" d="M178.6 51.6c-.9-.7 0-2.4 1-2.1.1 0 .1-.1 0-.1-1.2-.3-2.2 1.6-1.1 2.4.1 0 .2-.1.1-.2zm2.5-3c-.4-.4-.3-.9-.1-1.3.2-.5.7-1 1.3-.6.1.1.2-.1.1-.1-.6-.4-1.1 0-1.4.5-.3.6-.5 1.2 0 1.6.1 0 .2-.1.1-.1zm1.3-2.2c-.9-.9.3-2.2 1.3-1.5.1.1.2-.1.1-.1-1.2-.8-2.5.7-1.5 1.7l.1-.1z"/><path class="st1" d="M183.8 44.6c-.6-.4-.1-1.5.5-1.6.1 0 .1-.2 0-.1-.8.1-1.2 1.4-.5 1.9v-.2z"/><path class="st1" d="M183.7 43.2c-.3-.2-.4-1.1.2-1.1.1 0 .1-.1 0-.2-.7 0-.7 1-.3 1.4.1 0 .2-.1.1-.1z"/><path class="st1" d="M182.3 44.8c-.2-.4-.2-.8 0-1.2.2-.4.8-.7 1.2-.4.1.1.2 0 .1-.1-.3-.3-.9-.3-1.2.1-.4.5-.5 1.1-.3 1.7.1.1.2 0 .2-.1zm-2.5 4.5c-.3-.4-.3-.9-.1-1.3.2-.5.7-.8 1.3-.6.1 0 .1-.1 0-.1-.5-.2-1.1 0-1.4.5-.4.5-.3 1.2 0 1.7.1 0 .2-.1.2-.2z"/><path class="st1" d="M180.8 47.3c.1 0 .1-.2 0-.2s-.1.2 0 .2z"/><path class="st1" d="M180.8 47.3c.1 0 .1-.2 0-.2s-.1.2 0 .2z"/><path class="st1" d="M180.8 47.1c-.7-.9.1-2.2 1.2-2 .1 0 .1-.1 0-.1-1.3-.3-2.2 1.2-1.4 2.2.2.1.3 0 .2-.1zm-5.3 8.8c-.2-.6.2-1.1.9-1 .1 0 .1-.1 0-.1-.7-.1-1.2.5-1 1.2 0 0 .1 0 .1-.1z"/><path class="st1" d="M176.4 54.7c-.3-.3-.5-.8-.3-1.2.1-.4.6-.9 1.1-.7.1 0 .1-.1 0-.1-.5-.2-1 .2-1.2.7-.2.5-.1 1.1.3 1.5 0 0 .1-.1.1-.2z"/><path class="st1" d="M177.2 52.7c-.3-.4-.4-.9-.3-1.4.2-.6.6-.9 1.3-.9.1 0 .1-.2 0-.2-.6 0-1.1.2-1.4.8-.2.6-.1 1.2.2 1.7.1.1.2.1.2 0z"/><path class="st1" d="M178.2 50.2c-.3-.5-.4-1-.2-1.5.3-.6.9-.7 1.4-.7.1 0 .1-.2 0-.2-.6 0-1.2.1-1.6.7-.3.6-.2 1.2.2 1.7.2.2.3.1.2 0z"/><path class="st1" d="M179.6 47.9c-.8-1-.1-2.3 1.1-2.4.1 0 .1-.2 0-.2-1.4.1-2 1.6-1.2 2.6 0 .1.2 0 .1 0z"/><path class="st1" d="M180.8 45.3c-.4-.5-.3-1.2 0-1.7.2-.3.5-.4.8-.4.2 0 .5 0 .7.1.1.1.2-.1.1-.1-.3-.2-.6-.1-.9-.1-.3 0-.6.1-.7.3-.4.6-.5 1.4 0 2 0 .1.1 0 0-.1z"/><path class="st1" d="M182.5 43.3c-.6-.9-.1-2.4 1.2-2.2.1 0 .1-.1 0-.1-1.3-.2-2 1.4-1.3 2.4 0 0 .1 0 .1-.1z"/><path class="st1" d="M174.8 56.2c.2-3.3 1.8-6.2 3.2-9.1 1-2.2 2.9-6.4 5.3-7.2.1 0 .1-.2 0-.1-2.4.8-4.2 4.8-5.2 6.9-1.5 3.1-3.2 6.1-3.4 9.7-.1-.1.1-.1.1-.2zm8.5-16.8c-1.6 0-2.8-.8-3.6-2.2-.7-1.1-.9-2.8 0-3.9.1-.1 0-.2-.1-.1-.8 1-.8 2.6-.3 3.7.8 1.6 2.1 2.6 3.9 2.6.2.1.2-.1.1-.1z"/><path class="st1" d="M182.2 40.2c-3.4.7-4.5-4.8-3.5-7 0-.1-.1-.2-.1-.1-1 2.4.1 8 3.7 7.3.1-.1 0-.2-.1-.2z"/><path class="st1" d="M178.9 44.8c-1.4-1.8-1.2-4.2.4-5.8.1-.1 0-.2-.1-.1-1.7 1.7-1.9 4.1-.4 6l.1-.1z"/><path class="st1" d="M178.5 45.7c-1.6-.4-1.9-3.4-1.6-4.7.3-1.2 1.2-2 2.1-2.8.1-.1 0-.2-.1-.1-1.3 1.2-2.3 2.3-2.2 4.2.1 1.2.4 3.1 1.8 3.5.1.1.1-.1 0-.1z"/><path class="st1" d="M178.7 38.2c-1.5.5-2.9-.2-4.1-1.1-.6-.4-1.2-.9-1.6-1.6-.1-.2-1.2-2.2-.7-2.4.1 0 0-.2-.1-.1-.9.4.9 3.1 1.3 3.5 1.3 1.3 3.4 2.5 5.3 1.9 0-.1 0-.2-.1-.2z"/><path class="st1" d="M178.5 37.3c-1.4.3-2.8-.2-3.8-1.1-.9-.8-1.2-2-1.6-3 0-.1-.2-.1-.1 0 .4 1.2.8 2.5 1.9 3.3 1.1.9 2.3 1.3 3.7.9 0 0 0-.2-.1-.1zm-1.8 5c-1.7 0-3.6-3.8-2.3-5.1.1-.1 0-.2-.1-.1-.8.8-.5 2-.1 2.9.5 1 1.2 2.5 2.5 2.5.1-.1.1-.2 0-.2z"/><path class="st1" d="M176.9 43.5c-1.7.5-3.1-1.9-3.5-3.1-.4-1.3-.7-2.6 0-3.9 0-.1-.1-.2-.1-.1-.8 1.5-.4 3.3.3 4.9.6 1.2 1.9 2.7 3.3 2.3.1 0 .1-.1 0-.1z"/><path class="st1" d="M176.9 48.8c-2.8.2-3.9-4.5-2.7-6.5.1-.1-.1-.2-.1-.1-.8 1.3-.5 3.3 0 4.6.4 1.3 1.4 2.3 2.8 2.1.1.1.1-.1 0-.1z"/><path class="st1" d="M176.4 50.1c-2.2.1-3.1-2-3.4-3.8-.3-1.8-.3-3.2.8-4.7.1-.1-.1-.2-.1-.1-1.3 1.8-1.2 3.9-.6 6 .4 1.5 1.7 2.8 3.3 2.8.1-.1.1-.2 0-.2z"/><path class="st1" d="M173.7 41.4c-1.8.2-3.1-2.1-3.5-3.6-.5-1.6.3-3.7 1.6-4.7.1-.1 0-.2-.1-.1-1.4 1-2.2 3.2-1.7 4.9.5 1.6 1.7 3.9 3.7 3.7.1 0 .1-.2 0-.2z"/><path class="st1" d="M173 39.6c-.4-.3-.8-.5-1.2-.8-.1-.3-.2-.5-.3-.8-.1-.4-.2-1-.2-1.4 0-.9.5-1.8 1.1-2.5.1-.1 0-.2-.1-.1-.9 1-1.3 2.1-1 3.4.2 1.1.5 2.2 1.8 2.3 0 0 0-.1-.1-.1zm-3.1-2.1c-2.2-.6-3.6-2.3-3.9-4.5 0-.1-.2-.1-.1 0 .3 2.3 1.8 4.1 4 4.7.1 0 .1-.1 0-.2z"/><path class="st1" d="M170.3 38.6c-1.4 1-3.3-.6-4.2-1.6-1-1.1-1.6-2.5-1.8-4.1 0-.1-.2-.1-.1 0 .2 1.8 1 3.5 2.4 4.7 1 .9 2.5 2.1 3.8 1.1.1-.1 0-.2-.1-.1z"/><path class="st1" d="M172.8 44.8c-1.2-.2-2.4-.8-3.3-1.7-1-1.1-1.1-2.7-1.1-4.1 0-.1-.2-.1-.1 0 .1 1.3.1 2.9.9 4 .9 1.1 2.2 1.7 3.6 2 0-.1.1-.2 0-.2z"/><path class="st1" d="M172.7 45.7c-2 .3-3.4-.7-4.4-2.3-1.2-1.7-1.3-3.5-1.3-5.6 0-.1-.1-.1-.1 0 0 2.5.2 4.5 1.8 6.4 1 1.2 2.5 1.8 4.1 1.6 0 0 0-.1-.1-.1zm-6-8.1c-1.1.5-3.2.4-3.9-.7 0-.1-.2 0-.1.1.7 1.2 2.9 1.4 4.1.8.1-.1 0-.2-.1-.2zm-1.1-1.2c-1 .2-2 0-2.7-.7-.1-.1-.2 0-.1.1.8.7 1.8.9 2.9.7 0 0 0-.1-.1-.1z"/><path class="st1" d="M175 49.7c-3.1 2.2-7-1.1-5.2-4.5 0-.1-.1-.2-.1-.1-1.8 3.5 2.2 7 5.4 4.7.1 0 0-.1-.1-.1z"/><path class="st1" d="M173.8 49c-.9.2-1.8-.2-2.5-.7-.9-.7-1-1.6-.9-2.6 0-.1-.1-.1-.2 0 0 .9 0 2 .8 2.6.8.6 1.8 1.1 2.8.9.2-.1.1-.3 0-.2zm-4.2-3.9c-1.7.5-4.5.7-5.6-1-.1-.1-.2 0-.1.1 1.2 1.7 4 1.6 5.8 1.1 0-.1 0-.2-.1-.2zm-1.4-1.4c-1.5.3-4.1-.5-4.6-2.1 0-.1-.2-.1-.1 0 .6 1.7 3.2 2.5 4.8 2.2.1.1 0-.1-.1-.1zm6.7 10.7c-1.2.4-2.5.1-3.3-.8-.9-1-1.1-2.4-.9-3.7 0-.1-.1-.1-.1 0-.2 1.3 0 2.8.9 3.8s2.2 1.3 3.5.8c.1 0 0-.1-.1-.1zm.7-2.4c-.4-.2-.5-.6-.6-.9-.1-.3-.2-.8 0-1 0-.1-.1-.2-.1-.1-.2.3-.1.9 0 1.2.1.4.3.7.7 1 0 0 .1-.1 0-.2z"/><path class="st1" d="M175 53.4c-.9.4-1.8-.2-2.4-.8-.6-.6-1-1.3-.8-2.2 0-.1-.1-.1-.1 0-.2 1 .3 1.8 1 2.5.7.6 1.6 1 2.4.6.1 0 0-.1-.1-.1zm-4.5-3.6c-.2.1-.3.3-.5.4-.9.7-1.3.7-2.1.3-.5-.2-1-.5-1.4-.8-.6-.4-1.1-1-1.4-1.7-.1-.4-.2-2.7.6-2.7.1 0 .1-.1 0-.2-.5 0-.7 1.1-.8 1.5-.2.9.1 1.8.7 2.5s1.6 1.3 2.5 1.6c1.1.3 1.7-.3 2.5-.9.1.1 0 0-.1 0z"/><path class="st1" d="M170 48.9c-1 .4-2.5.5-3.2-.4-.7-.8-.8-2.1-.3-3 .1-.1-.1-.2-.1-.1-.6 1-.4 2.4.4 3.2.8.9 2.4.8 3.4.3-.1.1-.2 0-.2 0zm-4.7-3.6c-.3.2-.6.3-1 .4-.1 0-.1.2 0 .2.4 0 .7-.1 1.1-.4 0-.1-.1-.2-.1-.2zm1.7 5.2c-.3.4-.7.7-1.2.6-.1 0-.1.1 0 .1.6.1 1-.2 1.4-.6 0-.1-.1-.2-.2-.1zm-.7-.4c-.2.3-.4.4-.7.3-.1 0-.1.1 0 .1.4.1.7-.1.9-.4 0 0-.1-.1-.2 0z"/><path class="st1" d="M171.7 54c-.7.6-2.3.7-3 0-.4-.4-.8-.9-1.1-1.3-.4-.6-.4-1.3-.4-2 0-.1-.1-.1-.1 0-.1.7-.1 1.4.3 2 .4.6.9 1.4 1.5 1.7.8.5 2.2.3 2.9-.2.1-.1 0-.3-.1-.2z"/><path class="st1" d="M171.2 53.2c-1.6.5-3.2-.5-3.1-2.2 0-.1-.1-.1-.1 0-.1 1.8 1.6 3 3.3 2.4 0-.1 0-.2-.1-.2zm-2.3 1.2c-.6.2-1.1.2-1.7-.1-.1 0-.2.1-.1.1.6.3 1.2.3 1.8.1.2 0 .1-.1 0-.1zm-.5-.6c-.4 0-1 .2-1.3-.2 0-.1-.2 0-.1.1.3.5.9.3 1.4.3.1 0 .1-.2 0-.2zm4.4 3.4c-.8-.5-1-2-.7-2.8 0-.1-.1-.1-.1 0-.3.9-.1 2.5.8 3 0 0 .1-.2 0-.2zm.7-.4c-.2-.4-.6-.8-.6-1.2 0-.4 0-.8.1-1.2 0-.1-.1-.1-.2 0 0 .4-.1.9 0 1.4.1.4.4.8.6 1.1 0 .1.1 0 .1-.1z"/><path class="st1" d="M169 54.4c-.3.9-.2 2.5.7 3.1.8.6 2.3.2 3-.3.1-.1 0-.2-.1-.1-.7.5-2.2.9-3 .2-.7-.6-.7-2-.5-2.9h-.1z"/><path class="st1" d="M172.2 56.7c-.3.1-.6.1-.9.1-.5 0-.6-.3-.9-.6-.2-.3-.4-.5-.4-.9v-.9c0-.1-.1-.1-.1 0 0 .4-.1.8 0 1.2.1.3.3.6.5.8.5.6 1.1.6 1.8.4.1.1.1-.1 0-.1zm-3.1.3c-.2.1-.3.1-.5.1-.1 0-.1.1 0 .1.2 0 .4 0 .6-.1 0 0 0-.1-.1-.1zm.1.9c0-.3.1-.5.2-.7 0-.1-.1-.1-.1 0-.1.3-.2.5-.2.8 0 0 .1 0 .1-.1zm-.4-1.8c-.2.1-.4 0-.6-.1-.1 0-.1.1 0 .1.2.1.4.1.6.1.1.1.1-.1 0-.1zm1.4 3.2c0-.3-.2-1.1.1-1.3.1 0 0-.2-.1-.1-.5.2-.3 1-.2 1.4 0 .1.2.1.2 0zm23.4-5.7v-.1c0-.1-.1-.1-.1 0v.1c0 .1.1.1.1 0zm.2-1.5s0-.1 0 0c.1-.1 0-.2 0-.2l-.1.1c-.1 0 0 .1.1.1zm.5-1.7c.1 0 .1-.2 0-.2s-.1.2 0 .2zm.6-1.8c.1 0 .1-.2 0-.2-.1.1-.1.2 0 .2zm.7-1.5c-.2 0-.2.2-.1.2h.1c.1 0 .1-.2 0-.2zm.6-1.2c.1 0 .1-.2 0-.2s-.1.2 0 .2zm.8-1.5c.1 0 .1-.2 0-.2-.1.1-.1.2 0 .2zm.8-1.4c.1 0 .1-.1 0-.1v.1zm1.1-1.4s0-.1 0 0c0-.2-.2-.2-.2-.1v.1c0 .1.2.1.2 0zm1-1.4c.1 0 .1-.1 0-.1-.1-.1-.1.1 0 .1zm1-1.6c.1 0 .1-.1 0-.1v.1zm.9-1.4c.1 0 .1 0 0 0 .2 0 .2-.2.1-.2h-.1c-.1.1-.1.2 0 .2zm1-1.1c.1 0 .1-.1 0-.1s-.1.1 0 .1zm1.1-.9c.1 0 .1-.1 0-.1-.1-.1-.1.1 0 .1zm1.4-1c0-.2-.1-.2-.1-.1v.1c-.1.1.1.1.1 0zM197 8c1 7.4 4.4 14.1 10.1 19.1 2.4 2.1 5.6 4.6 8.8 5.3.1 0 .1-.1 0-.1-3.2-.8-6.4-3.2-8.8-5.3-5.7-4.9-9-11.6-10-19 0-.1-.2-.1-.1 0zm-2.9 2.5c.4 4.5 2.2 8.6 4.6 12.4 2.3 3.7 5.2 7.6 9.3 9.5.1 0 .2-.1.1-.1-4-1.9-6.9-5.8-9.2-9.5-2.3-3.8-4.2-7.8-4.5-12.3h-.3z"/><path class="st1" d="M196.3 18.3c3.7-2.5 2.2-7.5-2.1-7.9-.1 0-.1.1 0 .2 4.2.4 5.6 5.2 2 7.6-.1.1 0 .2.1.1z"/><path class="st1" d="M199.9 24.5c1.6-.8 1.8-3 1.2-4.5-.8-2.1-2.9-2.5-4.8-1.8-.1 0-.1.2 0 .1 2-.7 4-.3 4.7 1.9.5 1.4.3 3.4-1.2 4.2-.1 0 0 .2.1.1z"/><path class="st1" d="M199.8 24.5c1.4-.3 3.7-.5 4.8.6 1.3 1.2 1.2 3.9.3 5.3-.1.1.1.2.1.1 1-1.4 1.1-4.1-.1-5.4-1.1-1.3-3.6-1-5.1-.7-.1 0 0 .1 0 .1z"/><path class="st1" d="M205 30.5c2.9-2.4 5.9 0 8.2 1.9.1.1.2 0 .1-.1-2.5-2-5.5-4.4-8.4-1.9-.1.1 0 .2.1.1zm-1-3.4c.4-.9-1.1-1.1-1.1-.3 0 .7 1.1 1 1.1.3 0-.1-.1-.1-.1 0 0 .2-.4.2-.6.2-.2-.1-.3-.6 0-.7.2-.1.3-.1.4.2.2.1.3.2.2.4 0 0 .1 0 .1-.1zm-4.3-6.1c.4-.9-1.1-1.1-1.1-.3 0 .6 1.1.9 1.1.3 0-.1-.1-.1-.1 0 0 .2-.4.2-.6.2-.2-.1-.3-.6 0-.7.2-.1.3-.1.4.2.2.1.3.2.2.4 0-.1.1 0 .1-.1zm-2.8-6.7c.2-.8-1.1-1.2-1.2-.3-.1.8 1.3.9 1.2.2 0-.1-.2-.1-.1 0-.2.3-.5.4-.8.1.3-.9.5-.9.8 0-.1 0 .1.1.1 0zm-2.4-.5l-.9.3c-.1 0-.1.2 0 .1l.9-.3c.1 0 .1-.2 0-.1zm-.2-1.5c-.4.1-.8.3-1.1.5-.1 0 0 .2.1.1.3-.2.7-.3 1.1-.4 0-.1 0-.2-.1-.2zm.7 3.3l-.9.3c-.1 0-.1.2 0 .1l.9-.3c.1 0 .1-.1 0-.1zm.6 1.6c-.3.1-.6.3-.9.4-.1 0 0 .2.1.1.3-.1.5-.3.8-.4.2 0 .1-.1 0-.1zm.7 1.5c-.3 0-.6.1-.9.3-.1 0 0 .2.1.1l.9-.3s0-.2-.1-.1zm.7 1.4c-.4 0-.6.1-.9.3-.1 0 0 .2.1.1.3-.1.5-.3.8-.3.1 0 .1-.1 0-.1zm.8 1.3c-.4 0-.6.1-.9.3-.1.1 0 .2.1.1.3-.2.5-.3.8-.3.1.1.1-.1 0-.1zm.9 1.5c-.3.1-.6.1-.9.3-.1 0 0 .2.1.1.3-.2.6-.2.9-.3 0 0 0-.1-.1-.1zm1 1.5c-.3.1-.6.2-.9.4-.1 0 0 .2.1.1.3-.1.5-.3.8-.4.1 0 .1-.1 0-.1zm1.1 1.5c-.3 0-.6.1-.9.3-.1 0 0 .2.1.1.3-.1.5-.2.9-.3-.1.1-.1-.1-.1-.1zm.9 1.3c-.3.1-.6.1-.9.3-.1.1 0 .2.1.1.3-.2.5-.2.8-.3.2 0 .1-.1 0-.1zm1 1.2c-.3.1-.5.2-.8.3-.1.1 0 .2.1.1.2-.2.5-.2.8-.3.1 0 0-.1-.1-.1zm1.1 1.1c-.3.1-.6.3-.8.4-.1 0-.1.2 0 .1.3-.1.6-.3.8-.4.1 0 .1-.2 0-.1z"/><path class="st1" d="M204.9 30.4c-.3.1-.6.3-.8.5-.1.1 0 .2.1.1.2-.2.4-.4.7-.5.1 0 .1-.1 0-.1zm1.5 1.1c-.4 0-.7.1-.9.3-.1.1 0 .2.1.1.3-.2.5-.3.9-.3 0 0 0-.1-.1-.1zm11.8.8c-1.5-1.5-3.9-2.1-5.7-3.3-2-1.3-3.9-2.8-5.6-4.5-4.7-4.7-7.7-10.6-9-17.1 0-.1-.2-.1-.1 0 1.3 6.1 3.9 11.8 8.2 16.4 1.6 1.7 3.3 3.2 5.1 4.5 1 .7 2 1.4 3.1 2 1.2.7 2.8 1.1 3.8 2.1.1.1.2 0 .2-.1z"/><path class="st1" d="M198.2 8.8c-.3-.4-.7-.6-1.1-.8-.1-.1-.2 0-.1.1.4.2.8.5 1.1.8 0 .1.1 0 .1-.1z"/><path class="st1" d="M198.1 8.8c-.4.3-.6.7-.8 1.1 0 .1.1.2.1.1.2-.4.4-.8.8-1 0-.2 0-.3-.1-.2z"/><path class="st1" d="M197.3 10c.5.2.9.6 1.3.9.1.1.2-.1.1-.1-.4-.3-.8-.8-1.3-1-.1 0-.2.1-.1.2z"/><path class="st1" d="M198.6 10.8c-.2.5-.5 1-.7 1.5 0 .1.1.2.1.1.2-.5.5-1 .7-1.5.1-.1-.1-.2-.1-.1z"/><path class="st1" d="M197.9 12.4c.5.2.9.5 1.4.6.1 0 .1-.1 0-.1-.5-.1-.9-.4-1.4-.6 0-.1-.1 0 0 .1z"/><path class="st1" d="M199.2 12.9c-.2.5-.5.9-.8 1.3-.1.1.1.2.1.1.3-.4.6-.9.8-1.3.1-.1 0-.2-.1-.1z"/><path class="st1" d="M198.5 14.3c.5.1 1 .3 1.5.5.1 0 .2-.1.1-.1-.5-.2-1-.4-1.5-.5-.1-.1-.2.1-.1.1z"/><path class="st1" d="M200 14.7c-.3.4-.5.9-.8 1.3-.1.1.1.2.1.1.3-.4.5-.9.8-1.3.1-.1-.1-.2-.1-.1z"/><path class="st1" d="M199.2 16.1c.6.3 1.2.6 1.8.7.1 0 .1-.1 0-.1-.6-.1-1.2-.4-1.8-.6 0-.1-.1 0 0 0z"/><path class="st1" d="M200.9 16.7c-.2.5-.5 1-.8 1.4-.1.1.1.2.1.1.3-.5.6-.9.8-1.5.1-.1-.1-.1-.1 0z"/><path class="st1" d="M200.2 18.2c.6.1 1.2.4 1.8.6.1 0 .1-.1 0-.1-.6-.2-1.2-.5-1.8-.6-.1 0-.1.1 0 .1z"/><path class="st1" d="M202 18.7c-.2.5-.5 1-.7 1.5 0 .1.1.1.1 0 .2-.5.5-1 .7-1.5 0 0-.1-.1-.1 0z"/><path class="st1" d="M201.3 20.3c.6-.1 1.2 0 1.8.2.1 0 .1-.1 0-.1-.6-.2-1.2-.3-1.9-.2.1 0 .1.1.1.1z"/><path class="st1" d="M203.1 20.4c-.2.5-.5 1-.6 1.6 0 .1.1.1.1 0 .1-.6.4-1.1.6-1.6h-.1z"/><path class="st1" d="M202.6 22.2c.6-.1 1.2 0 1.9.1.1 0 .1-.1 0-.2-.6-.1-1.2-.2-1.9-.1-.1 0-.1.2 0 .2z"/><path class="st1" d="M204.4 22.2c-.3.6-.1 1.3-.3 1.9 0 .1.1.1.1 0 .2-.6 0-1.3.3-1.8.1-.1 0-.2-.1-.1z"/><path class="st1" d="M204.2 24.2c.6 0 1.3.1 1.9 0 .1 0 .1-.2 0-.1-.6.1-1.3 0-1.9 0-.1-.1-.1.1 0 .1z"/><path class="st1" d="M206 24.1c-.2.6-.2 1.1-.4 1.7 0 .1.1.1.1 0 .2-.6.2-1.1.4-1.7.1-.1-.1-.1-.1 0z"/><path class="st1" d="M207.6 25.5c-.6.1-1.2.2-1.9.2-.1 0-.1.2 0 .1.6 0 1.3-.1 1.9-.2.1 0 .1-.1 0-.1z"/><path class="st1" d="M207.5 25.5c-.2.6 0 1.2-.2 1.8 0 .1.1.1.1 0 .1-.6 0-1.2.2-1.8.1 0-.1-.1-.1 0z"/><path class="st1" d="M207.4 27.4c.6 0 1.3-.1 2-.2.1 0 .1-.2 0-.1-.6.2-1.3.2-1.9.2-.2-.1-.2.1-.1.1z"/><path class="st1" d="M209.3 27.1c-.1.6 0 1.2 0 1.7 0 .1.1.1.1 0 0-.6-.1-1.1 0-1.7.1-.1-.1-.1-.1 0z"/><path class="st1" d="M209.4 29c.6-.1 1.3-.2 1.8-.5.1 0 0-.2-.1-.1-.6.3-1.1.4-1.8.5 0-.1 0 .1.1.1z"/><path class="st1" d="M211.1 28.4c0 .7.3 1.3.3 2 0 .1.1.1.1 0 .1-.7-.2-1.3-.3-2 0-.1-.1-.1-.1 0z"/><path class="st1" d="M213.3 29.7c-.5.3-1.3.5-1.9.6-.1 0-.1.2 0 .1.6-.1 1.4-.3 1.9-.6.2 0 .1-.1 0-.1z"/><path class="st2" d="M190.8 14.5l3.5 2.3-6.1 2.1 10.1 5-12.7 3 20.5 5.5m-7.6-7.9l-11.8 2.7m17.8 4l-15.4-3.9m9.9-2.2l-11.1 2.4m15.4 2.7l-12.6-3.3m8.6-1.3l-7.3 1.6m10.4 2l-7.8-2m5-1.1l-6.3 1.4m-5.1-8.6l-2.6 8m3-7.8l-2.3 7.6m2.8-7.4l-2.2 7.3m2.7-7l-2 6.8m2.7-6.5l-1.9 6.4m2.4-6.1l-1.7 5.9m2.4-5.6l-1.6 5.4m2.2-5.1l-1.3 4.9m2-4.5l-1.1 4.3m1.8-3.9l-.9 3.7m1.6-3.4l-.9 3.2m1.5-2.9l-.7 2.7m1.2-2.5l-.6 2.4m1.1-2.1l-.4 1.9m.8-1.7l-.2 1.6m.8-1.3l-.1 1.1m.6-.8l-.1.7m.5-1.2l-8.8-4.4m.8-.2l7.5 3.8m-2.7-4.9l-4.2 1.4m4.4-1.1l-3.9 1.4m6 2.5l-5.3-2.7m4.9 2l-4.5-2.2m3-.6l-2.5.8m-3-.3l1.1-3.6m-.5 3.4l1.1-3.5m-.3 3.2l.9-2.9m-.1 2.7l.6-2.3m.1 2l.5-1.6m.3 1.4l.2-1.1m.8 0l-3-2.1m2.7 1.4l-2.4-1.8m2.2 1l-1.9-1.4m-5 13.9l-1.6 5.2m2.2-5l-1.4 5m2.1-4.8l-1.4 4.8m2.1-4.7l-1.3 4.7m1.9-4.5l-1.3 4.5m2.1-4.3l-1.3 4.3m2.1-4.1l-1.2 4.1m1.9-3.9l-1.1 3.9m1.8-3.7l-1.1 3.7m1.8-3.5l-1 3.5m1.7-3.3l-1 3.3m1.7-3.1l-1 3.1m1.7-3l-.8 3"/><path class="st2" d="M200 32.4s.2-1-1.1-1.1c-1.3-.1-1.7 1.1-1.7 1.1l-1.5-2.8-.7 2.8m4.1 0c-.7-.5-.8 0-.8 0"/><path class="st1" d="M193 11.7c.2 4 2.6 8.1 4.7 11.4 2.2 3.4 4.8 7.3 8.4 9.3.1 0 .2-.1.1-.1-3.6-2-6.2-5.9-8.4-9.3-2.1-3.3-4.4-7.3-4.7-11.4 0 0-.1 0-.1.1z"/><path class="st2" d="M185.1 32.4c.1-6.9 1.7-14.3 9.1-21.8m-.8-2.6c-5.5 4.7-10.7 14-10.7 24.4"/><path class="st1" d="M193.4 8c-7.3 2.9-17.8 4.1-23.7-2.3-.1-.1-.2 0-.1.1 5.9 6.4 16.5 5.3 23.9 2.4.1-.1 0-.3-.1-.2z"/><path class="st1" d="M190.2 9.1c-.2.6 0 1.2.4 1.7.1.1.2 0 .1-.1-.4-.5-.5-1-.4-1.6.1 0 0-.1-.1 0z"/><path class="st1" d="M190.3 10.3c-.2.1-.4.1-.6 0-.1 0-.7-.5-.4-.6.1 0 0-.2 0-.1-.3.1-.1.5 0 .7.2.3.7.4 1 .3.1-.2.1-.4 0-.3z"/><path class="st1" d="M189.3 10.2c-.1.6.1 1.2.7 1.3.1 0 .1-.1 0-.1-.5-.1-.7-.6-.6-1.1.1-.2-.1-.2-.1-.1z"/><path class="st1" d="M188.1 9.7c.1.7.6 1.1 1.2 1.1.1 0 .1-.1 0-.1-.6 0-1-.4-1.1-1 .1-.1-.1-.1-.1 0z"/><path class="st1" d="M188.6 10.6c-.1.7.2 1.6 1 1.5.1 0 .1-.2 0-.2-.8 0-1-.8-.9-1.4.1 0-.1 0-.1.1z"/><path class="st1" d="M187.2 9.8c0 .8.7 1.4 1.5 1.3.1 0 .1-.2 0-.2-.7 0-1.3-.4-1.3-1.2-.1 0-.3 0-.2.1z"/><path class="st1" d="M187.9 11.1c0 .7.3 1.7 1.1 1.8.1 0 .1-.1 0-.2-.7 0-1-1-1-1.6 0-.1-.1-.1-.1 0z"/><path class="st1" d="M188.1 12.4c-.2.2-.2.6-.2.8.1.3.3.5.6.6.1 0 .1-.1 0-.1-.4-.1-.7-.9-.4-1.2.2-.1.1-.2 0-.1z"/><path class="st1" d="M187.2 10.3c-.4.3-.5.8-.3 1.3s.7.8 1.2.9c.1 0 .1-.1 0-.1-.4-.1-.8-.2-1-.6-.3-.4-.3-1 .2-1.3.1-.1 0-.2-.1-.2z"/><path class="st1" d="M185.9 10.1c0 .3 0 .8.2 1.1.2.2.5.3.8.3.1 0 .1-.1 0-.2-.4 0-.6-.1-.8-.5-.1-.2-.1-.5 0-.7-.1-.1-.2-.1-.2 0z"/><path class="st1" d="M186.8 11.4c-.2.4-.4 1-.1 1.4.2.4.9.6 1.3.5.1 0 .1-.2 0-.2-.4 0-.9-.1-1.2-.5-.3-.4-.1-.9.1-1.3.1.1-.1 0-.1.1z"/><path class="st1" d="M187.3 13.2c-.3.6-.2 1.2.5 1.4.1 0 .1-.1 0-.1-.6-.1-.6-.7-.4-1.1.1-.2 0-.2-.1-.2z"/><path class="st1" d="M186.8 12.9c-.3-.2-.3.5-.3.7.1.4.5.8.9.8.1 0 .1-.1 0-.2-.2 0-.3-.1-.5-.2s-.2-.2-.2-.4c-.1-.2-.1-.4 0-.5.1-.1.2-.2.1-.2z"/><path class="st1" d="M185.9 11c-.2.7-.1 1.8.8 1.9.1 0 .1-.1 0-.2-.9-.1-.9-1.1-.7-1.7.1 0-.1-.1-.1 0z"/><path class="st1" d="M185 10.1c-.1.6 0 1.9.9 1.8.1 0 .1-.2 0-.1-.8.1-.9-1.2-.8-1.7 0 0-.1-.1-.1 0zm.7 1.9c-.3.2-.3.9-.2 1.2.2.4.6.6 1 .6.1 0 .1-.2 0-.1-.5.1-.9-.4-.9-.8 0-.2.1-.6.2-.7.1-.2 0-.3-.1-.2zm1.6 2.2c-.2.3-.3 1 .1 1.1.1 0 .2-.1.1-.1-.4-.2-.2-.7-.1-.9 0-.1-.1-.1-.1-.1z"/><path class="st1" d="M186.5 13.7c-.3.3-.3.9-.1 1.3.2.2.6.5.9.3.1-.1 0-.2-.1-.1-.3.2-.7-.3-.8-.5-.1-.2 0-.6.2-.8.1-.2 0-.3-.1-.2zm-2.6-3.4c.1.7.4 1 1.1 1 .1 0 .1-.2 0-.1-.2 0-.5 0-.6-.1-.2-.2-.3-.5-.3-.7 0-.1-.2-.1-.2-.1z"/><path class="st1" d="M184.9 11.3c-.3.4-.4 1-.3 1.5.1.5.4.6.9.6.1 0 .1-.2 0-.1-1 0-.9-1.2-.5-1.8.1-.2 0-.3-.1-.2z"/><path class="st1" d="M185.4 13.2c-.4.5-.5.8-.2 1.4.3.5.6.5 1.2.5 0 0 .1 0 .1-.1v-.1c0-.1-.2-.1-.1 0 0-.1-.3 0-.4 0-.2 0-.5-.2-.6-.4-.3-.4-.1-.8.2-1.2 0-.1-.2-.2-.2-.1z"/><path class="st1" d="M186.4 15c-.3.1-.2.5-.2.8.1.3.3.6.6.7.1 0 .1-.1 0-.1-.3-.1-.4-.3-.5-.5 0-.1-.1-.6.1-.7.1-.1.1-.3 0-.2z"/><path class="st1" d="M186.2 15.9c-.4.3-.3 1 .2 1.3.1 0 .2-.1.1-.1-.3-.1-.5-.8-.2-1 0-.1-.1-.2-.1-.2z"/><path class="st1" d="M185.2 14.6c-.1.4-.1 1 .2 1.2.2.2.6.3.8.1.1-.1 0-.2-.1-.1-.3.3-.7-.2-.8-.4-.1-.2-.1-.5 0-.8.1-.1-.1-.1-.1 0zm-.6-2c-.2.1-.2.1-.3.3-.1.2-.2.7-.1 1 .1.5.6.6 1 .6.1 0 .1-.1 0-.1-.6 0-.9-.3-.8-1 0-.2 0-.6.3-.7 0 0 0-.1-.1-.1zm-.8-2.2c-.4.3-.4 1-.3 1.4.2.5.5.8 1 .8.1 0 .1-.1 0-.1-.5 0-.8-.3-.9-.8-.1-.3-.1-.9.2-1.1.2-.1.1-.3 0-.2z"/><path class="st1" d="M182.4 10.4c0 .8.3 1.3 1.1 1.2.1 0 .1-.2 0-.2-.4 0-.7.1-.9-.5-.1-.2-.1-.4-.1-.6 0 0-.1 0-.1.1z"/><path class="st1" d="M183.4 11.6c0 .1-.1.3-.2.4-.1.1-.1.3-.1.4 0 .3 0 .5.1.7.2.4.5.5 1 .6.1 0 .1-.1 0-.1-.7-.1-1-.6-.9-1.3.1-.3.2-.4.3-.7 0-.1-.2-.1-.2 0zm.7 2.2c-.4.4-.3 1.3.1 1.6.2.2 1 .5 1.2.2.1-.1-.1-.2-.1-.1s-.4 0-.5 0c-.2-.1-.4-.2-.6-.4-.2-.3-.2-1 .1-1.3 0 0-.1-.1-.2 0z"/><path class="st1" d="M185.2 15.6c-.7.8.3 1.9 1.1 1.8.1 0 .1-.2 0-.1-.3 0-.6 0-.8-.2-.3-.3-.5-.9-.2-1.3 0-.2-.1-.3-.1-.2z"/><path class="st1" d="M185.1 16.9c-.5.6-.1 1.6.6 1.8.1 0 .1-.1 0-.1-.6-.2-1-1-.6-1.6.2-.1.1-.2 0-.1zm-2-3.9c-.3.3-.4.9-.2 1.3.1.4.6.8 1.1.9.1 0 .1-.1 0-.2-.3 0-.7-.3-.9-.7-.2-.3-.1-1.1.2-1.3 0 0-.1-.1-.2 0zm-.7-2.2c-1.3.4-.2 2.2.8 2.1.1 0 .1-.2 0-.1-.8.1-1.8-1.4-.7-1.8 0-.1-.1-.2-.1-.2z"/><path class="st1" d="M182.4 10.8c-.2 0-.9 0-.9-.4 0-.1-.1-.1-.1 0-.1.5.7.7 1.1.6 0-.1 0-.2-.1-.2zm-2-.4c-.4 1 .6 2.2 1.6 1.7.1 0 0-.2-.1-.1-.9.4-1.7-.7-1.4-1.5.1-.1 0-.2-.1-.1z"/><path class="st1" d="M182 12.1c-.5.2-.4 1.1-.3 1.5.1.7.6.8 1.2.7.1 0 .1-.2 0-.1-.4.1-.6.1-.8-.2-.2-.2-.2-.3-.3-.5 0-.3-.1-1 .2-1.1.1-.2.1-.3 0-.3zm1.9 3c-.8.6.1 2.5 1.2 1.9.1 0 0-.2-.1-.1-.9.5-1.7-1.1-1-1.6.1-.1 0-.2-.1-.2z"/><path class="st1" d="M182.9 14.2c-.4.2-.5 1.1-.4 1.4.1.5.7.9 1.2.9.1 0 .1-.2 0-.1-.4 0-.8-.2-1-.6-.1-.3-.1-1.3.2-1.4.1-.1.1-.2 0-.2z"/><path class="st1" d="M183.7 16.5c-.2.2-.2.5-.2.7 0 .4 0 .6.3.8.3.2 1 .6 1.3.1 0-.1-.1-.2-.1-.1-.2.4-.9 0-1.1-.2-.2-.2-.5-1-.1-1.3.1 0 0-.1-.1 0z"/><path class="st1" d="M185.1 18.2c-.9.1-.5 1.3 0 1.7.1 0 .2-.1.1-.1-.4-.2-.8-1.3-.1-1.4.2-.1.1-.2 0-.2z"/><path class="st1" d="M184.7 19.4c-.3.2-.5.4-.5.8-.1.4.2.8.5 1.1.1.1.2 0 .1-.1-.5-.5-.7-1.2 0-1.6 0-.1 0-.3-.1-.2z"/><path class="st1" d="M183.8 18c-.1.4-.1.8.1 1.2.2.3.5.3.8.3.1 0 .1-.2 0-.1-.8 0-.9-.7-.8-1.3.1-.1-.1-.2-.1-.1z"/><path class="st1" d="M182.6 16c-.5.9-.1 2.7 1.2 2.1.1 0 0-.2-.1-.1-1.2.6-1.5-1.1-1-1.9.1-.1-.1-.2-.1-.1zm-.9-2.5c-.6.1-.6.9-.5 1.4.2.6.9 1.1 1.5 1 .1 0 .1-.2 0-.1-.4.1-.9-.3-1.1-.7-.2-.3-.4-1.4.2-1.4 0-.1 0-.2-.1-.2z"/><path class="st1" d="M180.6 11.7c-.3.2-.2.8-.1 1.2.3.7.7.7 1.3.8.1 0 .1-.1 0-.1-.3-.1-.7-.1-1-.3-.3-.2-.7-1.1-.3-1.4.2-.2.2-.3.1-.2z"/><path class="st1" d="M179.3 10.3c0 .4-.1.9.2 1.2.3.3.8.2 1.2.3.1 0 .1-.1 0-.2-.4 0-.9 0-1.2-.3-.2-.3-.1-.7-.1-1 .1-.1-.1-.1-.1 0z"/><path class="st1" d="M179.2 10.8c-.6.1-.5 1-.3 1.3.3.5.9.8 1.6.6.1 0 .1-.2 0-.1-.4.1-.8 0-1.1-.2l-.3-.3c-.1-.2-.3-1 .2-1.1.1 0 0-.2-.1-.2z"/><path class="st1" d="M180.4 12.7c-.5.3-.5 1.4-.4 1.9.2.5.9.8 1.4.6.1 0 .1-.2 0-.1-.2.1-.5 0-.7-.1-.4-.2-.5-.5-.5-.9s0-1.1.4-1.3c0 0-.1-.2-.2-.1z"/><path class="st1" d="M181.3 15.2c-.5.4-.6 1-.3 1.5s.7 1 1.4.8c.1 0 .1-.2 0-.1-.6.2-1-.3-1.2-.8-.3-.5-.2-1 .2-1.3.1-.1 0-.2-.1-.1zm1.1 2.4c-.5.2-.4.8-.1 1.2.2.2.4.5.7.6.4.1.6-.2 1-.2.1 0 .1-.1 0-.1-.4 0-.8.3-1.2 0-.4-.3-.9-1.1-.3-1.4.1 0 0-.2-.1-.1z"/><path class="st1" d="M183.9 19.2c-.4.1-.5.4-.5.8 0 .5.4.7.8.9.1 0 .2-.1.1-.1-.2-.1-.5-.2-.6-.4-.2-.2-.2-1 .2-1.1.1 0 .1-.1 0-.1zm-4.6-8.5c-.3-.1-1.1-.1-1.1-.6 0-.1-.1-.1-.2 0 0 .6.8.7 1.2.8.2 0 .2-.1.1-.2z"/><path class="st1" d="M178 10.1c-.6.1-.7.9-.5 1.4.3.7.9.8 1.6.8.1 0 .1-.1 0-.1-.5 0-.9-.1-1.2-.4-.3-.3-.6-1.4.1-1.5.1-.1.1-.3 0-.2z"/><path class="st1" d="M179 12.1c-.5.2-.5 1.1-.4 1.5.2.6.8 1 1.4 1 .1 0 .1-.2 0-.1-.6 0-1.1-.3-1.3-.8-.1-.4-.2-1.2.3-1.4.1-.1.1-.2 0-.2z"/><path class="st1" d="M180 14.5c-.5.2-.5 1-.3 1.5.2.6.8.8 1.4.7.1 0 .1-.2 0-.1-.5.1-1-.2-1.2-.6-.1-.3-.2-1.1.2-1.3 0-.1 0-.2-.1-.2zm-3.6-4.8c-.3.8.2 1.6 1.1 1.6.1 0 .1-.1 0-.2-.8 0-1.2-.7-1-1.4.1 0-.1-.1-.1 0zm1 1.6c-.5.1-.4 1.2-.2 1.5.2.5.9 1.1 1.5.7.1 0 0-.2-.1-.1-.5.3-1.1-.3-1.2-.7-.1-.3-.3-1.2.1-1.3.1.1 0-.1-.1-.1z"/><path class="st1" d="M178.5 13.6c-1 .8-.1 2.7 1.1 2.4.1 0 .1-.2 0-.1-1.1.2-1.9-1.4-1-2.1.1-.1 0-.2-.1-.2zm2.5 3.1c-.5.5-.4 1.1 0 1.6.3.5.9.9 1.4.5.1-.1 0-.2-.1-.1-.6.4-1.1-.1-1.3-.6-.3-.5-.3-.9.1-1.3.1-.1 0-.2-.1-.1z"/><path class="st1" d="M182.3 18.9c-1 1 .3 2.5 1.5 1.7.1-.1 0-.2-.1-.1-1 .7-2.2-.6-1.3-1.5 0 0-.1-.2-.1-.1z"/><path class="st1" d="M183.7 20.6c-.7.5-.3 1.7.5 1.9.1 0 .1-.1 0-.1-.6-.1-1-1.2-.5-1.6.1-.1.1-.3 0-.2z"/><path class="st1" d="M183.6 22.1c-.4.3-.4 1.4.3 1.4.1 0 .1-.2 0-.1-.6 0-.5-.9-.2-1.1.1-.1 0-.2-.1-.2z"/><path class="st1" d="M182.2 20.5c-.3.6-.2 1.2.3 1.7.3.3.9.4 1.2.1.1-.1 0-.2-.1-.1-.4.3-1 0-1.2-.4-.2-.4-.2-.8 0-1.2-.1-.1-.2-.2-.2-.1zm-2.6-4.5c-.3.5-.4 1.1 0 1.7.3.5.8.7 1.4.5.1 0 0-.2 0-.1-.5.2-1.1-.1-1.3-.6-.2-.4-.1-.9.1-1.3 0-.2-.1-.3-.2-.2z"/><path class="st1" d="M180.8 18.3c.1 0 .1-.2 0-.2s-.1.2 0 .2z"/><path class="st1" d="M180.8 18.3c.1 0 .1-.2 0-.2s-.1.2 0 .2z"/><path class="st1" d="M180.7 18.1c-.8 1 .1 2.5 1.4 2.2.1 0 .1-.2 0-.1-1.1.3-1.9-1.1-1.2-2 0 0-.1-.1-.2-.1zm-5.3-8.6c-.2.7.3 1.3 1 1.2.1 0 .1-.2 0-.1-.6.1-1-.4-.9-1 0-.2-.1-.2-.1-.1z"/><path class="st1" d="M176.3 10.6c-.4.4-.5 1-.3 1.5.2.4.7.8 1.2.7.1 0 .1-.2 0-.1-.5.2-.9-.3-1.1-.7-.1-.4 0-.9.3-1.2 0-.2-.1-.3-.1-.2z"/><path class="st1" d="M177 12.6c-.4.5-.5 1.1-.2 1.7.2.6.7.8 1.4.8.1 0 .1-.1 0-.2-.6 0-1.1-.3-1.3-.9-.1-.5 0-1 .3-1.4 0 0-.1-.1-.2 0z"/><path class="st1" d="M178.1 15.1c-.3.5-.4 1.2-.2 1.7.3.6.9.7 1.6.7.1 0 .1-.1 0-.1-.6 0-1.2-.1-1.4-.7-.2-.5-.1-1.1.2-1.5 0-.1-.1-.2-.2-.1z"/><path class="st1" d="M179.5 17.4c-.8 1.1-.2 2.6 1.2 2.6.1 0 .1-.1 0-.1-1.2-.1-1.8-1.4-1.1-2.4.1-.1-.1-.2-.1-.1z"/><path class="st1" d="M180.7 19.9c-.4.6-.4 1.4 0 2 .2.2.4.3.7.3.3 0 .7.1 1-.1.1-.1 0-.2-.1-.1-.2.1-.5.1-.7.1-.4 0-.6 0-.8-.4-.3-.5-.4-1.2 0-1.7.1 0 0-.1-.1-.1z"/><path class="st1" d="M182.3 22c-.7 1 0 2.7 1.3 2.4.1 0 .1-.2 0-.1-1.2.2-1.8-1.3-1.2-2.2.1-.1 0-.2-.1-.1z"/><path class="st1" d="M174.6 9.2c.3 3.5 1.9 6.5 3.4 9.7 1 2.1 2.8 6.1 5.2 6.9.1 0 .1-.1 0-.1-2.4-.8-4.3-5.1-5.3-7.2-1.4-3-2.9-5.8-3.2-9.1.1-.3-.1-.3-.1-.2zm8.7 16.6c-1.8 0-3.1 1-3.9 2.6-.6 1.1-.6 2.7.3 3.7.1.1.2 0 .1-.1-.9-1.1-.7-2.8 0-3.9.8-1.4 2-2.1 3.6-2.2 0 0 0-.1-.1-.1z"/><path class="st1" d="M182.3 25c-3.6-.7-4.7 4.8-3.7 7.3 0 .1.2 0 .1-.1-1-2.2.1-7.7 3.5-7 .1 0 .2-.1.1-.2z"/><path class="st1" d="M178.7 20.5c-1.4 1.9-1.2 4.4.4 6 .1.1.2 0 .1-.1-1.6-1.6-1.8-4-.4-5.8.1-.1 0-.1-.1-.1z"/><path class="st1" d="M178.5 19.5c-1.4.4-1.7 2.3-1.8 3.5-.1 1.9.8 3 2.2 4.2.1.1.2 0 .1-.1-.9-.8-1.8-1.6-2.1-2.8-.3-1.2 0-4.3 1.6-4.7.1 0 .1-.1 0-.1z"/><path class="st1" d="M178.7 27c-1.9-.7-3.9.6-5.3 1.9-.4.4-2.2 3.1-1.3 3.5.1 0 .2-.1.1-.1-.5-.2.5-2.2.7-2.4.4-.7 1-1.1 1.6-1.6 1.2-.9 2.6-1.6 4.1-1.1.2 0 .2-.1.1-.2z"/><path class="st1" d="M178.5 28c-1.4-.3-2.6.1-3.7.9s-1.5 2.1-1.9 3.3c0 .1.1.1.1 0 .4-1.1.7-2.2 1.6-3 1-1 2.5-1.5 3.8-1.1.2 0 .2-.1.1-.1zm-1.8-5c-1.3 0-2 1.5-2.5 2.5-.4.9-.7 2.1.1 2.9.1.1.2 0 .1-.1-1.3-1.3.6-5.1 2.3-5.1.1-.1.1-.2 0-.2z"/><path class="st1" d="M177 21.7c-1.4-.4-2.8 1.2-3.3 2.3-.7 1.5-1.1 3.3-.3 4.9 0 .1.2 0 .1-.1-.7-1.3-.4-2.6 0-3.9.4-1.2 1.7-3.6 3.5-3.1v-.1z"/><path class="st1" d="M176.9 16.4c-1.4-.1-2.4.9-2.8 2.1-.5 1.4-.7 3.3 0 4.6.1.1.2 0 .1-.1-1.2-2-.1-6.8 2.7-6.5.1 0 .1-.1 0-.1z"/><path class="st1" d="M176.4 15.2c-1.6-.1-2.9 1.3-3.3 2.8-.6 2.1-.7 4.2.6 6 .1.1.2 0 .1-.1-1.1-1.5-1.1-2.9-.8-4.7.3-1.8 1.2-3.9 3.4-3.8.1-.1.1-.2 0-.2z"/><path class="st1" d="M173.7 23.8c-1.9-.2-3.2 2.1-3.7 3.7-.5 1.7.3 3.8 1.7 4.9.1.1.2-.1.1-.1-1.4-1-2.1-3.1-1.6-4.7.4-1.4 1.7-3.8 3.5-3.6.1 0 .1-.2 0-.2z"/><path class="st1" d="M173 25.6c-1.2.1-1.6 1.2-1.8 2.3-.3 1.3.1 2.4 1 3.4.1.1.2 0 .1-.1-.6-.7-1.1-1.5-1.1-2.5 0-1.1.4-2.8 1.7-3 .2.1.2-.1.1-.1zm-3.1 2.1c-2.2.6-3.7 2.4-4 4.7 0 .1.1.1.1 0 .2-2.2 1.7-4 3.9-4.5.1-.1.1-.2 0-.2z"/><path class="st1" d="M170.4 26.7c-1.3-.9-2.8.2-3.8 1.1-1.4 1.2-2.2 2.9-2.4 4.7 0 .1.1.1.1 0 .1-1.5.7-2.9 1.8-4.1.9-1 2.8-2.6 4.2-1.6.1.1.2-.1.1-.1z"/><path class="st1" d="M172.7 20.5c-1.4.3-2.7.9-3.6 2-.9 1.1-.9 2.7-.9 4 0 .1.1.1.1 0 .1-1.4.1-3.1 1.1-4.1.9-.9 2.1-1.5 3.3-1.7.2-.1.1-.2 0-.2z"/><path class="st1" d="M172.7 19.5c-1.6-.3-3.1.4-4.1 1.6-1.6 1.9-1.9 3.9-1.8 6.4 0 .1.2.1.1 0 0-2.1.1-3.8 1.3-5.6 1.1-1.5 2.4-2.6 4.4-2.3.2.1.2-.1.1-.1zm-5.9 8.1c-1.2-.6-3.4-.4-4.1.8 0 .1.1.2.1.1.7-1.1 2.8-1.3 3.9-.7.1 0 .2-.1.1-.2zm-1.2 1.3c-1.1-.2-2.1 0-2.9.7-.1.1 0 .2.1.1.8-.7 1.7-.9 2.7-.7.2 0 .2-.1.1-.1z"/><path class="st1" d="M175.1 15.5c-3.2-2.3-7.3 1.2-5.4 4.7 0 .1.2 0 .1-.1-1.7-3.4 2.1-6.7 5.2-4.5.1.1.2 0 .1-.1z"/><path class="st1" d="M173.9 16.3c-1-.2-2 .2-2.8.9-.8.6-.8 1.7-.8 2.6 0 .1.2.1.2 0 0-1 .1-1.9.9-2.6.7-.5 1.6-.9 2.5-.7 0-.1.1-.2 0-.2zm-4.3 3.8c-1.8-.6-4.6-.7-5.8 1.1-.1.1.1.2.1.1 1.2-1.7 3.9-1.5 5.6-1 .2 0 .2-.1.1-.2zm-1.3 1.4c-1.6-.3-4.2.5-4.8 2.2 0 .1.1.1.1 0 .5-1.6 3.1-2.3 4.6-2.1.1.1.2-.1.1-.1zm6.7-10.7c-1.2-.5-2.6-.1-3.5.8-.9 1-1.1 2.5-.9 3.8 0 .1.2.1.1 0-.2-1.3 0-2.7.9-3.7.8-.9 2.2-1.3 3.3-.8.1.1.2 0 .1-.1zm.5 2.4c-.4.2-.6.5-.7 1-.1.4-.2.9 0 1.2 0 .1.2 0 .1-.1-.1-.2 0-.8 0-1 .1-.4.3-.7.6-.9.2-.1.1-.3 0-.2z"/><path class="st1" d="M175.1 11.8c-.9-.4-1.8.1-2.4.6-.8.7-1.2 1.5-1 2.5 0 .1.2.1.1 0-.2-.9.2-1.6.8-2.2.6-.6 1.5-1.1 2.4-.8.1.1.2 0 .1-.1zm-4.5 3.7c-.7-.6-1.4-1.2-2.4-1-1 .3-2 .9-2.7 1.7-.6.7-.9 1.6-.7 2.5.1.4.3 1.5.8 1.5.1 0 .1-.2 0-.1-.3 0-.5-.8-.6-1-.1-.5-.2-.9-.1-1.3.2-.9.7-1.5 1.4-2 .4-.3.7-.5 1.1-.7.7-.4 1.1-.5 1.8-.1.5.2.7.4 1.1.7.3-.1.4-.2.3-.2z"/><path class="st1" d="M170 16.3c-1-.5-2.5-.6-3.4.3-.8.8-.9 2.3-.4 3.2.1.1.2 0 .1-.1-.5-.9-.4-2.2.3-3 .8-.9 2.3-.8 3.2-.4.2.2.3 0 .2 0zm-4.7 3.6c-.3-.2-.7-.4-1.1-.4-.1 0-.1.1 0 .2.4 0 .7.1 1 .4.1 0 .2-.1.1-.2zm1.8-5.1c-.3-.4-.8-.8-1.4-.6-.1 0-.1.2 0 .1.5-.1.9.2 1.2.6.2 0 .3-.1.2-.1zm-.6.4c-.2-.3-.5-.4-.9-.4-.1 0-.1.2 0 .1.3-.1.5 0 .7.3.1.2.2.1.2 0zm5.3-4c-.7-.5-2.1-.7-2.9-.2-.5.3-1.1 1.1-1.4 1.6-.4.7-.5 1.3-.4 2.1 0 .1.2.1.1 0-.1-.7-.1-1.3.3-1.9.3-.5.8-1.1 1.2-1.4.7-.7 2.2-.6 3 0 .1 0 .2-.1.1-.2z"/><path class="st1" d="M171.2 12c-1.7-.6-3.4.6-3.3 2.4 0 .1.2.1.1 0-.1-1.7 1.5-2.8 3.1-2.2.2 0 .2-.2.1-.2zm-2.2-1.2c-.6-.2-1.2-.2-1.8.1-.1 0 0 .2.1.1.6-.2 1.1-.3 1.7-.1 0 .1.1 0 0-.1zm-.6.6c-.5 0-1.1-.2-1.4.3 0 .1.1.2.1.1.2-.4.9-.3 1.3-.2.1-.1.1-.2 0-.2zm4.3-3.3c-.9.5-1.1 2.1-.8 3 0 .1.2.1.1 0-.3-.8-.1-2.4.7-2.8.2-.2.1-.3 0-.2zm.6.4c-.2.3-.5.7-.6 1.1-.1.4 0 .9 0 1.4 0 .1.2.1.2 0 0-.4-.1-.8-.1-1.2.1-.5.4-.8.6-1.2.1-.1 0-.2-.1-.1z"/><path class="st1" d="M169.1 10.9c-.3-.8-.3-2.3.5-2.9.8-.6 2.2-.4 3 .2.1.1.2-.1.1-.1-.7-.5-2.2-.9-3-.3-.9.6-1 2.2-.7 3.1 0 .1.1.1.1 0z"/><path class="st1" d="M172.2 8.5c-.7-.2-1.4-.2-1.8.4-.2.2-.4.5-.5.8-.1.4-.1.9-.1 1.3 0 .1.2.1.1 0v-.8c0-.4.2-.6.4-1 .2-.3.4-.6.8-.6.3 0 .7 0 1 .1.2 0 .2-.2.1-.2zm-3.1-.3c-.2-.1-.4-.1-.6-.1-.1 0-.1.2 0 .1.2 0 .3 0 .5.1s.2 0 .1-.1zm0-.8c0 .3 0 .5.2.8 0 .1.2 0 .1 0-.1-.2-.1-.5-.2-.7 0-.1-.1-.2-.1-.1zm-.3 1.7c-.2-.1-.4 0-.6.1-.1 0-.1.2 0 .1.2-.1.4-.1.6-.1.1.1.1-.1 0-.1zm1.2-3c-.1.4-.3 1.2.2 1.4.1 0 .2-.1.1-.1-.4-.2-.2-1-.1-1.3 0-.1-.2-.1-.2 0zm23.5 5.6v.1c0 .1.1.1.1 0v-.1c0-.1-.1-.1-.1 0zm.2 1.7c.1.1.2 0 .2 0l-.1-.1c-.1-.1-.2 0-.1.1zm.6 1.8c.1 0 .1-.1 0-.1-.1-.1-.1.1 0 .1zm.6 1.7c.1 0 .1-.1 0-.1-.1-.1-.1.1 0 .1zm.7 1.2c-.2 0-.2.2-.1.2h.1c.1 0 .1-.2 0-.2zm.6 1.5c.1 0 .1-.1 0-.1s-.1.1 0 .1zm.8 1.5c.1 0 .1-.1 0-.1s-.1.1 0 .1zm.8 1.4c.1 0 .1-.2 0-.2v.2zm.9 1.3c0 .2.2.2.2.1v-.1c0-.1-.2-.1-.2 0zm1.2 1.6c.1 0 .1-.1 0-.1-.1-.1-.1.1 0 .1zm1 1.6c.1 0 .1-.1 0-.1v.1zm.9 1.3c.1 0 .1 0 0 0 .2 0 .2-.1.1-.1h-.1c-.1-.1-.1.1 0 .1zm1 1.1c.1 0 .1-.2 0-.2-.1.1-.1.2 0 .2zm1.1 1c.1 0 .1-.1 0-.1-.1-.1-.1.1 0 .1zm1.2.8c0 .2.1.2.1.1v-.1c.1-.1-.1-.1-.1 0z"/></svg>