<svg id="Слой_1" xmlns="http://www.w3.org/2000/svg" viewBox="-10 136.3 590.4 520.7"><style>.st0{fill:#fff}</style><path class="st0" d="M489.4 416.6c-.2.6-.3 1.3-.4 2s-.1 1.4-.1 2.1c.1-.7.3-1.3.4-2 .1-.7.1-1.4.1-2.1zm.4 4c-.1 1.4-.7 2.6-.6 4.1.2-1.4.8-2.6.6-4.1zm-3 10.3c-.5 1.4-.2 1.5-.5 3.7.3-.7.4-1.4.7-2.1 0-1-.2-.6-.2-1.6zm-16.6 36.5l-.9 1.5c0 1-.5 1.7-.6 2.7.8-1.3 1.3-2.7 1.5-4.2zm18.5-39.1c-.2-.8-.8 2.2-.7 3.1.3.1.3-1 .7-2.1-.1-.2-.2-.4 0-1zM468 473.1c-.5 1.6-.8 1.5-1.4 2.2 0 .8.4.6 1-.3.2-.7.3-1.3.4-1.9zm13.1-19c-.1-.7-1.1 2.4-1 3.5.7-1 .4-2.5 1-3.5zm-20.1 34c-.3.6-.7 1.8-.6 1.1-.5.7-.5 1.8-.8 2.6-.6.4-1.3 1.7-2.2 3.2.6.4-.9 3-1.8 5.2.6-1.2 1.2-2.4 2-3.3-.4-.3.2-.8.8-2.7.1 0 .3-.1.6-.6.3-1.2.8-2.3 1.5-3.2.4-1 .7-2.1.5-2.3zm18.2-28.5c-.3.5-.5 1-.8 1.6.1.1.2.7-.2 1.4.1.8 1.1-2 1-3zm.6 6.6c-.5 1.2-.9 2.6-1.1 4 .5-1.3 1.4-3.8 1.1-4zm-38 52.8c-.9.9-2 2.8-1.8 3 .7-1 1.4-1.9 1.8-3zm33.2-40c-.6 1.4-1.5 2.5-1.7 4.2.7-1.3 1.3-2.7 1.7-4.2zm-25.5 38.7c-1.2 1.5-.8 1.6-1.9 3.7.3-.5.7-1 1.1-1.4-.1-1 1.5-2.5.8-2.3zm20.4-23.6c0 .7 1.4-2.3 2.1-2.9.2-1.5-1.4 1.8-2.1 2.9zm-7.7 13.9c-.7 1.4-1.6 2.6-2.1 4.1.5-.7 1-1.5 1.5-2.3s.9-1.6 1.4-2.3c.6-1.4-1.4 2.1-.8.5zm-35.4 34.8c0-.8-1.8 1.9-2.4 2.5-.1.8 1.8-1.8 2.4-2.5zm-1 3.8c.9-.5 1.3-1.7 2.2-2.1.4-.8.2-1-.4-.6-.5 1.3-2 2.4-1.8 2.7zm-20.4 13.9c-1.3.9-2.5 1.9-3.5 3.2 1.2-1 2.4-2 3.5-3.2zm65.9-59.4c-.7.6-.9 1.6-1.6 2.3-.6 1.6.1.7 1-.4.2-.6.4-1.3.6-1.9zm-7.4 9.7c-.9.8-1.4 1.9-2.1 3-.2.6 1.9-1.9 2.1-3zm2.7-1.2c-.2.2-.3.5-.4.8-1 1.5-2 3.1-2.9 4.7s-1.9 3.2-2.9 4.7c-.8 2 0 1.1-.3 2.2 1.3-1.6.6-1.6 1.5-3 1.1-1.4.6-.2 1.5-1.7-.3-.4 1.1-2.6 1.7-4.1.8-.7 1.3-1.7 1.9-2.6.7-1.8-1 1-.1-1zm-55.8 51.8c.7-.5-1.1 1.4-1.5 1.7-.4 1 1.2-1.2 1.7-1.3 1.2-1.4.3-.8.7-1.4-.9.7-1.8 1.4-2.8 2.1-.7 1 1-.3 1.9-1.1zm75.8-76.9c-.8 1.4-1.7 2.6-1.9 4.4.6-1.4 1.5-2.7 1.9-4.4zm.7 0c0-.9-1.2 2.1-1.3 3.1.8-.8.8-2.2 1.3-3.1zm-3.1 5.8c-.3 1.3 0 .9-.1 1.7.4-.7.6-1.5 1-2.2.1-.7-.4-.2-.9.5zM407 565.1c-.1-.3-.7.3-1.5 1s-1.7 1.5-2.3 1.8c-.7 1.4 2.8-1.6 3.8-2.8zm88.2-88.3c-.6 1.4-1.1 3.6-1.6 6.4.6-2.1 1.3-4.1 1.6-6.4zM394 575.5c.1.3 2.1-.8 2.9-1.8-.1-.3-2.1.6-2.9 1.8zm75.5-60.6c-1 1.1-3.6 6-1.9 4 .4-1.5 1.3-2.6 1.9-4zm-21.7 23.6c-.2 0-1 .8-1.8 1.9-.8 1.1-1.7 2.4-2.1 3.3.7-.7.5-.2.2.3.8-.7 1.4-1.7 2-2.7.5-1 1-2.1 1.7-2.8zm35.3-38.9c-1.1 1.5-2 3.3-2.6 5.2.8-1.8 2.1-3.2 2.6-5.2zm-95.8 80.7c-.6.4-1.1.7-.8.3-2.1 2-4.6 3-6.8 5 3.4-2.3 5.4-2.5 7.6-5.3zm71-47.8c-.9.6-1.1 2-1.7 3 .4-.5.8-1 1.2-1.4-.1-.2.1-.8.5-1.6zM379 586.2c.7-.9-1.1.7-1.6.6.9 0-1.3.8-2.5 2 1-.1 1.6-1.4 2.6-1.5.6-.4 1-.8 1.5-1.1zm-4.5 2.7c-2.4 1.4-3.2 1.1-5 2.6 2.4-1.2-.4 1 1.8-.1-.1-.6 2.1-1.5 3.2-2.5zm85.5-52.3c-1.4 1.8-3.1 4.5-1.6 3.2.9-1.7 1.4-2.3 1.6-3.2zm-98.3 59.9c-.8.2-1.6.7-2.3 1.1-.8.5-1.5.9-2.3 1.2-.8.2 0-.5 1-1.2-2.8 1.1-2.4 1.9-6.1 3.6.9 0 .9-.2 2.5-.7 1.6-1.2-.6.2-1.3.2 2.7-1.5 5.8-2.3 8.5-4.2zm42.2-14.3c-1.7 1-3.3 2.8-3.8 3.5 1.5-1.2 3.4-2.5 3.8-3.5zm25.3-15c-1.2 1.2-.4.3-1.5 1.1-.5.8 0 .6 0 .9.5-.6 1-1.3 1.5-2zm-33.3 27.4c-1.7 1.1-3.4 2.2-4.9 3.8 1.5-1.3 4.7-3.1 4.9-3.8zm27.7-9.6c-.9.6-1.8 1.4-2.7 2-1.2 1.3 2.2-1.4 1-.2.7-.4 1.1-1.1 1.7-1.8zm20.6-13.9c-1.5 1.3-2.8 2.9-4 4.6 1.3-1.5 4-4 4-4.6zm-91 45.5c-.6.1-1.2.3-1.8.4-.1.2-.2.4-.8.5-.7.7 2-.3 2.6-.9zm62.3-22.2c-.9.6-1.7 1.2-2.6 1.9-.8.6-1.7 1.3-2.6 1.7-.6.7.4.2.6.3-1 1-2.8 2-2.6 2.4 1-.6 1.7-1.7 2.8-2 .2-.6.9-1.1 1.8-1.8.8-.8 1.8-1.5 2.6-2.5zm-70.1 27.8c-.7.3-1.5.4-2.2.8-1.4.8.1.6 1.4.1 1.9-1-1.1.1.8-.9zm47.1-10.5c-.3-.3-5.8 3-5.9 3.7 2-1.4 3.9-2.8 5.9-3.7zm4.7.4c-1.4.7-2.8 1.6-4.1 2.9 1.3-1 2.8-1.6 4.1-2.9zm-26.3 10.7c-1.5.7-3 1.2-4.4 2.2 1.5-.7 3-1.3 4.4-2.2zm-16 6.9c-1.1.3-2.1 1-3.1 1.3-.4.4.8 0 1.4-.2.6-.3 1.1-.7 1.7-1.1zm-6.7 3.2c-1.3.2-2.4.9-3.7 1.2-.5.4 2.8-.4 3.7-1.2zm-67.3 5.4c-.5.1-.3.1 0 .2-.6.2-1.2.1-1.8 0-1.1.2-.6.7-2.4.7-1.6.5 2.5-.2.9.2 1.4-.1 5.8-1 3.3-1.1zm-5.2 1.2c-.6-.1-1.2 0-1.9.2-.7-.1-1.4-.1-.9-.3-.8 0-1.6.2-2.4.4.8.1 1.5.2 2.3.3 1.1-.3 2-.2 2.9-.6zm-10.3-.8c-1.2 0-2.5.2-3.7.4 1.1.3 2.4 0 3.7-.4zm57.4 1.9c-2 .5-1.8 1-.9 1 2.3-.7.5-.7.9-1zm3.7-.1c-2.4.7-6 1.3-7.1 2.3 2.4-.9 4.8-.9 7.1-2.3zm-7 1.1c-1.6.5-3.1.8-4.7 1.5 1.6-.3 3.1-.9 4.7-1.1.4-.3-.6-.2 0-.4zm-8 .6c-4.1 1.1-5.1 1-2.4 1.3 2-.7 1.8-.9 2.4-1.3zm-60.1-2.9c-1.5-.2-3-.2-4.6 0 1.5.2 3 .4 4.6 0zm-22.4-1.7c-2.2 0-4.3-.1-6.1-.2-1.8-.2-3.4-.3-4.8-.2l5.1.6c1.7.1 3.4.2 5.2.2.4.2-.5.2-1 .3 3 .5 3.3-.2 1.6-.7zm53.8 10.7c-2.5.1-1 .8-2.5.7-.1.6 3.3-.6 2.5-.7zm-2.4.5c-1.4.1-2.9.2-4.4.8 1.4-.1 2.9-.3 4.4-.8zm-72.8-13.3c-.6-.2-1.1-.4-1.7-.7-.9 0-.5.2-1.6.1 1.2.2 2.2.6 3.3.6zm40.9 13c-.8.2.4.4-1.6.5h1.7c.5-.1 1-.1 1.3-.2.5-.2.4-.3-1.4-.3zm-69.5-2.4c-2.1-1.1-4.2-1.1-4.5-.9 1.4.4 2.9.7 4.5.9zm-46.3-18.4c-1.7-1.2-2-.5-4-2-.7-.7 1.8.7 2.5.8-1.6-1.1-3.3-1.7-4.2-1.7 1.1.6 1.5.9 1.5 1.2-1.1-.3-2-.9-2.9-1.4s-1.8-1.1-2.9-1.4c1 .6 2.1 1.1 2.8 1.9 2.8 1 4.9 2.3 6.1 3.2.3-.3-1.5-1.6 1.1-.6zm-16.5-8.9c-.5-.4-1-.8-1.4-1.2-1.9-.7-1.8-.9-2.9-1.2 1.3 1.2 4.2 2 2.4 1.7.9.7 1.7.7 1.9.7zm-6-4.2c-.1.2-1.7-.6-3-1.1l1 1c.5.2.9.5 1.3.8.3-.2-.3-.4 1.6.5-.6-.7-.1-.5-.9-1.2zm-6.3-4.6c-1.6-.7-2.7-1.9-4.3-2.6 1.6 1.4 3.6 2.4 5 3.8 1.1.3-.4-.5-.7-1.2zm-7.1-4c1.3.7 1.9.9.9-.1-.6-.4-1.1-.7-1.7-1-.1.1.2.5.8 1.1zm-1-1c-.7-.6-.1-.4-.9-1.1-.9-.5-.7 0-1.4-.7-.5-.2.4.7.8 1.1.6.2 1.1.5 1.5.7zm-2.9-1.3c.3.1-2.2-2.6-3.6-3.3 1.2 1.1 2.2 2.4 3.6 3.3zm-21.1-19c-1.1-.6-1.8-1.5-2.9-2.2.5 1 1.7 1.6 2.3 2.5.9.6 1.9 1.2.6-.3zm-11-10.6c-.7-1.1-1.6-2-2.7-2.9l1 1.6c.6.4 1.2.8 1.7 1.3zm-6.2-7c-1.2-1.5-2.5-3-3.7-4.6-1.2-1.1 1.6 2.5.4 1.4.7 1 .8.7 1.2 1 .8.8 1.1 1.6 2.1 2.2zm-5-4.4c-.6-.9-1.7-1.7-2.3-2.6-.1.3.7 1.4 1.8 2.8.7.6-.5-1.1.5-.2zm-5.9-9.4c-1.1-1.1-2-2.2-2.9-3.4-.8-1.2-1.5-2.5-2.4-3.7-1.6-1.4 1.5 3.2 1.9 4.4.7.2.3-.4 2.5 2.1.9 1.8.5 1.7 2.1 3.7.8.1.1-.9-1.2-3.1z"/><path class="st0" d="M42.4 553.3c-1.2-1.7-2.7-3.3-3.7-5.2-.1.1.4 1.1 1.2 2.2.7 1.2 1.7 2.4 2.5 3zm-6.5-8.2c-.3-.7-.9-1.4-1.2-2.1-1-1 .2 1.2-1-.1.5.8 1.2 1.6 1.9 2.4-1-1.9-1.2-1.8.3-.2zm-8-11.9c-.2-.8-.7-1.4-1.1-2.2 0 .4-.8-.6-.3.6.4.1.5.6 1.4 1.6zm-36-162.3c.2-1.2.3-2.4.4-3.6.1-1.2.1-2.5.2-3.8-.4 2.1-1 4-1.2 6.1.2.8.4.8.6 1.3zm7.5-47.3c.6-.9.6-2.2 1-3.2.1-.8-1.1 2.2-1 3.2zm18.8-46c.3.2 2.2-3.5 2.7-5.2-1 1.6-1.8 3.5-2.7 5.2zm12-20.6c1.1-2.1 3.4-5.7 3.6-6.6-1.2 1.9-3.5 5.5-3.6 6.6zm28.9-38.4c1.4-1.1 2.5-2.6 3.8-3.8-.1-.3-3 2.4-3.8 3.8zm38.6-32.3c.1-.3.9-1.1 1-1.4-.8.5-1.6 1.1-2.3 1.8.8-.4.4 0 1.3-.4zm152.7-19.7c3.4.4 7.1-.3 10.4.1-1.5-.8-7.2-.3-10.4-.1zm11-.2c1.4.4 2.8.4 4.4.2-1.5-.1-2.9-.2-4.4-.2zm-82.1-20.8c.4-.3.4-.4-.5-.3 1.6-.4 2.6-.7 3.6-1 .5-.2 1.1-.3 1.7-.5.6-.2 1.4-.4 2.3-.6-.8.1-1.6.3-2.4.4l-2.4.6c-1.6.4-3.1.9-4.7 1.5 1.8-.4 1.3 0 2.4-.1zm15.1-2.4c-.1-.2 2.1-1 .5-.9-1.9.4-2 1-.5.9zm-4.2-.7c-.5.3.8.1 1.4.1 1.3-.5 1.8-.7 1.9-1-1 .1-2.2.9-3.3.9zm116.2-1.4c1.7.6 2.6.4 3.6.4-.9-.3-1.9-.4-3-.5.5.2-.3.1-.6.1zm7.8.8c1.2.5 3.1.5 3.1.4-2-.6-3-.7-3.1-.4zm8.2 2.9c1 .3 2 .7 3 1s2 .7 3.1 1c2.1.6 4.1 1.3 6.2 1.9-.7-.7 1.8.3 3.6.6-2.8-1-5.2-1.6-7.7-2.3-1.2-.3-2.5-.7-3.8-1.1-1.4-.4-2.8-.6-4.4-1.1zm14.2 4.4c1.6.7 3.5 1.2 5.2 1.7-1.6-.7-3.2-1.5-5.2-1.7zm7.1 2.5c1.8.7 3.5 1.6 5.5 2.2-.2-.3-3.5-1.8-5.5-2.2zm4.6 2.5c1.1.5 1.9.8 2.5 1.2.6.4 1.1.7 1.8 1.1 1.4.3 2.4.7 1.4-.3-.4.2-1.3-.2-2.4-.7-1.1-.5-2.3-1.1-3.3-1.3zm5.8-2.6c-.8.1 2.6 1.4 3.6 1.7-.6-.5-1.4-.8-2.1-1.3-.9-.3-.6.1-1.5-.4zm18.8 12.8c-.5-.2-.3 0-.1.1.3.2.5.4.7.6 1.4.4 5.6 3.2 8.6 4.3-.5-.4-.5-.5-.2-.4-2.2-1-4.1-2.2-6.4-3.1-1.9-1.6 1.2.3 1.4 0-.8-.8-2.4-.8-3.2-1.6-.8-.3 1.4 1.6-.8.1zm-10.5-9.2c2.8 1.4 5.7 2.9 8.8 4-2.8-1.4-5.8-2.7-8.8-4zm21.8 15.5c1.4.9.9 1.3 2.9 2.5-.5-.7 0-.6 2.2.6-1.5-1.2-3.3-2.2-5.1-3.1zm3.4 1.4c1.8 1.4 4 2.4 6.1 3.6-2.8-2-3.5-2.1-6.1-3.6zm18.4 12.8c.6.3-.8-1 0-.6-2.6-2-6-3.4-8.3-5.6-.8.6 5.9 4 8.3 6.2zm-8.9-7c2.6 2.2 5.9 3.9 8.9 5.7-2.6-2.2-5.9-3.9-8.9-5.7zm7.5 3.7c-.3.1.4.6 1.4 1.2s2.1 1.4 2.7 1.7c-1.1-1.1-2.8-1.8-4.1-2.9zm1.2 1.5c2.1 1.8 4.1 3.7 6.8 5.1-2.5-1.5-4.2-3.6-6.8-5.1zm10.8 9.4c-1.9-2.2 1.1-.1 2.4 1.3.7 1.1-1.3-.5-2.4-1.3.6 1.1 2.1 1.6 2.8 2.7 1.3.2 7 3.9 9.4 6 .2-.2-1.1-1.3-2.6-2.4-1.5-1-3.1-1.9-3.3-1.9.2-.5-2.8-2.6-1.4-2-1.6-1.1-3.2-2-4.9-3.1-1.7-1.1-3.7-2.1-6-3.4.8.8 1.7 1.5 2.7 2.2 1.1.7 2.2 1.3 3.3 1.9zm10.8 8.5c-.5-.3.4.7.7 1.3 1 .9 2.3 1.6 3.2 2.6.3.1-.2-.6.7.1-.7-.7-1.3-1.4-2-2.2-1.2-.8-.9.2-2.6-1.8zm3.6 4.5c1.1 1 3.8 3.3 2.3 1.4-1.5-1.2-1.2-.7-2.3-1.4zm3.1 1.5c-.5-.2-.1.2.4.7s1.2 1.3 1.3 1.6c.6.2.2-.3 1.8 1.2-.8-1.3-2.3-2.3-3.5-3.5zm57.6 189.8c.2-.6.3 1.5.6-.3-.1-.8 0-1.6-.2-2.4-.2 3.7-1.5-1.9-.5 2.2-.1 2-.2 4-.2 6-.1 2-.2 4-.6 5.9.2 1.9 0 2.5-.4 3.2.1.4.3-.5.3.1 0 1.8-.4.5-.6 2.1.4.5.2 1.5.7 4 .3-1.6.1-3.4 0-5.2.6-1.2.4-2.7.4-4.1.5-1.4.7-3.3.8-5 .1-1.7.1-3.3.3-4-.3-2.2-.7 2.2-.7 3.1-.2-2 .5-3.6.1-5.6zm-7 38.4c-.6 2.3-1 4.7-1.3 7.1.5-1.6.4-.4.8-1.6-.5-1 .4-3.3.5-5.5z"/><path class="st0" d="M482.4 446.3c-.3 1.3-.2 1.8.3.6-.1.6-.4 1.1-.6 1.7-.2 1.8.1 1.3 0 2.5-.3 1.3-.6 2.6-1 3.9s-.7 2.6-1 4c-1.7 2.7-1.9 6.4-3.3 9.4-.3-.3.1-1.5.5-2.8s.7-2.5.5-2.9c-.5 2.5-1.3 4.3-2 6.3-.7 1.9-1.4 4-2 6.8-.8 1.1-1.4 1.7-1.8 4.1-.8.9-.9.1-.3-1.8-.5.6-.5 1.4-.9 2 .6-.7-.3 2.2.7.5-.8 1.3-1.3 2.8-1.8 4.3-.3.8-.5 1.5-.8 2.3-.3.7-.6 1.5-1 2.2.4-1 .7-1.9 1-2.7.2-.8.5-1.6.6-2.2.4-1.3.6-2.2.8-2.6-.5.4-1.1 2-1.6 3.8s-1.3 3.8-1.8 5.1c-.5-.1-1.7 2.8-2.3 4.3-.1.4.4-.4.3.2-.2.5-.4.8-.5 1.3-.2.1 0-.7-.5.1-1.7 3.3-3.2 6.9-4.9 10.3-.2.2-.1-.1-.4.2 1.7-3.7 2.1-5 3.7-8.5-1.8 2.5-3 5.6-4.6 8.2-.3 1.1.7-1.2 1.1-1.4-.2.8-.5 1.5-.9 2.2-1.2 1.6-.8.1-1.9 1.9-.3.8 0 .5-.4 1.5.3-.3.4-.8.6-1.2.7-.8 1.1-.1 1.2-1.3 1.7-2 .2.9-.7 2.4.9-2.1-1.5 2-1 .3-.7.9-.9 2.4-1.6 3.4-.9.9.6-2 1.2-3.1.4-1.1-.9.6-.5-.5-1 1.3-1.5 3-2.6 4.2-.2-.3.7-1.7.9-2.8-1.2 1.1-1.5 3-2.7 4.1-.2.9 1.1-1.6 1.7-1.9-.7 1.1-1.3 2.4-2.2 3.4 1.3-1.4.9-.4.9.3-.2.4-.5.7-.7 1.2-1.2 1.6.4-1.2-.9.4-.3 1-2 3.7-3.6 5.9s-3.3 3.9-3.3 3.4c-.5 1.2-1.5 2.3-1.2 2.6-1.6 1.7-.8.2-1.8 1.2 1.4-1.7 2.4-3.8 3.9-5.5-1 .8-4.1 5-5.7 7.4-.6.6.2-.8-.9.3-1 1.7-2 3.4-4.1 5.3.1.5-1.1 2 0 1.4-1.1.7-1.7 2.5-3.5 4 1.2-.5-2.3 3-2 3.3-2.3 2.2.9-1.8-.7-.3-.7 1.3-1.6 2.3-2.5 3.2-.2 0 0-.6-.1-.8 1.4-1.8 3-3.5 4.4-5.1.7-.8 1.4-1.6 2-2.3.6-.8 1.1-1.6 1.6-2.3-.9.5-1.2 1.8-2.1 2.2-1.6 2.6-3.6 4.6-5.6 6.7l-1.5 1.5-1.5 1.5c-1 1-2 2.1-2.9 3.3-1.1.8-2.3 2-3.6 3.2-1.3 1.2-2.7 2.5-4 3.7-1.3 1.2-2.6 2.4-3.6 3.3-1.1.9-2 1.5-2.6 1.8-1.4 1.1-2.7 2.2-4.1 3.3-.4 1.2-2.9 2.8-4.6 4.2-.2 0 .3-.6-.5-.1.1.5-2.4 2.5-2.4 2-3.6 3.5-7.9 5.5-11.8 8.6 1.2-.6-.7 1-1.3 1.5-.7.3 1.4-1.4.9-1.3-.4.2-.9.5-1.3.8-.4.2-.9.5-1.3.8-.9.5-1.7 1.1-2.6 1.7-1.7 1.2-3.4 2.4-5.1 3.5-.1-.6-4.4 1.7-5.1 2.6-.8.1-1.6.8-2.4 1-.4.5-1.2 1.1-2.3 1.7-1.1.6-2.5 1.2-3.9 1.9s-2.9 1.3-4.4 2.1c-.7.4-1.4.7-2 1.1-.7.4-1.3.7-1.8 1.1-1.9.3-4.4 1.6-6.8 2.8l-1.8.9c-.6.3-1.2.5-1.7.7-1.1.4-2.1.7-2.8.7 1.2-.4 2.5-1 3.7-1.5-1-.1-5 2.1-8.2 3.1-1.3.5-6.1 1.5-6.2 2.1-.8.5-1.7.3-2.5.5-1.5.6-2.9 1.2-4.4 1.6s-3 .8-4.4 1.4c-.9.2-2 .4-3.3.7-1.3.3-2.7.7-4.2 1-3 .7-6.3 1.4-9.1 2-18.1 3.4-36.6 4.5-55 3.6-4.6-.1-9.2-.7-13.7-1-2.3-.2-4.6-.5-6.8-.8l-6.8-1-6.8-1.3c-2.2-.5-4.5-.8-6.7-1.4-4.4-1.1-8.9-2.1-13.3-3.5-17.6-5.1-34.7-12.2-50.5-21.4l-5.9-3.5c-2-1.2-3.9-2.5-5.8-3.7l-2.9-1.9-1.4-.9-1.4-1-5.6-4c-1.9-1.3-3.7-2.8-5.5-4.2l-5.4-4.3-5.2-4.5-2.6-2.3c-.9-.8-1.7-1.6-2.5-2.4C66 536.8 45.3 505.4 33 470.8c-6.1-17.3-10.2-35.3-12.1-53.5-1.8-18.3-1.5-36.8.9-55 .4-1.2.4-.1.5.7-.5 2.7-.9 5.4-1.2 8.1-.2 2.7-.4 5.5-.5 8.3-.1 1.4-.2 2.8-.2 4.1 0 1.4 0 2.8-.1 4.1 0 1.4-.1 2.8-.1 4.1-.1 1.4-.2 2.7-.2 4.1.4.9.3 1.4.5 3.1-.2.4-.1-.7-.3-1.4-.2 1.7.5 3.6.1 5.2.2 1.3.5-.2.7 1-.4 2.3-.3 5.3 0 8.5.1 1.6.3 3.2.5 4.9.2 1.6.6 3.2.9 4.7.2 2.4.4 4.9.7 7.3.4 2.4.9 4.8 1.5 7.3 0 .6-.1.7-.2.4.2.9.4 1.9.7 3 .2 1 .5 2.1.7 3.1.5 2.1 1 4.3 1.5 6.4.4 2.1 1 4.1 1.6 5.8.5 1.8 1.1 3.3 1.6 4.5.1 1.2-.3.2.1 1.7.2.4.1-.4.1-.8.1.6.3 1.2.4 1.8.2.6.3 1.1.5 1.7.3 1.1.7 2.2 1.1 3.3.7 2.1 1.5 4.2 2.3 6.3.9 2.1 1.7 4.1 2.6 6.3l1.2 3.3c.4 1.1.9 2.2 1.3 3.4.9.7 2.4 5.3 3.4 7.5 1.8 3.6 3.6 5.9 4 7.7.9 1.5 1.9 3 2.8 4.5.9 1.5 1.6 3 2.2 4.6 1.1 1.6-.2-1 .9.6.2.1.5.8.6 1.2.2.5.2.8-.1.4 1.7 1.8 2.5 3.9 4 5.7.4.8 0 .5-.3.1 1 1.2 1.8 2.5 2.7 3.7.9 1.2 1.7 2.5 2.7 3.7-.4.5.1.2 1.2 2.3.2-.1 1 .7 1.6 1.6-.1.1 0 .5.4 1.2 1.8 1.3 3.7 5.1 6.8 8 .4.7.3.7-.1.5 1.7 1.9 4.5 5.1 7 7.9 2.6 2.7 4.9 5.1 5.5 5.4.9.9 1.7 1.9 2.6 2.9.9.9 1.8 1.8 3 2.6 1.4 1.9 4.3 5.1 5.5 5.5 1.5 1.4 3 2.7 4.5 4 1.5 1.3 3 2.7 4.5 3.9s3.1 2.4 4.6 3.7l2.3 1.8 2.4 1.7c3.2 2.3 6.4 4.7 9.8 6.8l5.1 3.3c1.7 1.1 3.5 2.1 5.3 3.2.8.3.4 0 1 .2 1 .9 1.4 1 3.1 2.3 2 1 4.3 2.1 6.6 3.3 1.2.6 2.3 1.2 3.5 1.9 1.2.7 2.5 1.2 3.7 1.8 2.5 1.2 5.1 2.4 7.7 3.5 2.6 1 5.2 2 7.8 2.7.7.4.2.4 1 .8 3.8 1.3 7.8 2.4 11.5 3.9 0-.3-.7-1.2 3.1-.3.9.6-.1.5 2.1 1.3.5.4-2.5-.1-3-.6-1.7-.1 2.5 1.3 2.4.9 1.2.5 2.5 1 3.8 1.4 1.3.4 2.6.8 4 1 2.7.6 5.4 1.1 7.9 2.1 1.4-.2 5 .6 7.2 1.5.9.1.6-.1.1-.3 1.2.3 2.4.6 3.6.8l1.8.4 1.8.3c2.4.3 4.9.7 7.3 1.2.5-.1 0-.3.6-.3 1.7.3 3.7.5 5.6.7 2 .2 4 .3 6 .5s3.9.2 5.7.3 3.3.3 4.6.5c.4-.1-.2-.2-.4-.3 3.9.3 7.8.1 11.7 0 3.9 0 7.8-.3 11.7-.3 1.4-.2 3-.3 4.8-.5 1.7-.2 3.6-.4 5.5-.6s3.9-.4 5.8-.6c1.9-.3 3.8-.6 5.5-.9 1.7-.5-.3-.3 1.3-.8.6-.1 1.2-.3 1.7-.3-.8.6.5.5 2.3.2 1.8-.4 4.1-1 5.3-1.1.8-.6-1.9.3-2.5.2-.8-.2 1.9-.7 2.6-.9 1.4.2 3.6-.1 5.9-.6 2.3-.6 4.7-1.3 6.8-1.7 1.6-.6-.4-.3 1.2-1 .6-.2 1.1-.2 1.7-.5.5 0-.7.5-1.2.8 1.3-.1 2.5-.4 3.8-1.2 0-.2-1.4.1 0-.5-.8.1-1.6.7-2.5.6 1.4-.7 2.8-.8 4.1-1.7 1.4.1 2.8-.6 4.2-1 .4.3-2.7.8-3.7 1.5 2.7-.3-1.1.6-2 1.1 4.1-.7 3.6-1.3 7.5-2.1.7-.4-1.2 0-.9-.3.4-.2.8-.2 1.3-.3.6-.4.2-.4-.9-.1 2-1.1 4.1-1.8 6-3 1.3-.3 2-.6 1.7-.1 1.8-.7 3.4-2 5.2-2.5.5-.1.2.1-.3.4-.5.3-1.1.6-1.3.8 1.4-.3 2.4-1.2 1.9-1.2 1.2-.8 2.5-.7 3.6-1.5.5 0-.8.7.9.2.8-.7 2.8-1.8 4.5-2.6 1.7-.9 3.2-1.5 3.4-1.2 1.7-.9 3.4-1.4 5-2.8 2.4-.3 5.1-2.9 6.3-2.8.8-1.1 2.6-1.9 4.6-2.8s4-2.1 5.5-3.4c1.6-.9 3.1-1.8 4.7-2.8 1.5-1 3-2.1 4.5-3 1.1-.5-1.8 1.3.1.3 4.6-4 9.5-6.6 14-10.6-.6.3-1.2.8-1.8 1.1-.3.1.4-.6-.1-.3.5-.4 1.1-.7 1.6-1.1l1.6-1.1c1.1-.7 2.1-1.5 3.1-2.3.2-.5-.6.3-1.1.6-.7.2 1.5-1.2 1.8-2 .2.1.6-.1 1.5-.8.3-.6.8-1.1 1.4-1.7s1.3-1.2 2-1.8c1.4-1.2 3-2.5 4.2-4 1.3-.9 1.4-.7.4.6 1-.5 1.7-1.6 2.6-2.3.2-.5-.7.3-1.2.6.7-1.1 1.5-1.9 2.3-2.8.6-.3.4.1-.3 1.1 1.9-2.5 4.3-4.4 6.4-6.7.4-.2-.5 1 .9-.2.6-2.1 7.3-8.5 8.7-11.2.9-.4 3-3.3 1.5-.8 1.2-1.4 1.2-1.7 1.1-2.1.6-.7 1.1-1 1.6-1.4.5-.4 1.1-.9 1.7-2.1-.7.5-1 1.4-1.7 2 .3-.5.3-.7.1-.5 1.3-1.7 2.7-3.4 4-5.2.7-.9 1.3-1.8 1.9-2.7.3-.5.6-.9.9-1.4s.5-1 .8-1.5c.3.4.4.1 1.6-.8.6-1.3-.6 0-1.3.5.8-2.5 2.9-3.6 3.7-6 1.7-2-.2 1.4.9.3.7-1.6 0-1.1.1-1.8.7-1.6 1.1-1.3 1.5-2.1.3-.3-.2.8-.4 1.5.9-1.2 1.9-3.5 1.2-3 2-2.3 1.6-2.6 3.2-4.1 1.2-2.7 1.4-2.9 3-5.4 0-.5-.9.8-.1-1.2l-1.3 1.7c-.7 1.4 0 1-1.2 2.3-.4.9-.1.6.3.2-1.4 2.3-5.5 9.8-5.4 7.8-.6.6-.7 1.7-1.1 2.5-1.1 1-.6-.2.1-1.7-.5.7-3 4.5-1.6 3.2-.9 1.7-2.2 3-2.9 4.9-.6.5.7-1.8.3-1.5-.5.5-1.3 1.8-1.9 2.8s-1.1 1.6-1 .9c-.8.7-.7 1.4-.3 1-.9 1.3-1.9 2.6-3 3.7-.1.4.2.2 0 .7-.5.9-1.2 1.6-1.7 2.5-.1 0-.1-.3 0-.7-1 1.7-2.2 3.2-3.3 4.7-1.2 1.5-2.4 2.9-3.6 4.3-.8.6.8-1.1.9-1.6-1 .8-1.5 2.2-2.6 2.8 1-1.5 2.1-2.9 3.4-3.9.2-.8 1.1-1.9 2.2-3.2.5-.6 1.1-1.3 1.6-1.9.5-.7.9-1.4 1.3-2-.4.6-.9 1.1-1.3 1.7-.4.5-.9 1.1-1.3 1.6-.9 1.1-1.7 2.1-2.5 3.1-1.6 2-3.1 4-4.8 5.7-.5 1 1-.9 1.4-1-1.6 2.5-2.3 1.5-3.9 4l1.8-1.8c-.5 1.2-1.6 1.6-2.1 2.9-.8.7-.3-.1 0-.7-.5.5-.9 1.2-1.5 1.6 0 1.1-5.5 6.2-8.1 8.6-.8.2 1.5-1.2 1.7-2-1 1.1-2 2.2-3.1 3.3-1.1 1-2.2 2-3.2 3.1-2.2 2-4.3 4.1-6.7 5.8-.4.2.4-.7.8-1.2-1.6.8-2.4 2.2-2.1 2.3-1.9 1.8-.2-.4-2.3 1.1-1.7 1.7 1.5-.8.6.3-1.4 1.1-2.7 2.5-4.1 3.6-1.4 1.2-2.8 2.2-4.4 3.1-.8 1.3-2.2 2.1-3.9 3.6-1.4.7-.6 0-1.6.5-2.1 1.9-4.4 3.4-6.7 5-.6.1 1.8-1.5 2.4-2-.8.4-1.9 1.1-2.9 1.9-1.1.8-2.2 1.6-3.1 2.4-1.5.7.2-.6-1.3.1.9-.9 2.6-1.7 2.4-2-4.6 2.9-7.5 5.1-11.6 7.8-2.2.9 1.2-1.2-.6-.5-2 1.1-4 2.4-6 3.4-2.1 1-4.1 1.9-6.3 2.7-.9.8-1.8 1.2-2.6 1.6-.8.3-1.5.4-2.1.6-.7.5.6.1-.7.9-1.6.4-4.1 1.6-6.3 2.6-1.1.5-2.1.9-2.9 1.2-.8.3-1.4.4-1.5.2-1.2.5-2.6 1-4 1.5s-2.9 1.1-4.3 1.5c-2.9.9-5.6 1.8-7.4 2.6-.7.1-1.3.2-2 .4-.7.1-1.3.3-2 .5-1.3.3-2.6.7-3.9.7-1.8 1-3.6 1.1-5.4 2.1-1.5.2-.5-.2-1.7-.2-2.4.5-4.9 1.1-7.3 1.6-1.2.3-2.4.5-3.7.7l-3.7.6-3.7.6-1.8.3-1.9.2c-2.5.2-4.9.4-7.4.6-.3.3-1.4.6.4.4-2 .2-4.1.2-6.1.3-2.1.1-4.1.2-6.2.3l-1.5.1h-1.5c-1 0-2.1 0-3.1.1-2.1.1-4.2.1-6.2.3-2 .2-3.9-.5-5.9-.5-.4.1.5.2-.1.3-1.3-.1-2.7-.3-4.3-.4-1.6 0-3.3-.2-5.1-.1-.8-.2-1.6-.5-2.4-.7-2.2-.1-4.4-.2-6.5-.4-2.2-.3-4.3-.6-6.4-.9-4.3-.5-8.5-1.6-12.7-2.5-.3 0-.1.2-.5.2-14.6-3.3-29.1-7.5-42.8-13.6-.3-.1-.7-.2-1.2-.3-.5-.2-1.1-.4-1.7-.7-1.3-.6-2.8-1.3-4.5-2.1-3.3-1.5-7-3.6-9.9-5.1-1.6-.8-3-1.4-4.3-2.2-1.3-.7-2.4-1.4-3.4-2.2l-1.7-.6c-.5-.7-1.8-1.3-3.1-2-1.3-.8-2.8-1.7-3.8-2.7-1.6-.9-3.3-1.9-5.1-3-1.7-1.2-3.5-2.5-5.3-3.9-3.7-2.6-7.3-5.7-10.8-8.1-.4-.4-.7-.9-1.1-1.3-8.8-6.7-16-14.7-23.9-22.4-1.3-2-2.9-3.7-4.6-5.5l-2.4-2.7c-.7-1-1.4-1.9-2-2.9-1.1-1-1.9-2.1-2.8-3.3-.8-1.1-1.7-2.2-2.7-3.3-4.3-6.6-8.8-13.1-13-19.9-1.1-1.9-2.1-3.8-3.2-5.7-1-1.9-2-3.9-3-5.9-2.1-3.9-3.9-7.9-5.7-11.9-1-2-1.8-4-2.6-6.1l-2.4-6.1c-.7-2.1-1.4-4.2-2.1-6.2-.7-2.1-1.4-4.1-2-6.3l-.8-1.6c-.3-.7-.1-.8.1-.4-.7-2.2-1.3-4.3-1.9-6.3l-1.5-6c-.5-2-1-3.9-1.4-6s-.9-4.2-1.3-6.6c0-.5 0-1.1.1-1.6-.2-.9-.4-1-.5-1.3-.2-.3-.3-.7-.3-2.1.1-.4.2.7.4 1.3 0-1.1-.3-3-.6-3-2.3-17.1-2.7-34.4-1.4-51.5.1-1.1.1-2.1.2-3.2l.4-3.2.7-6.4c.1-1.1.3-2.1.5-3.2l.5-3.2c.4-2.1.7-4.2 1.1-6.3l1.4-6.2c.5-2.1.9-4.2 1.5-6.2l1.7-6.2c.3-1 .5-2.1.9-3.1l1-3c5.2-16.3 12.1-32 20.8-46.8 8.8-14.7 19.3-28.5 31.4-41.1.2-.4.5-.8.8-1.1 6.9-6.4 13.4-13.6 21.2-18.9 1.3-1.1 2.1-2.5 2.6-2.3.9-1.1 4-3.4 6.2-4.6l1.3-1.3c2.7-1.9 5.5-3.5 8.2-5.6 3.3-2.1 6.9-4 10.3-6l2.6-1.5 2.6-1.4 5.3-2.8c1.7-1 3.6-1.8 5.4-2.6 1.8-.8 3.6-1.7 5.4-2.5.9-.4 1.8-.8 2.8-1.1l2.8-1c1.9-.7 3.7-1.3 5.6-1.9.5-.3 1.1-.6 1.6-.9 2.6-.4 7-2 8.2-2.9.8-.1.4.2 1.3 0 1-.9 2.5-.9 3.7-1.1 1.9-.8 4.1-1.5 6.5-2.2 2.4-.6 5-1.1 7.7-1.8.7 0 .8.1.4.3 1.3-.2 1.4-1 3.8-1.1.4-.2-.2-.1-.4-.2 1.3-.4 2.5-.3 3.8-.9.9 0 .4.2 0 .3 1.5-.5 4.3-1.2 6.8-1.7 1.2.2-1.4.5-2.6 1 1.3-.3 2.6-.7 3.9-.9 1.3-.2 2.6-.5 3.9-.7l3.9-.7c1.3-.2 2.6-.5 3.9-.6l2.1.3c-.4.4 1.2-.3-.8-.3 2.4-.6 4.6-.7 7.9-1.2.6.3 3.7.1 1.6.4 1.5.1 1.5-.5 4.3-.1 2-.4-1-.2-1.7-.3 3.1-.5 6.1-.2 9.2-.7.4.1-.5.2-.9.3.8.1 1.8-.1 2.6.2-.7-.5 1.6-.1 3.2-.5 1.9.2 3.8.3 5.8.3s3.9.1 5.9.1 3.9.1 5.7.2c1.8.1 3.6.5 5.2.9.8-.3 2.3-.2 4-.1 1.7.1 3.5.4 4.9.6-.1.3-1.1.1-2.2-.1-1.1-.1-2.4-.3-3.2-.3.7.3 1.4.3 2 .5-2.5-.1-5.2.1-7.6-.1.2-.4-1.4-.7-3.2-.7-1.8 0-3.9.1-4.6.1 1.2.2 2.7.4 4.2.5 1.5.1 3.2.4 4.8.5 3.2.3 6.5.4 8.9.4.4.2-.8.1-1.4.2 2.7.3 8.1 1.4 8.5.6 1.7.1 1 .5 2 .8 1.3.1 2.4.3 3.5.4 1.1.2 2.1.3 3.2.5 2.1.4 4.3.6 7 1.1 3.2.9 6.4 1.8 9.7 2.7 3.2 1 6.5 1.9 9.9 2.6.9.3 2 .7 3.1 1.2 1.1.4 2.3.8 3.4 1.2 2.3.8 4.5 1.3 5.8 1.6 1.9 1 4.2 1.9 6.8 3 1.3.5 2.7 1 4 1.6l4.2 1.8c1.4.6 2.8 1.3 4.3 1.9 1.4.6 2.8 1.4 4.1 2.2 2.7 1.5 5.3 3.1 7.4 4.8-1.7-2.4 5.9 3.1 6 2 1 .7 2.1 1.1 3.3 1.7 1.1.6 2.1 1.2 2.8 2.1 2.1 1.2 4.1 2.4 6.1 3.7 2 1.3 3.8 2.7 5.7 4.2.9.7 1.8 1.4 2.7 2.2.4.4.9.7 1.3 1.1l1.3 1.2c1.7 1.6 3.3 3.2 4.9 4.9 1.1.6 2.3 1.3 2.1.7 1.2.9 2.1 2.1 2.9 3.3 1.3.7 2.1 1.7 3.1 2.6.8.1 1.6 1 2.7 1.4-.4-.7-1.4-1.2-1.9-1.9 2.4 1.8 5.2 4.6 7.9 7.5.7.7 1.4 1.5 2.1 2.3s1.3 1.6 1.9 2.4c1.2 1.6 2.4 3.2 3.4 4.6.5.2 1.3.7 2.1 1.5s1.6 1.9 2.5 3.1c1.1.9 2.3 2 3.5 3.1s2.4 2.3 3.6 3.6c2.3 2.6 4.7 5.4 6.9 8.3.3.8.6 1.6.9 2.5.1-.9 2.5 3.2 3.9 4.7 0 .2 0 .4-.3.1 1 1.3 1.8 2.7 2.6 4 .8 1.3 1.7 2.6 2.5 3.9s1.6 2.5 2.4 3.7 1.5 2.4 2.3 3.4c1.6 3 3.6 6.5 5.4 10 1.8 3.4 3.7 6.7 5.1 9.1.8 2.2 2.3 5.2 3.7 8.2 1.3 3 2.6 5.9 3.4 7.6 1.4 2.9 2.5 5.8 3.6 8.5.5 1.3 1.1 2.6 1.6 3.9.3.6.5 1.2.8 1.8s.5 1.2.7 1.8c-.4-1.7-.1-1.8-.1-2.7.6 1.2.6 2.4 1.2 3.6-.2-1.1-.4-1.9-.6-2.6s-.3-1.2-.3-1.9c-1.2-2.1-1.4-6-2.3-6.7-.5-1-.2-2.1-.4-3.1-1.1-2.8-2.1-5.6-3-8.4 1.3 2.5 1.7 3.6 3.5 7-.9-2.6-2-5.5-3-8.5-.3-.7-.5-1.5-.8-2.3-.3-.7-.6-1.5-1-2.3-.6-1.5-1.3-3.1-2-4.6s-1.3-3.1-2.1-4.7c-.8-1.5-1.5-3.1-2.3-4.6s-1.6-3-2.3-4.5c-.8-1.5-1.7-2.8-2.5-4.2-.7-1.1-1.1-2.2-1.5-3.3-.2-.1-.2.2-.2.5-.6-1.2-1.4-2.4-2.1-3.7-.3-2.1-4.1-6.2-5.8-8.2-.4-1.3.8.3 1.7 1.4-.7-1.1-1.5-2.9-1.2-2.9 1.5 1.8 1.4 2.4 2.6 3.5-.3-1-1.6-1.7-1.7-2.8-1-1.4-.6-.4-1.4-1.5-.4-.5-.7-1-1-1.6.3-.1 1.6 1.5 1.8 1.3.3.4.5.8.8 1.2-1-.7 1.3 2.6 2.3 4 .3.8-.1.4.3 1.3 1.1 1.7 2 2.7 2.8 3.6.8.9 1.5 1.8 2.5 3.5-.1.4-2-2.6-2.8-3.5.7 1.5 2.5 4.6 2.5 3.6.9 2 2 4 3.2 6s2.4 4 3.5 6c-.4-1.3-1.1-2.6-1.9-3.8-.4-.6-.8-1.2-1.1-1.9l-1.2-1.8c1.6 1.2 4.1 6.3 4.9 9.2 2 3.2 3.6 6.5 4.6 9.9.7 1.3 1.3 2.6 1.9 3.8.6 1.3 1.1 2.6 1.6 3.9 1 2.6 2 5.3 3 7.9.9 2.7 1.7 5.3 2.6 8 .4 1.3.9 2.7 1.3 4 .4 1.4.8 2.7 1.2 4.1-.1-1.2-.3-2.4-.5-3.7-.2-1.2-.5-2.4-.5-3.6-.9-2.6-1.6-5.2-1.9-7.8-.4-.9-.3-.3-.6-.9 0-2-1.3-3.9-1.6-5.8-.1-.9.5.1 1.1 1.3-.4-2.4-1.7-4.8-2.4-7.2-.4-1.9.7.8.5-.5-1.1-3.5-2.5-5.2-4.2-9.3 0-1.3 2.1 3.2 3 4.8-.3-.7-.5-1.5-.6-2.3-.2-.4-.1.2-.1.5-.9-1.7-.9-2.8-1.7-3.5-.2-.9.1-.4-.1-1.4-1.5-2.9-2.8-5.8-4-8.7-.7-1-.9-1-.7.1-.6-.8-1.1-1.7-1.5-2.5-.1-1 .1-1.4.2-1.9 1.8 3.4 4.7 8.5 5.9 9.3 1.4 2.7 2.5 5.4 3.6 8.2 1.1 2.8 2.3 5.5 3 8.3.2-1.6 1.4 2.7 2.1 5-.1.7-.8-2.4-1.3-3.2.4 2.4 2 4.8 2.9 7.3.3 1.8-.7-1-.1 1.4.7.5 2.5 6.8 3.3 10.2 1.2 2.7 1.7 6 2.8 9.9.7.3-.6-3.4-.9-4.7.5 1.6 1.4 4.4 2.2 7.5.7 3.1 1.3 6.6 1.5 9.6.8 2 1.3 6.4 1.9 10.5.3 2.1.7 4 .9 5.5.3 1.5.6 2.6 1 2.9.1 3.5.9 4.9.9 7.8-.3 0-.3-1.9-.7-1.6.1 1 .3 1.9.4 2.9.1 1 .2 1.9.3 2.8.2 1.8.5 3.6.7 5.1.5 3 1.1 5.1 1.6 5.4.2-1.8.4-5.1.9-4.2.3-4.2 0-10.9.9-12-.6-2-.7-5.6-1.3-6.1 0 .6.2 1.3.3 2-.3.9-.2-.2-.5-1.6.2-1.2.2-2.5.1-3.9.1-1.4.3-.9.6.6 0-1.3-.2-2.5-.5-2.5.1-1.5-.2-4-.6-6.7-.4-2.7-1-5.6-1.6-8-.1-2.7-.6-5.5-1.4-8.3l-.6-2.1c-.2-.7-.5-1.4-.7-2.1-.5-1.4-1-2.8-1.5-4.1v-1c1.4 2.2 2.8 7.5 3.8 10.3.1-1-.3-2-.2-2.9-1.4-4.1-2.3-7.4-3.2-10.7-.4-1.7-.9-3.3-1.5-5-.6-1.7-1.2-3.5-1.9-5.5 0-.3.2 0 .1-.5.9 2.9 2.6 7.2 3.4 8.6-.1-1.3-.8-2.6-.9-3.8-.2.6-.6-.7-.9-2.4-.1.4-.3.4-.7 0-.3-1.4-1-3.7-1.6-5.4-.7-1.7-1.4-2.9-1.5-2.2-.7-1.1.4-.6-.5-2.3.1-.3.8 1.8.8.9-.6-1.9-1.8-3.5-1.8-2.8-.5-1.2.1-1.1-.2-2.4-1.1-2.5-.8-.8-1.6-2.3-.6-1.2-.3-1.7 0-1-.5-2-.9-1.4-1.2-1.8-.2-.6-.7-2.5-.5-2.8.7 1 1.1 2.1 1.7 3.2-.8-2.8-1.8-3.9-2.1-3.6-.7-1.6-1.3-3.2-2-4.5-.7-1.4-1.3-2.6-2.2-3.6-.8-2.4.6.2.3-1 1 1.8 1.7 3.6 2.6 5.4-.3-1.8 0-1.9 1-.1-.3-1.2-.9-2.3-1.1-2.3.2-.2-.1-.7-.3-1.3-.2-.6-.5-1.2-.3-1.5-1.6-2.4-2.6-4.7-4.1-8.1-.1-.7 1.5 2.3 1.5 3.2.3.5.2.2.2 0l.6.9c-.5-1.9-1.6-3.6-2.6-5.4-.1-1 .7-.1.6-1.1-.8-.8-.7-.9-1.8-2.6-.6-1.7-.2-1.2-.5-2.3-.7-1.1-.7-.8-1.1-1.2-.5-1.3.3-.2-.4-1.9-.8-1.3-1.5-2.6-2.2-4-.7-1.3-1.5-2.6-2.2-3.9-.3-1.3.8.9 1.8 2-.5-1.4-1.8-2.5-2.1-3.9-.1.1-.8-.9-.7-.3-.8-1.6-1.7-3.2-2.7-4.8-1-1.5-2-3.1-3.1-4.6-2.1-3.1-4.1-6.1-6.2-9.1-.4-.4.1.5.2.9-.9-.9-1.7-1.8-2.4-2.7.1-1.1-1.4-3-3.2-5.1-1.9-2-4-4.2-5.2-5.9.9.2 2.1 1.4 3.5 2.9l2.1 2.4c.7.8 1.4 1.7 2.1 2.5-.5-.9-1.2-1.9-1.9-2.6-.7-.8-1.2-1.4-1.1-1.9l-2.3-2.2c-.6-1-.3-.9-.5-1.4.8 1.1 2 2 2.6 3.1-.1-.8 1 .9 1.5 1-.8-2.1-3.7-3.4-4.4-5.5-1.8-1.6-3.7-3.2-5.4-4.5-1.1-1.6-.2-.9.6-.3-.7-1.5-2-2.6-3.1-3.9 0 .4-.5.1-1.9-1.2.6.8 1.5 1.4 1.8 2.3-1.3-1.2-2.3-2.4-3.2-3.8-1.2-1-2.5-2-3.7-2.9-.1-.9 1 .5-1.3-2-1.4-1.8 1.2.6-.1-1.1-1.2 0-2.8-2.2-5.6-4.1-2-2.1-4.2-4.2-6.1-6.4-2.3-1.1-4.6-2.9-7.5-4.9-1.5-1.6 1.6.8 1.3.3-1.7-1.5-3.7-2.8-5.4-3.8-1.8-1-3.4-1.7-4.4-2.2 3.5 3 5.3 3.2 7.8 5 .5.7.4.8 0 .6.8.9 2.7 1.9 1.9 1 .7.8 1.6 1.6 2.8 2.5 1.1.9 2.4 1.9 3.7 2.9 2.6 2.1 5.3 4.2 6.9 6.5-1.6-.9-3.8-2.7-6-4.6s-4.4-4.2-6.3-5.8c-3.3-1.3-8.4-6-13.5-9.7 1.8.7 2.8 1.1 3.6.9-1.3-.6-2.2-1.5-3.5-2.2-1.4-1.7-2.7-2.6-4-3.4s-2.6-1.5-4.1-3.1c-4-2.4-2.7-1.6-6.5-3.9 1 .9-.4.1.1.6-1.2-.6-2.2-1.4-3.6-1.9-1.7-1.5.8-.1 2 .7-.1-.5-5.2-3.3-5.3-2.9-1.6-1.1-3.5-2-4.8-3.3-2.4-1.4-5.4-2.2-7.6-3.8-1.3-1.3 1.6-.2 3.2.2-3.1-1.7-4.9-2-9.1-4.3-1.4-1.1-.5-.7-2.4-1.6-1.6-.5 2.7 1.5 1 1 1.3.7 2.6 1.4 4 2 .2.3.2.5.4.6.3.2.8.4 1.9 1.1.3.3-.6-.1-1.1-.2-1.3-.5-2-1.6-3.2-2.1-.1.1-1.1-.3-.7.1-1.6-.7-2.9-1.5-4.4-2.3-.5-.5 0-.4 1.1.2.9.4.3.3 1.1.9.4-.1 1.2 0 .1-.8-1.7-.5-3.3-1.1-4.9-1.7-1.6-.6-3.2-1.1-4.8-1.7-1.6-.6-3.1-1.2-4.7-1.8-1.6-.6-3.1-1.2-4.7-1.6-.6-.4-1.2-.7-.7-.6-.6 0-5.6-1.4-8.7-2.6-.2-.5 4.9 1.2 4.7.9 1.1.8 2.3 1.1.5.1-1.3-.4-2.6-.9-3.9-1.3-.6-.2-1.2-.4-1.9-.6-.6-.2-1.2-.4-1.8-.5-2.4-.7-4.6-1.4-6.6-2.1-1.3-1 5 1.3 5.2.7-1.8-.6-2.3-1-3.4-.9-1.5-.6-3.3-1.3-5.3-1.9-2-.5-4.3-1-6.5-1.5s-4.5-1-6.6-1.4c-2.1-.4-4.1-.7-5.7-1-1.3-.5 3.9.5 1.3-.4-1 .2-3.5-.2-5.6-.6 1.4.4 2.7.9 4.2 1.1.2.1-.1.2.3.3-1.5-.2-2.9-.6-4.3-1-.7-.2-1.4-.4-2.1-.5-.7-.1-1.5-.2-2.3-.2-.9-.3-.3-.3-1.2-.7-2.4 0-4.5-.7-6.9-.9-.8-.3-.8-.4-.3-.5-1.1-.3-2.3-.2-3.3-.6-1 0-.6.1-.1.3-4.5-.6-8.2-1.1-12-1.5-3.8-.2-7.5-.4-11.9-.7-.7-.2-.2-.4 1.1-.4-1.4-.2-3 0-4.4-.2-2.4.1.9.5-1.2.6-2.2-.4-4.5-.3-6.9-.1-1.3-.2-.1-.3-1.8-.6-.9.2.3.4-.7.6-2.6-.4-2.2.1-5.9.3-1.3-.1-.1-.3-1.8-.5-.4.1-.4.3.4.4-1.5.2-4 .1-6 0s-3.6-.2-3.6-.5c-4.6.7 3.6.2.8 1-1.7.1-1.1-.2-3.3-.2-2.3.5-5 .4-6 1.1-2.1.2-4.5.6-5.3.1-.8.2-1.7.5-2.5.7 1.8.2.6-.4 2.4-.2-.7.4-2.8.7-5.2 1-1.2.2-2.6.3-3.8.5-1.3.2-2.5.5-3.5.8.7-.5.2-.7 2.5-1.2-3.3.1-3.9 1.3-7.3 2-1.1-.1-2.2.1-3.3.4s-2.2.7-3.3 1.1c-2.7.1-5.4 1-8 1.7-.7-.2 2.5-.7 3.3-1.2-1 0 1.3-.8.5-.9-1.3.6-2.9 1.1-4.4 1.6s-3 1.1-4.1 1.7c-.8 0-1.9.5-3.7.9-1.1-.2 5.6-1.7 1.9-1.2 1.4-.7 2.8-.7 4.2-1.4-1.4 0-5.3 1.8-5.2 1.2-1.5.7-3.2 1.1-5.6 2.1 0-.8-2.7.8-5.1 1.2-2.8 1.5-5.5 2.2-8.3 3.5 0 .3 2.4-.2 3.7-.9-.1.3-1.1.8-2.4 1.2-1.3.4-2.7.9-3.5 1.2-.5-.1.7-.8 1.3-1.1-.4-.1-1.7.4-1.9 0 0 .8-2.6 1.2-4.9 2.7 1.1 0 2.1-.9 3.2-1-1.5.6-3 1.5-4.5 1.7-.5 0 .8-.4 1.3-.8-.7.1-2 .7-1.4.3-1.8.4-.5.8-2.3 1 .5.1 1.5 0 .1.9-2.1 1-.2-.2-1.9.3-1.2.7-.7.7-.4.8-.7.4-1.5.5-2.2 1.1-2.4.7 1.2-1.3-.6-.9-.4.4-1.1 1-.8 1.1-1.4 1-3 .9-4.4 2.1-1.7.6-1.2.1-2.3.4-1.8 1.3-3.7 2-5.7 2.9-.9 1.1-4.2 2.5-6.4 3.8-1.2.5 2.1-1.6-.1-.5-1.7 1.6-3.9 2.5-6.7 4.2-1.7 1.2.9-.1-.3.8-2.4 1.5-.6-.2-2.7.8-1.1.7-1.5 1.1-1.5 1.4-2.2.8-4.2 2.3-6.2 3.7-1 .7-2 1.5-3 2.3-1 .7-2 1.4-3 2-1.1 1.5-2 2-4.5 4.2-.7.5-1.3.6-2.8 1.8-.6 0 2.1-2 2.9-2.8-2.6 1.5-4.1 3.3-5.6 4.8-2 1.4-1.2.5-2.6 1.1-1.5 1.3-2.5 1.8-2.9 2.7-.5.3-1.1.6-1.6.9.9-.2-2.9 3.4-4.8 4.2-.8 1.5-2 2.1-3.9 3.8-1.3 1.6.2-.1.9-.4-.7 1-1.6 1.6-2.4 2.4-1.6 1-.7.1-.3-.6-1.5 1.4-3.1 2.8-4.9 3.8.3-.4.6-.8 1-1.1-.2 0-1.1.8-2.1 1.7-1 1-2.1 2.2-2.8 2.9 1.9-1.7 2.7-2.4 3.6-2.9.9-.6 1.7-1.1 3.5-2.7-2.9 3.7-4.1 3.1-6.5 5.8.3.2 3.1-2.1 3-1.4-1.1.7-3.4 3.1-4.4 3.6-.7 1.3-.5 1.6-1.1 2.7 0-.9-1.7.9-3.2 2-.8.5 1.2-1.8-.4-.6-.4.8-.7 1.2-.3 1.3-.8 1-2.2 2.1-1.2 1.6-1 1.1-2.1 2-3.1 2.9-.2-.2 2.9-3.4 1.9-3.1-.8 1.1-3 4-4.9 6.3-1.9 2.4-3.4 4.2-3 3-.9 1.1-1.6 2.6-2.7 3.5-.4 1.1-1.5 2.6-2.7 4.2-1.1 1.7-2.4 3.5-3.2 5.2-.9.3-2.4 3-2.2 1.8-1.1 1.3-.4 1.3-1.6 3.2-2.1 3.1-4.3 6.1-6 9.6-.6 0-2.1 2.9-2 3.3-1.1.9-1.6 2.4-2.5 3.5.4-.2.8-.9 1.5-1.2-.9 1.7-2.3 3.3-2.8 3.8-1.4 2.2-.3 1.4-2.4 4.3 0 .3.5-.3.1.7.4-1 .9-1.9 1.5-2.8.6-.9 1.2-1.7 1.8-2.5l-1.4 2.3c-.5.8-.8 1.6-1.3 2.3-.8 1.6-1.7 3.2-2.5 4.8-.2.2-.1-.1-.4.3.6-1.6 2.3-4.1 2-4.6-1.4 2.1-1.9 4.5-3.9 7.3-.2.7-.4 1.3-.7 1.9-.1.5.1.5.5-.2-.7 2.1-1.8 3.8-2.5 5.9-.9 1.5-.5.3-1.2 1.4-.6 1.8.8-.7-.3 1.6-1 1.5.1-1.3-.9 1-.5 1.3.3 0 .1.7-1.9 3.2-3.4 7.1-4.8 10.9-1.3 3.8-2.4 7.5-3.6 10.3-.4.7.2-1.5-.1-1.2-.5 1.3-.9 2.7-1.2 4-.3 1.4-.7 2.7-1.4 3.9 0 .4.1.5.5-.2 0 1.1-.5 1.9-.5 3-.5 1.1-.3.1-.2-.7-.6 1.3-.8 2.8-1.3 4.2 0 .5.3-.3.6-.8 0 1.1-.6 1.9-.7 2.9-.2.1-.1-.8-.5.3 0 .7-.1 1.4-.1 2.1-.5 1.3-.3 0-.9 1.6-.5 2.3-1 4.7-1.5 7s-.8 4.7-1.3 7c.2-.4.3-.9.5-1.3-.2 1.3-.1 2.7-.6 3.9-.4 1.2-.3.1-.3-.7-.4 1.4-.7 3.4-.9 5.2-.1 1.8-.2 3.5-.2 4.2-.4.6-.7 1.8-.7 3.8.7-2.4.4-.2.4 1.2.2-2.2.5-3.8.8-5.4s.5-3.3.9-5.7c-.1-.6-.1.4-.3.9-.2-1.1.6-1.8.4-3 .7-1.4.6-1.4 1.4-3.5-.3 1.4-.6 2.9-.9 4.4-.3 1.6-.6 3.2-.7 4.7-.4 3.1-.7 6.1-1.3 8 0 .3.2.1.2.6-.1 1.9-.3-.5-.6 1.3.1 1.6.1 3.1-.1 4.5s-.4 2.9-.6 4.3c.4.9.2 3-.1 5-.3-.8-.5-2.6-.9-1.3 0-1.5.3-3.9 0-4-.1 1.9-.2 1.9-.6 2.8.3.9.1 2.2.4 2.6 0 1.7-.3 3.2 0 4.9-.7 1.8-.5 6.2-.3 9.7-.5 0-.4 1.8 0 4.4-.1.3-.3.3-.4-.6-.1 1.6 0 3.3.1 4.9.1 1.7.2 3.3.3 4.9.2.9.3-1.2.5.1.3 1-.3 1.9.2 2.9-.1.8-.2.8-.4.4 0 1.6.5 0 .4 2.5-.1 1.2-.2 1.6-.5.9.2 1.2.3 3 .4 4.5.1 1.5.3 2.9.6 3.4 0 1.3-.3.1-.3 1.9.5.1.4 2.5.4 2.4.2 1.7.6 2.9.8 4 .1.6.2 1.2.3 1.9.1.7.2 1.4.2 2.4.6.7 1.1 4.6 1.5 6.8-.1.2-.4-.6-.4.4.4.7.6 1.7.8 2.8.2 1.1.5 2.3 1.1 3.5.5.7-.1-2.5-.5-3.3-.1-.9.9 2.2 1 2.9.6.9-.4-2.1-.5-2.8 0-.5.5.8.8 1.5.2.8.1 2.7 1.1 4.7.1 1.2.1 2.4-.3 1.4.1 1.7.9 3.5.9 5.2.3.4.5-.1 1 1.9-.4-.5-1.1-1.6-1.7-3.1-.6-1.5-1.2-3.3-1.8-5 .3 1.6.5 3.2.7 4.8.3.7.7.9.8 2.4.3.5.3-.1.6.5.8 2.1.1 1.2.5 3.3.3-.2 1.1 1.8 1.7 3.9.3 1.1.6 2.2.8 3.1s.3 1.6.2 1.9c.4-.1.6 2 1.5 3.2-.2-1.6-1.2-3.1-1.3-4.7.3 0 1.3 4 1.8 5.6.2.1.6.6 1.1 1.8.6 1.1.1 1.1-.4 0 .4 1.6 1 1.7.8.4-.5-1.1-.6-2.2-1.3-3.2 0-.5.2-.5.2-1 1 2.1 1.1 4.3 2.1 6.5-.2.5-2-3.1-1 .1.3-.6.4.6 1.2 2.3-.4.4-.8-1.5.2 1.9.4.1.6.3 1.5 2.2-.4.9 1.5 3.4 1.8 5.5-2.2-5.5-4.5-9.7-6.1-16.1.2 2.4-1.7-4.2-2-3.2.1.8.4 1.6.5 2.3.8.8 1.7 4.8 1.7 5.6 0-1.4 1.2 2.1 1.1.4.4 1.3 1.2 2.4 1.4 3.7.1 1-1.4-3.7-.6-.4-.7-.9-.5-1.8-1.2-2.7.2.9-.2.4.1 1.4 1.6 2.6 1.5 3.4 1.3 4.2.4 0 1 1.4 1.7 3.3.7 1.8 1.5 4 2.2 5.4.7.9.2-.2-.2-1.4 1.9 2.9 3.6 8 4.8 9.3.6 1.9-.5-.2-.4.6-1.1-2.4-2.3-4.8-3.2-7.2-.6-.8-.8-.7-.7.1.4.6.6 1.2.8 1.8.2.2.4.4.4 0 .3 1.3 1.3 3.6 2.4 5.8 1.1 2.2 2.5 4.1 3.1 4.8-1.4-.8 1.2 3.3 1.2 4.6.5.7.9 1.4 1.2 2.2.9.7-.9-2-1-2.7 0-.9 1.4 1.6 3.1 3.7.7 2.1-1.5-1.7-1.8-1.5.8 2.3 1 1.7 2.4 3.8-.2-.8.2-.4.4-.6.7 1 .9 2.1 1.8 3-.7-1.9-2.5-3.6-2.9-5.6-1.5-2.1-2.9-4.2-3.9-6.4-.2-.8 1.1 2 1.5 2.6.7.7-.8-2.4-.9-1.8.3-.3.9.4 1.6 1.6.4.6.8 1.4 1.2 2.2.2.4.4.9.7 1.4s.5.9.8 1.4c1.1 2 2.3 4.2 3.4 6.3.6 1.1 1.2 2.1 1.8 3.1s1.2 1.8 1.8 2.6c-.3-.7-.6-1.3-.2-.9-.4-1-1.5-1.9-1.7-3 .1-.2.6.6 1.2 1.5s1.3 2 1.5 2.6c-.2-1 2.6 2.3 3.1 4 .2.5-1.9-2.3-2.2-3.2-.1.8-1-.7-1.7-1 1 1.9.5 1.4 1.6 3.5-1-1.4-1.7-2.6-2.5-3.9-.4-.6-.8-1.3-1.3-2s-1-1.5-1.7-2.4c.6 2-.5 0 .8 2.8.2-.2-.4-1.8 1.4.6 1.8 2.8 3.3 5.6 5.2 8.3-.5-1.1-.6-1.6 0-1-.7-1.3-1.5-2.5-2.3-3.8.3 0 1.4 1.5 2.1 2.3.4.9.1.5-.3.1 1.3 2.5.8.4 2.4 3.2-.1.3-1-.7-1-.2 1.2 1.3 2.7 3.4 4.2 5.5s2.9 4.2 4.3 5.5c.2.6-.7-.3.3 1.4 1.3 1.3 2.2 2.9 3.7 4.1-.6-1.1-.8-1.6-.7-1.8 1.6 1.7 2.8 3.6 4.5 5.3.2.5-.3.3-.9-.3-.6-.6-1.5-1.6-2-2.6.4 1-.9-.3-.4.7.9.7 1.6 1.5 2.5 2.5s2 2.2 3.5 3.6c-.4-1-1.6-1.7-2.1-2.6.4-.1 1.9 2.2 3.2 3.2.5.8 0 .5.6 1.3.8.2 1.7 1.3 2.7 2.5 1 1.3 2.2 2.6 3.2 3.5.4 1.3-3-2.5-3.4-2.5.2.4.7.7 1.1 1 1.3 1.7-1.1-.7.2 1 1.4 1.1 3 3.2 2.7 2.3 1.5 1 2.1 2.5 3.4 3.6.1.4-.8-.1-1.6-1.3-.1.3 1.1 1.4 2.2 2.5 1.2 1.1 2.4 2.2 2.2 2.6l2.6 1.8c-.8-.9-.4-.8-.7-1.2 1.5 1.2 1.3 1.4 1.8 2.2 1.4.8 2.4 1.9 3.6 3.2 1.2 1.3 2.6 2.8 4.4 4.6 1.3.8 3 2.4 4.8 4.1 1.9 1.6 4 3.4 5.9 4.6.4-.2-1.5-1.4-2.5-2.3.9.1 4.6 3.2 6.4 4.7.3.8-2.4-1.9-2.3-1.3 1 1.1 1.9 1.9 1.9 2.2 1.1.6 3.2 1.5 4.8 2.2 1.9 1.2 1.1 1.3 2.3 2.4.9.7 4.3 2.5 3.5 2.6 3.5 1.8 6.6 3.9 9.7 6 1.7 1.4-1.9-.6-.2.8 2.6 1.3-.4-.8 1.8.2 2.1.9 1.8 1.5 2.9 2.5 1.3.5 2.2 1.4 3.4 2-.5 0-.3.4 1.2 1.5.1-.1.8 0 1.5.6 1.2.4-1.3-.8-1.5-1.2 1.4.4 2.3 1.3 3.4 1.9 1.1.3-1.4-1.1-2-1.4 0-.2.6-.1.9-.2 1.7.9 1.5 1.1 2.7 1.3 1.6 1.3-.7 0-.9.2 1.7 1.1 1.7.7 2.5.8 2.1 1 4 2.2 6.1 3.2 0 .3-1.6-.3-1.8-.1.9.6 1.7 1.2 2.6 1.8.9.6 1.9 1.2 3.2 1.6 1.5 1.2 1.7 1.7 5.7 3.6-1.1-.7-2.6-1.4-2.4-1.7 1.5.4 2.8 1.1 4.1 1.8 1 .3-.4-.5 1.2 0-1.8-.7-4.8-2.6-5.4-2.5-.1-.3-.5-.7.8-.3 1.6.7.8.9 3.2 1.4 1.9 1.1-1.3-.2.6.8-.1-.5 2.4.5 4.3 1.5 1.3.2-.4-.6-1.6-1 .9.2 1.6.6 2.4.7.4.4 3 1.6 1.9 1.4.8.4 4.2 1.2 3.1 1.4.7.4 1.4.4 2.2.6.8.1 1.7.2 2.8.7.4.3-1 0-1.6-.1 2.3.9 6.3 2.7 7.5 2.6.7.2 3.9 1.4 1.7.9.5.2 1.1.3 1.6.5.6.1 1.1.3 1.7.4 1.2.3 2.3.5 3.4.7 2.2.4 4.1.5 5 .3 1.1.3 2.2.7 3.4.9 1.8.7-2 .1.5 1-1.2-.1-1.8-.2-2.2-.4-.5-.2-.8-.4-1.5-.6-2.3-.4-2.9-.3-1.4.5.5.1-.1-.2-.3-.4 1.5.3 3 .5 4.3 1.2.5.2.1.2-.4 0-.6-.1-1.3-.3-1.6-.3.5.3 1.2.5 1.9.6.7.1 1.3.2 1.9.6 1.2-.5 6.3 1.3 9.5 2.5.8.1 1.7 0 1.9-.2s-.3-.4-1.9-.8c.6.6-1.3 0-3-.5-.4-.3.9 0 1.5.3-.6-.5-5.7-1.5-8-2.2 7.9 1.4 19.6 4.4 29.2 5.2.4.2-.6.2-1.1.2 1.2.3 2.5.5 4 .4.6.6 1.9.3 3.8.9 1.4.4-3.4-.1-.7.5 2-.3 2.9.1 6.4.5 1.6-.3 3.6-.4 6 .3.9-.1 1.7-.1 2.5-.1s1.7 0 2.5-.2c2.5.7 6.1.9 10.2 1 4.1 0 8.8-.2 13.2 0-.2-.3 2.2-.8 3-.3 2-.3 1.5-.5 1.6-.7.7-.1 1.3-.2 2-.1-.3.3.3.5-1.6.9 2.8.1.8-.8 4-.4.9-.7 1.7-.5 4.5-.7 1 .1-.2.4-1.6.7 2.4-.4 5.4-.8 8.2-1.2 2.8-.4 5.5-.9 7.2-1.7 2.3-.6 2.3-.3 3.9-.5 1.3 0-1.3.7.4.7 1.8-.5 1.4-.7 1-.9 2.4-.3 1.8-.5 3.9-1 1.4.2-1.7 1.3-4 1.7 1 0 .5.2 0 .2 1.7 0 3.6-.1 5.9-.4.6-.1 1.1-.2 1.7-.3s1.2-.3 1.8-.5c1.2-.3 2.5-.8 3.8-1.3 1.8-.2-2.3 1 0 .7.9-.4 2.5-.8 4.3-1.1.9-.2 1.9-.3 2.8-.5s1.8-.4 2.6-.7c.9-.4.4-.4 1.4-.8.2.1-.6.5.5.3 1.8-.5.6-.3 1.9-.9.4 0-.6.4 0 .4 2.1-.2 4.2-1.1 3.8-1.4.5 0 1-.1 1.4-.3.5 0-.5.4-1 .6.6-.1 1.2-.3 1.8-.5.6-.2 1.3-.4 1.9-.6 1.3-.4 2.7-.8 4-1.2 2.6-.8 5.1-1.6 6.5-2.4 4.3-1.1 3.1-1.4 5.6-2 2.3-1.6 3.8-2 6.8-3.7-1.1.3-2.2.7-3.3 1 1.4-.8 2.8-.9 4.1-1.8.5-.1-.4.4-.9.7 2.9-1.2 5.8-2.1 8.7-3.4.5-.1-.4.4-.9.8 1.4-.6 2.8-1 4.1-1.9.6-.8 3.2-2 6.2-3.4 1.5-.7 3.1-1.4 4.6-2.1 1.4-.8 2.8-1.6 3.8-2.3l-3.8 2-3.9 1.9c-2.6 1.2-5.2 2.5-7.8 3.7 1.7-1.1 3.5-1.8 5.3-2.7.6-.7-2.3 1.1-3.2 1.3.9-.6 1.7-1.2 2.6-1.9.9-.3.4.1 1.4-.2 3.6-2.1 3.3-2.7 7.7-4.8.4.1-2.7 2-3.8 2.7.2.1 1.3-.2.6.4.9-.5 2.7-2.8 6.3-4.4.7-.2.3.2-.7 1 1.9-.7 3.2-2.6 5.9-3.9 1.8-.9-1 1.2 1 .2.4-.3.2-.3 0-.2-.2-.2 2.2-1.5 1.5-1.6.8-.4 3.6-2.1 2.9-2.1 1-.5 1.9-1.4 3-1.8.2.2-2.6 2.4-1.8 2.2 1-.8 2.4-1.8 3.7-2.8 1.2-.6.3.3 1.8-.6 2.4-1.8 4.9-3.4 7.4-5.1.9-.4-1.5 1.2-1.9 1.8 3.2-2 3.5-3.5 6.8-5.2.8-.7 1.4-1.7 2.2-2.2.8-.9-1.2.9-1.7.9.4-.4.7-.8 1.1-1.2 1.2-.8 2.4-1.7 3.6-2.6.6-.5 1.2-.9 1.8-1.4.6-.5 1.2-.9 1.8-1.3.1.2-.6.9-1.5 1.7-.9.8-2.1 1.5-2.8 1.8-1 1-2 2-3 2.8 1.3-1 4.6-2.8 6.3-4.9 1.7-1.1-.2.8 1.5-.2.6-.9 2-2.3 3.7-3.9s3.8-3.2 5.4-4.9c1-.5-1.1 1.1-1.3 1.7 1.6-1.5 1-.5 2.4-1.6 1.8-2.1 3.9-3.7 5.7-5.8 1.5-1 2.1-1.7 2.8-2.7.7-.9 1.5-2.2 3.2-4.3-1.5 1.6-2.9 3.3-4.5 4.7-.7.8-.3.6.2.3-.9 1.1-1.9 2-2.9 2.8-.9.7 1-1.3 1.4-1.5-.6.2-4.6 2.9-6.1 5-.7.3-2.1 1.5-3.6 2.8s-3.2 2.8-4.4 3.9c-1 .5-.7 0-1.9 1.5-1 .7-2.1 1.4-3.1 2.2-1 .7-2.1 1.4-3.1 2.2-2.1 1.5-4.1 3.1-6 4.8-.3-.4-4.5 3-3.5 1.6-.6.6-2 1.6-3.6 2.8.7-.3 1.4-.9 2.1-1.2-.8.6-1.6 1.2-2.4 1.9-.4.1-.4-.1.3-.7-1.2.5-2.2 1.4-3.4 1.9-.7.7-.2.4-.7.9-1.1.4-2.1.8-3 1.8-.7.3-1.5.5-2.2 1.1-1.2.6 2-1.7-.2-.5-.7.8-2.9 2.3-5.1 3.7-2.3 1.3-4.6 2.4-5.5 2.6-1.6.7-.4.5-1.6 1.3-.4.3-.9.5-1.3.8-1.7.7-.6-.1-2.3.6-1.3 1.1-3.5 2.1-5.8 3.2s-4.8 2.2-7 3.1c-1 .8-2.1 1.2-3.1 1.8 2.3-.6 1.7-1.1 4-1.9-1 .8-.7.6.5.4-2.8 1.9-5.4 2.7-6.3 2.7 1.1-.8 2.5-.7 3.6-1.6-2 .9-3.1.8-1.5-.2-2.9 1.3-5.7 2.3-8.6 3.5.7-.9.4-.4-1.9.2 1.5-.7 3-1.2 4.6-1.6.8-.5-1.2.2-.1-.5-1.6.9-3.3 1.3-5 2-1.1.7.7.2 1.9 0-2.6 1.1-5.2 1.9-7.8 3.3-.3.4.6.2.1.7-2.7 1.2-.1-.4-2.3.3-.5 0 .8-.4 1.3-.8-.7.1-1.6.4-2.6.7-1 .3-2.1.6-3.3 1-2.3.7-4.6 1.4-6.3 1.6-.9.4-1.9.8-2.8 1.2-.9.3-1.9.6-2.8.8-1.9.5-3.8.9-5.7 1.4-1.3-.1 2.6-1.1 2.8-1.7-2.9.4-3.5 1.6-4.2.9-.8.5-.9.8 0 .9-.8.3-1.7.5-2.5.8-.8.2-1.7.4-2.5.6-1.7.3-3.3.6-5 .9-.5.5-1.6.8-2.9 1.1s-2.7.5-3.9.7c-.5 0 .5-.3 1-.5.8-.2 1.6-.2 2.4-.2.6-.2.8-.3.5-.4.3-.1.6-.3 1-.4-1.7.2-3.5 1.1-5.2.8 1.1-.4 2.2-.4 3.4-.7.3-.3-.4-.2-1.3 0s-2 .4-2.5.4c3.2-1.3-3.7.5-6.2.6.2.2-.5.8-2.5 1.2 1.3-.7-1.2-.2-1.3-.7-.5.2-1 .3-1.5.3.9.4-2.4.7-3 1.2-1.3.1-5.4.1-8.2.9-1.7 0-.1-.4.1-.7-2.7 0-5.2.1-6.7 0-.7.2-1.3.3-2 .5l1.9.2c1.9-.6 3.5-.2 5.3-.3-2.3.5-4.5.1-6.8.6.1-.5-1.2-.5-3-.5-.9 0-1.9.1-3 .1-1 0-2.1 0-3-.2 1.4.1 2.9-.1 4.3 0 .2-.4-3.8-.2-5.3-.1-.5.2-.4.5-1.1.7-2.7.2-1.2-.4-2.3-.6-.7.2-1.3.1-1.9 0-.1.3-.7.4-1.6.4s-2.1-.1-3.2-.4c1.3.6-.8.2-3.1.6-2.6-.6 3.6-.3.2-.8-1 .6-2.8.4-4.1.7-2.3-.5 2.9-.3 2.2-.6-2.4-.1-2.9-.1-4.5.3-2.1-.4 1.7-.1 1.1-.5-4.1-.7-5.5-.2-9.8-.3-1.1-.3-.5-.4-2.2-.8-2.2.2-4.2-.3-6.3-.4-.5-.3.5-.4.3-.6.7-.1 1.3.1 2 .1 1.6.3-.2.3-.2.5 2.9.2 3.9-.1 7.3.4-2-.3-4-.8-6.2-.8-1.5-.4 2.6.2 1.1-.2 2.2.3 4.5.5 6.7.7.4-.1-.5-.3.1-.3 1.9 0 .5.4 2.3.6.9-.1 1.7 0 2.4.1.5-1 4.6.4 7.3-.2 1.7.3-.5.5 1.8.6 1.5-.3-.3-.7 1.2-1-1.2-.3-2.6 0-3.8-.3-.5.1.4.2.9.4-1.7.2-3.2 0-4.8-.2-.2-.3 1.6-.1 2.1-.4 1.9 0 3.8.2 5.8 0 1.7.3-.5.5 1.8.6 3.4-1.3 13.6-.4 19.8-1.1.3.2-2 .6-1.1.8-5.7.4-11.4 0-17.2.2-1 .3 2.1.3 2.9 0 1.4.3 3.4.2 1.3.6 1.6-.1 3.2-.2 4.9-.3.4.2-1.4.5.8.7 1.6-.5 2.1-.4 4.4-.5 1.8.1-.5.4 1.3.5 3.4-.1 7.7-.7 9.7-1.2-.1.1 1 .2.4.4-1.4.4-.1-.4-1.9.2 2.8.1 5.8-.6 8.6-.6 1.2-.3 2.3-.7 3.4-1 .9.1 1 .4 2.8.3 2-.9-1.2-.3-1.8-.6 1.8-.6 3.4 0 5.2-.8 2.2 0-2 1 .8.9.5-.2-.2-.1-.4-.2 3.7-1 7.3-1.2 11-1.9 1.9-.8-1.1-.5-2.8-.1 1.8-.5 3.5-1.8 5.2-1.8.8.1-2 .5-1.4.8.9.2 1.9-.6 2.8-.5 1.1-.6-.2-.4 2.4-1.1 1.1-.1 1.1.1 0 .5 2.6-.2 2.3-1.2 4.7-1.5.7.1-2.5 1.2-.5.9 1.8-.7 1.2-.7 2.3-1.3.6-.2 1.2-.4 1.9-.5.1.3-2.5 1-1.9 1.2 2.4-.7 1.8-.3 4.2-.5 4.4-.8 8.9-2.9 12.1-3.9-1.3.7.6.2 3.2-.6 1.3-.4 2.7-1 4.1-1.4 1.3-.5 2.5-.9 3.3-1.2-.1.5-4.2 1.6-5.9 2.7 3.8-1 6.9-3.1 9.6-3.6.4-.3-.5-.1-1 0 1.2-.9 2.4-.9 3.6-1.8 3.5-.6 7.8-3.4 9.9-3.6 4-2.3 6.4-3.1 9.5-5.3-1.6.8-.5.1-1.8.5 4.7-2.9 6.2-2.8 6.7-2.3 1-.9 0-.8.6-1.5 1.9-.9 3.7-2 5.6-2.9.7-.1-2.2 1.4-2.9 2.1-.5 0 6.6-3.3 7.6-4.3 1-.5 1.1-.1.1.3.2.4 1.7-1 2.5-1.6.4-.4-.5 0-.9.2 1.7-1.1 3.9-2.2 6.3-3.5 2.3-1.3 4.8-2.9 6.9-4.7.7-.3 1.4-.7 2.2-1 .7-.7 1.7-1 2.3-1.9 3.7-1.7 6.8-5.2 10.4-7 3.2-3.3 6.7-5.8 10.3-8.3-1.9 2.1-1.9 2.3-3.4 3.9.9-.8 1.9-1.6 2.7-2.5.9-.9 1.7-1.7 2.4-2.5 1.5-1.6 2.9-2.8 3.9-3.4-.5-.5 1.9-3.3.5-3l2.7-2.4 2.7-2.4c-.3-.2-1.9 1.3-3.5 2.8s-3.2 2.8-3.4 2.4c.6-.8 1.6-1.1 2.3-1.7 0-.7 2.8-2.9 3.8-4.7-.1.5-.1.9 1.8-.7-.4-.2.7-1.4 2-3.1 1.3-.8 3.3-2.6 3.1-3.1 1.3-1.1.9-.2 2.2-1.8.8-.5 0 .3-.7 1.5 1.5-1.5 2.9-3.1 4.2-4.9 1.3-1-.8 1.8.5.7.5-.8.5-1.8 2-3 .1-.4.7-1.5-.7-.1 1.6-2.3 1.4-1.9 1.8-3.2.4-1 1.5-1.2 1.9-2.2 1.2-2-1 .7-1.5 1.1.8-1.1 1.7-1.9 2.4-3.1.8-.6-1 2 .4.6.1-.8 2.1-2.9 1.6-1.9 1.3-2.9 4.4-6.7 7.4-9.8 0-.3.5-1.4.4-1.7-1.3 1.6-.8.8-2 2-.7 1.1.1.4.6-.1-2.3 3.4-5 6.3-7.6 9.4 1.9-3 4.3-5.2 6.1-8.2-1.1 1.4-2.2 2.7-3.4 4 1-1.7 2.5-3 3.2-5 .7-.6-.2 1 1-.3.4-.8.9-1.4 1.2-2.2.8-1 .3 0 0 .7.6-.7 1-1.7 1.7-2.3-.1-.8 1.9-3.2 1.7-3.8 1.7-2 .4.5 1.7-1 .4-.9 1.4-2.3 2.2-3.4.8-1.2 1.5-2.1 1.7-2.2 1.3-2.9 1.7-2.5 3-5.1.8-.8-.7 1.4-.7 1.9 1.7-2.1 2.8-4.8 4.3-7.1.3-1.1.3-1.4.1-1.9.8-1.4 2.2-4.3 1.9-4.7 1.1-1.8-.3 1.3.8-.5.4-.6.7-1.3 1-2s.6-1.4 1-1.9c.6-1.8-.1-.8.7-2.5.9-1.3-.5 2.4-.2 2.4-.3 1.2-1.4 1.7-1.5 3.1.6-.1 2.1-3.7 2.8-5.7.9-1.5.5-.3 1.2-1.5.4-1.2 1.1-3 1.7-4.6s1.1-3 1.5-3.2c.4-.7.2-.9 0-.6.6-1.7 1.2-3.5 2.2-4.9.2-1.3.8-2.2.9-3.5-.5 2.2-2.1 3.6-2.5 5.9-.9 1.1-.3-.9-1.8 2.2.6-3 1.4-3.4 1.7-4 .4-2-1 1.6-1.3 1.4-.1 1.1-.5 2-1.1 2.7-.2 1.4-.8 2.3-.6 2.6.8-1.4 1.1-2.8 1.3-2-.3 1.2-1.1 1.9-1.4 3.1-.6.6.2-1.5-1.1 1 .9-.6-.9 2-1.6 3.6-.2.2-.4-.6.3-1.6-.6 1.2-2.3 3.7-3.1 6-1.3 1.2-2.4 4.2-3.6 5-1 2.3-.6 2.3-1.9 4.7-.3.4.2-.9.4-1.6-1.4 1.5-2.1 3.6-3.3 5.3-.2.8.1.5.7-.6-.4 1.5-1.7 3-1.4 3.2-.1.1-.7.2-1.2 1.4-.7.6-.1-.3.4-1.6-1.5 2-2.5 4.6-4.3 6.3.2 1.4-2.2 2.7-2.9 5.1-.1-.8-1.3 1.6-1.7 1.6.9-1.5 1.8-3.1 3.1-4.3.4-1.8 3.1-5.4 4.9-7.7-.1-.3-.2-.7.7-2.6-.9 2.3-2.9 5.1-4.8 7.9-2 2.8-4 5.5-4.7 8-1.7 2.5-3.4 5.1-5.4 7.3-.3.8 0 .5.8-.5-.5.9-.9 1.8-1.4 2.8-.5.8-1.2 1.6-1.8 2.2.7-1.4 1.7-2.3 2.3-3.9-1 1-1.8 2.2-2.8 3.2l-.9 1.8c-.5.6-1 1.2-1.6 1.8-.7.6-.1-.5.5-1.6-2.3 2.7-.7 2.2-3.3 4.9-.2.4-.1.5.6 0-.5.9-1.1 1.7-1.7 2.4.4-1.1-.7-.2-2 1.2-1.4 1.3-3.1 3.1-4.1 3.9.9-1.2 2.6-2.9 3.9-4.5s2.4-3 2.1-3.1c1.8-2.3 3.8-4.3 5.5-6.7-.1-.6-2.2 2.7-3.2 3.5 1.3-2 1.4-1.8 2.1-3.4 1.2-.4 1.7-2.2 2.8-2.4 1.2-2.2.3-1.5-.3-1.1 1-1.6 1.4-1.2 2-1.9.5-1.1 1.2-1.9 1.7-3.1 1.1-1.3.6-.2 1.5-1.2.9-2.1.7-1.1 1.9-2.8 1-2.1 2.4-3.8 3.4-5.9 1.2-1.5.1.5.7 0-1.2 2.1-3.8 5.4-3.1 5.6.7-1 1.2-2.4 1.9-3.5.1 0 .3-.1.8-.5.9-2 1.1-2.4 2.3-3.7 1.2-2.6-.6-.2.5-2.8.2-.5.5-.8.7-1.3 1-1.3.4.2.5.5.9-.8 1.3-2.2 2.2-3.1.4-.9.1-.6-.3-.2 1.4-2.6 3.3-4.6 4-7.7 1.3-2.2 2.4-4.3 3.4-6.2.9-2 1.8-3.8 3-5.6.3-1.7 1.3-3 1.9-4.5-.1-.8-.4-.2 0-1.8-1.2 1.9-1.2 1.9-2.1 3.1-.1 1.2.2.4-.3 2.2-.8 2-1.9 3.7-2.4 5.9-.8.9.4-2.3.3-2.8-.7.9-1.9 4.4-2.2 3.6-1.6 2.7-2.6 6-4.6 8.4.7-1.9 1.7-3.5 2.4-5.3-.6 1.1-1.2 2.3-2 3.2 0 .7-.2 1.1-.9 1.7-.3.9-.7 1.8-1.1 2.6-.5.8-1 1.5-1.5 2.3-1 1.5-2.1 2.9-2.9 4.6-1.1 1.5-.1-.4.1-1.2-.9.9-1.3 2.2-2 3.2.6-.5.9-.3 2.4-2.2.2 0 .1.3.1.7-.5 1-1.2 1.9-1.8 2.8-.4.3.3-1.2-.9.4-.6 1.1-.3 1-.5 1.5-.3.6-.8 1-1 1.6-.9.7.4-1 .2-1.2.6-1.4 1.8-2.1 2.2-3.7-8 12.3-16.8 24.2-26.9 34.7-.2 1.3-3.6 4.6-4.5 4.8-.5 1 .8.2.3 1.3-1.8 2.1-2 1.4-3.8 3.5-.4.2.2-.5.5-1-1.7 1.6-3.1 3.7-5 5.2 1.6-2.7-4.4 3.4-7.5 5.4-1.3 1.5.3.2.9-.2-2.8 2.6-1.6 1.3-4.4 3.5-.4.5 1.1-.6.6.1-.7.7-1.5 1.2-2.2 1.7 0 .3-.3.7-1.2 1.7-1.5 1.6-1.3.5-2.9 2.5-.6.3-.3-.2.5-1.1-.6.4-1 .8-1.5 1.1-.4.3-.8.5-1.1.8-.7.5-1.2.8-1.8 1.2-1.1.8-2.3 1.7-5.1 4-.3.1-.4 0 .2-.7-.8.8-1.7 1.5-2.5 2.2-.9.7-1.8 1.3-2.7 1.9-1.8 1.2-3.6 2.5-5.4 3.9-.2 0-.4 0-.1-.3-1.4 1-2.8 2.1-4.2 3.4-1.3.6-1.4.5-.2-.5-2.4 1.6-4.8 2.9-7.2 4.3-2.5 1.3-5 2.7-7.3 4.5-1.6.7.2-.6-1.4.1.8-.6 1.7-.8 2.4-1.6-3.7 2.4-8.6 5.3-13.7 7.4-.6.7 3.4-1.4 1 .3-2.3.8-4.2 1.2-6.1 2.2-1.2 1.1 1.8-.8 3.1-1.1-1.5 1.1-3.1 1.6-4.7 2.4-.1-.3.3-.7.7-1.3-2.2 1-4 2-5.9 3-2 .9-4 1.8-6.6 2.6-.4 0 .5-.5 0-.3-.7.1-1.5.5-2.2.6-1.6 1-.7.6-2.6 1.5-.2-.1-.6-.1-1.8.1-2.2.9-4.5 1.5-6.7 2.3-1.1.1 1.4-.8 1.8-.8-1.8 0-5.4 1.9-6.7 2.7-2.4.4-.3-.4.9-.9-3.2.9-6.3 2.5-9.5 3-1.1.2 1.4-.9 1.8-.7-.6-.2-2.3.2-4.5.7.7-.2 2.7-.8.9-.6.9-.3 1.8-.3 2.7-.9-1.5.1-3 .9-4.5 1 .6.1-.6.8-2.3.9-.5.3.8-.1 1.4 0-1.8.6-3.7 1-5.5 1.9-2.2.2 1-.7-.9-.5-.7.3-1.6.6-2.4.8-.8.3-1.4.4-1.4.6-3.9.6-8.4 1.1-11.1 1.7-.1.2.4.4-1.5.8-1.5-.3 1.2-.9-2.7-.5 1.3-.5 2.5-.4 3.7-.6-.1-.4-4.3.6-6 .6-.2.2.6.2-.5.5-1.5 0-2.5.2-3.6-.1-1.8.4-.6.5-2.4.9-1.4.1-2.6-.6-5.1.3-1.3-.1-.1-.3-1.8-.4 1.1-.3 2.2-.3 3.3-.3-1.7-.1-3.7-.1-5.8 0-1.1 0-2.2.1-3.3.2-1.1 0-2.3.1-3.5.1-2.4.1-4.8.2-7.1.2-1.2.1-2.3 0-3.5 0-1.1 0-2.2-.1-3.3-.2 0-.2.9-.4 2.1-.6-1.7-.2-3.5.1-5.1-.3-1.3.2-.9.4-.6.6-1 0-2.3-.1-3.6-.2-1.3-.2-2.8-.4-4.2-.5-2.9-.3-5.8-.5-8.1-.1-1.2-.5 1.7-.2 1.6-.5-.7-.1-1.3-.1-1.9-.2-.5-.1-.9-.1-1.4-.2-.8-.1-1.6-.2-2.7-.4-.5.1 0 .3-.6.3-3.1-.3-7.8-1.8-9.6-1.5-1-.4-.4-.5-2-1-1.4-.2-3 0-4.1-.7-.6.1-1.4.1-2.3-.1-.5-.1-.9-.2-1.4-.3s-1-.3-1.5-.4c-2.1-.6-4.3-1.2-6.3-1.4.4-.1-1.5-.7-.6-.7-1.2-.2-2.4-.3-3.5-.6s-2.2-.7-3.2-1.3c-1-.1-1.9-.2-2.8-.5-.1-.1-.1-.3-.7-.6-.5.1-3-.6-1.8-.5-.8-.1-1.7-.3-2.8-.6-1.1-.4-2.2-.8-3.4-1.3.4.5-.8.1-2.4-.4-.4-.3.6 0 1.1 0-2.1-.9-4.4-1.5-6.5-2.4 1.9.2 2.2.9 3.3.7-1.3-.5-2.5-1.1-3.9-1.5-.4-.3.9.1 1.6.1 1.6.6 2.9 1.6 4.7 1.7-2-.6-.8-.9-2.8-1.4-.3-.5 1.3 0 2.9.5.7.4-.5.2-.8.4 1.6.8 2.4.6 3.3.7 1.5.5 3 .9 4.3 1.6-3.2-1.1-2.7-.3-5-1.3-1 0 2.7 1.1-.3.4-1.8-.3.7-.3-1.2-.7-2.5-.5-.4.1.6.7-.6-.2-1.2-.3-1.8-.6.9.5 2.8 1.1 4.9 1.8 1 .4 2.2.7 3.2 1 1.1.3 2 .6 2.9.9-.7-.7 1.7.4 2 .1-2.1-.6-4.2-1.1-6.4-1.5-.5-1.3 6.6 1.1 9 1.5 3.1 1.3-.2.8 1.6 1.8.4-.4 2.9.9 4.7.8-1.4-.2-5.3-1.4-3.7-1.5 2.2 1.1 2.5.3 5.8 1.5 1.7.7-.7.3 1 1l2.5.2c-.6-.3-1.2-.5-.7-.5 1.1.2 2.2.3 3.3.6 1.1.2 2.2.3 3.2.5 2.1.4 4.3.7 6.4 1-1.2-.6-2.7-.6-4-1 2.7.2 7.3.9 8.1 1.6-.6-.1-1.2-.2-1.8-.2-.6-.1-1.3-.1-1.9 0-.6.2 2.1.5 1.2.7 2.9.4 5.6 0 7.3 1 1.2-.2 2.2.2 3.2.4 0-.1 1.1-.1.6-.3 1.6.4 4 .5 6.1.6 2.1.1 4 .3 4.9.7 1 .1 2 .1 3 .1h3c0 .1-.2.3-.6.4 1.7.2 1.3-.3 2.4-.3 1.8.3.6.6-.2.8 2.1.2 4.7.1 5.4.7.7-.3-1-.7 1.2-1-2.8-.4-1.3.7-4.7.2-.5-.4.3-.5 2-.6 1.8 0 3.5.3 5.3.4 1.7.1 3.5.2 5.3.1 1.2.5-1.6.3-2.9.6 1.5.2 3.1-.1 4.7-.2-.1-.1-.2-.2-.9-.3 1.2-.1 1.7.2 1.9-.2 1.3.1 2.6 0 3.9-.1 1.3-.2 2.6-.3 3.9 0 .4-.4 4.3-.7 4.6-.3.8-.4 2.3-.7 4-.9 1.6-.2 3.4-.4 4.9-.4.9-.2.4-.3 1-.5 2.4 0 5.1-.6 5 0 1.1-.3 2.2-.7 3.3-1.1 3.1-.2-1 .7.8.7 2-.7 4-1 6-1.1.3-.3 2.2-1 2.8-1.3 1.2.1-2.2 1.1-.1 1 .1-.8 5.8-2.1 8.6-2.3 2.3-.7 2-1.1 4.5-1.6-.1.3-1.8 1.2.9.3.5.1-.7.8-2.2 1.4.3 0 .6-.1.9-.2.3 0 .6 0 .9-.1 1.4-.6.4-.6 1.8-1.2 2.3-.9 2-.1 4.5-.5 1.6-.8 3.3-.7 4.9-1.5-1.8.1-3.6.6-5.4 1.3 0-.2-1.1-.1-2.2 0 1.9-.4 1.7-.8 4-1 2-.7-1.1 0 .9-.8.5 0 1.1-.1 1.8-.3.7-.2 1.5-.4 2.3-.7 1.7-.5 3.5-1.1 5.1-1.6.5-.4-2.6.6-3.5 1-.6-.5 3.7-1.8 5.7-2.3 1.4 0-3.1 1-1.7.9 2.3-.3 1.7-.9 4-1.4-2.4 1.8 6.6-2.7 9.6-3 1-.7 4.1-2.4 6.3-3.7-.1.8 6.7-2.8 7.6-3.6.7-.2 1.3-.4.9-.1.6-.6 2.4-1.2 4.1-2.4 1.5-.1 2.9-1.4 5.7-3.2.6-.1-.3.6 1.4-.1 2.5-1.6 4.4-2.7 6.3-3.8 1.9-1.1 3.8-2.4 6.3-4.1.7-.2-.3.7 1.3-.3-.2-.7 2.6-1.9 4-2.3-1 .1 1.4-2 3.6-3.3.8-.1-2.4 1.7-1.8 1.7.7-.3 1.3-.8 2-1.1.5-.6-.5-.1 1-1.2.5-.2-.9 1-.2.7 2.5-1.5 3.2-2.3 2.9-2.5 1.8-1.5.2.5 2-1-.4-.2 1.1-1.6 2.7-2.9.9 0 1.1-.9 2.7-1.6-.2-.3 1.7-1.8 2.9-2.4.2.1-.7.7-.2.7.4-.9 6.1-5.1 5-5.2 1.4-.9 2.4-2.7 3.8-3.5 1.2-.5-1 1.2-1.8 2.4 1.4-1 2.6-2.2 3.9-3.3 0-1.5 4.9-5.4 6.1-6.7.1.4-1.5 2-2.1 2.8-.8.5-.5.1-.2-.3-1.6 1.2-.9 1.2-2.5 2.9 2.3-2 2.8-2.6 5.1-3.9 1.3-1.5-.4-.2 0-.8 1.2-.7 3.5-3.2 6-5.8 1.2-1.3 2.5-2.6 3.6-3.9 1.1-1.2 2-2.3 2.7-3 .4-.5 2.4-3.2 1.2-2.3 1.4-2.1 3.3-3.1 2.9-3.8 1-.9.2.5.4.6-.5.7-1.1 1-1.7 1.5-.8 1.4 1.1-.4-.8 2 .8-.9 1.2-1.5 1.6-2.1.4-.6.9-1.3 1.7-2.6.2 0 .3 0 .8-.4.8-1.4-.7.6-.7-.1.8-1.2 1.8-2.1 2.5-3.5-1.2 1.3-2.3 2.6-3.5 4-1.1 1.3-2.4 2.6-3.6 3.9-2.4 2.6-4.7 5.3-7.2 7.8-1.5 1.3.6-1.1-.9.2-1.2 1.3-.7 1-1.4 2-1.5 1 .4-1.4 1.4-2.9.7-.7 1.4-1.4 2.2-2.1.8-.7 1.5-1.5 2.3-2.2 1.5-1.6 3.2-3.3 4.7-5.4.4-.5 1-1 1.5-1.4.5-.5 1-1 1.4-1.5-1.1.7-.8.5 1-1.6.9-1.4-.2-.3.3-1.1 2.6-2.2 2.8-3.2 4.7-5.7.9-.9.3.1 1.4-1.1-.4-.1.3-1.5 1.6-3 .9-.9-1.2 2.2.3.4.2-.6.7-1.1 1.1-1.5-.1-.2.1-.7.5-1.5.6-.8 1.2-1.4 1.7-2.1.5-.6.9-1.2 1.3-1.8.8-1.1 1.6-2.1 2.7-3.3-.1-1.2 1.8-2.4 2.6-4.5.8-.6-.9 1.6-1 2.3.5-.7.9-1.4 1.4-2.2.4-.7.9-1.4 1.4-2.1.4-.9.6-2 1.2-2.7-.6.2-.3-.3.6-2.5-1.7 3.1-2.9 4-4 6.7-1.2 1.2.4-1.2-.7-.1-.8 1.8-.7 2-.2 1.7-.5 1-1.2 1.8-1.6 2.9-.5-.3-1.9 2.4-2.6 3.7-.9.7.9-1.9.7-2.5-1 1.4-1 1.6-1.3 2.6-.2.2-.6.5-1 1.1-.5.5-1.2 1.3-1.9 2.3.2.1-.6 1.6-1.2 2.8-.5.3-.3-.5-1.6.8-.6 1.2-1.5 2-2.2 3 .2-.6-.6.2-.7-.1-1.5 2-3 3.9-4.6 5.8s-3.1 3.7-4.8 5.5c-1.5 2.5-3.8 4-5.4 6.3-1.9 1.4-3.9 3.6-5.7 5.7-.9 1-1.8 2-2.7 2.8-.9.8-1.7 1.4-2.5 1.7-.5.9-1.3 1.3-1.8 2.2-1.1.5-1.9 1.4-2.9 2 1.2-1.5 2.5-2.2 2.8-3.2-.3.9.9-.6 2.2-1.6.6-1.1-.6.2-1.5.9.7-.9 1.4-1.7 2.2-2.4.8-.7 1.5-1.5 2.3-2.2.7-.5-1.3 1.7-1.8 2.1.8-.1 3.8-3.9 5.5-5.5-.9.5-1.4 1.6-2.4 2.1 1.5-1.5 2.5-2.6 3.4-3.7.5-.5.9-1.1 1.4-1.7.5-.6 1-1.3 1.6-2 1-.8-1.7 2.6 0 .9.3-.6.7-1.1 1-1.7 1.4-1.4 2.9-3 4.2-4.5 1.3-1.5 2.3-3.2 3.1-4.3-1.3 2.4 1.3-1.1 2.8-2.9 0-.4.6-1.4-.6 0 1.5-3 2.5-2.5 3.8-5.2.9-.9.7-.1.8.2.8-.9 1.6-3 1.5-3.1 1-1.7 3.6-4 3.4-4.9.4-.7 2.3-3.1 2-2.3.3-.9 1.2-2.4 2.2-4.1.5-.8 1.1-1.7 1.7-2.6.6-.9 1.2-1.8 1.8-2.6-1.1 2.2-1 1.9-1.7 3.9 1-1.1 1.8-2.4 2.8-3.5.6-1.2-1.2.8-.1-.7.1-1-1 1.8-1.4 2.4-.6-.1 1.8-4.9 3.5-6.6.8-1.3 1.4-2.8 1.9-4.3.6-1.5 1.2-2.9 2.1-4.1l.6-1.8c.8-1.3.2.3.4.3.5-.8.8-1.7 1.1-2.5.4-.9.7-1.7 1.2-2.5.7-.7-.5 1.7-.7 2.3 1.1-2.4 1.9-4.7 2.9-6.8.9-2.1 1.9-3.9 2.8-5.2.5-1.4 1.2-2.8 1.4-4.4-.5.9-.7 1.1-.5.2.5-.7 1.1-2.3 1.8-4.1.3-.9.7-1.8 1.1-2.7.3-.9.7-1.7 1.1-2.4-.2 1.1-.3 2.3-.9 3.2.6-.7 2.2-5.3 3-7.6.3-2.2-.5 1.5-1.1 1.9.3-1.6 1-2.9 1.2-4.5-.2.3-.4.2-.2-.7-.6 1-.6 1.6-.9 1.5.2-.6.4-1.2.5-1.8 1.3-1.9 1.3-2.6 2.4-5.3-.1 1.7-1.1 2.8-1.1 4.5.6-.9.7-2 1.3-2.8-.6.7.4-3.4.9-5.1.2-.4.1.5 0 1.1.7-1 .7-2.3 1.3-3.3.1-.8-.7 1-.7.6.3-1.6.7-3.1 1.1-4.7.4-1.5.8-3.1 1.1-4.7-.4-.2-.5 2.3-1 3.5-.1.2-.2-.1-.3.3.7-2.2.5-2.9 1-5.5-.5-.1-.8 2.1-.7 3.1-.7 1.9 0-2.2-.7.6-2.2-.2-1.5-3.3-2.4-1.3zm-95.2 136.1c-1.2 1.3-2.7 1.9-4 2.7 1.2-1.1 2.6-1.9 4-2.7zm-125.1 40.9c1.4-.5 4.4-.4 2.3-.8 2.5-.4 4.9-.4 7.3-.4-1.2.4-1.5.2-2.7.9-.7-.1-1.4-.3-2.1-.1-.6.2.3.2-.1.3-1.5 0-3.2.5-4.7.1zM472.7 282c1 1.4 1.1.9 1.7 2.9-.2.1-1.4-1.7-1.7-2.9zm7.6-5.3c1.6 2.7 1.9 2.9 3.5 5.1.1 1.1.8 2.1 1.5 3.1.3 1.5.4 1.8.3 2.8 1.4 2.3 1 .6 1-.2 1.5 3.8.5 3.6-.9 1.6-.4-1.6-1.2-3.2-2.1-4.7s-1.8-3.1-2.4-4.6c-.4-1.7 1 1.6 1 .8-.9-1.3-2.2-3.8-1.9-3.9zm-250.6-139c-1.8.4-3.6.2-5.4.4 1.9-.4 3.6-.5 5.4-.4zM89.3 193.2c-.8.2-3.4 2.3-2.9 1.5 1.3-.5 3.9-2.9 2.9-1.5zm-72.4 88.9c.7-1.1 1-2.5 1.9-3.3-.2 1.1-1.9 4.1-1.9 3.3zm384.4 325.6c1.8-1.3 3.5-2.5 5.4-3.5-1.5 1.1-5.1 3.8-5.4 3.5zm-37.4 15.9c.1-.4 7.8-4.2 6.6-3-2.3.6-4.4 2.3-6.6 3zm119.3-118.9c-.1.6.1.4-.3 1.6-.5.6-.8 1.4-1.3 2 .2-.7.4-1.3.7-2 .2-.6.5-1.1.9-1.6zM311.6 630.4c4.1-1.2 5.9-1.6 9.4-2.5-3.1 1.2-6.2 2-9.4 2.5zm80.6-37.6c.6-.4 1.7-1.1 2.6-1.8.9-.6 1.6-1.2 1.7-1-.3.2-.7.5-1.1.9-.5.3-1 .7-1.4 1-.9.7-1.7 1.1-1.8.9zm35.1-29.5c-.1-.1.7-1.8 1.8-2.3.7-.4-1.2 2-1.8 2.3zm52.3-101.4c.4-.9 0-.6.2-1.5.9-1 .5-2.8 1.4-3.8-.1 1.8-1.3 5.4-1.6 5.3zm-28 56.7c.7-1 1-2.3 1.9-3.1-.3 1-.7 1.7-1.1 2.2-.5.5-.8.8-.8.9zm-40.9 45.3c-.1-.4 2-2.3 3.2-3-.8 1.2-2 2.1-3.2 3zm-9.6 8.4c1-1.2 4-3.5 4.2-3.1-1.5.9-2.7 2.4-4.2 3.1zm70.7-59c-.7 1.4-1.5 2.8-2.3 4.2s-1.6 2.8-2.5 4.1c.6-1.4 1.6-3.3 2.5-4.8.5-.8.9-1.5 1.3-2.1.4-.7.7-1.2 1-1.4zm-104.3 76c.1-.5 2.6-2.1 4-2.6-1.2 1.2-2.6 1.9-4 2.6zm52-26c1.1-1.1 2-2.4 3.2-3.3-.8 1.1-3.2 3.8-3.2 3.3zm53.4-49c.5-.5 1.7-3.4 1.6-2.3-.6 1.1-1.8 3.9-1.6 2.3zm-1.4 3.2c-.8.4-.8 1.2-1.9 2.7.3-.8-.7.7-.6.1 1.2-2 1.1-1.2 1.9-3.3l.9-1.1c-.1.6.2.4-.3 1.6zm-5.5 7c.8-1.4 1.4-3 2.4-4.1-.4 1.7-1.3 3-2.4 4.1zm-42.4 40.4c-.6.8-1.2 1.5-1.8 2.1 1.3-1.7-.1-1.4 2.1-3.4.7-.2-1.6 2.3-.3 1.3zm34.5-27.7l.9-1.8c.3-.3.6-.7 1-1-.5 1.2-1.2 1.9-1.9 2.8zm19.2-21.3c.8-.3.9-1.8 1.9-3.4.6.2-3 6.6-1.9 3.4zm-61 56.2c-1.2.9-2.3 2.1-3.4 3.2-1.1 1-2.1 1.9-3 2.1.1.6-2.4 2.7-3.8 3.5 3.3-3 2.4-3 5.5-6.1 1.7-.5 1.2-1.2 2.3-1.4 1.6-1.7 4.9-5.3 5.7-5.4-.3.2-2.1 2-1.3 1.4 1.1-1.2 2.3-2.1 3.4-3-.7 1.2-1.7 1.8-2.8 2.4-.8 1.2-2.8 2.9-2.6 3.3zm-43.7 20.5c-.1-.4 2.1-1.7 3.3-2.4 0 .4-2.1 1.8-3.3 2.4zm51.7-26.5c-.5.3-1 .7-1.5 1 .5-.9 1.1-1.6 1.9-2.2-1.4 1.7.9-.4-.4 1.2zm43.7-36c.3-.8.7-1.3 1.2-1.9.5-.6.9-1.1 1.1-1.9 1-1.2.4.6 1.7-1.7-1.3 3.4-2.3 3.2-4 5.5zm-19.7 19.4c.7-1.3 1.4-2.7 2.5-3.6-.8 1.2-1.4 2.8-2.5 3.6zm13.6-12.9c.6-.5.4.3-.2 1.5s-1.6 2.7-2.4 3.4c-.2-.2.4-1.5 1-2.4.4.3 1.3-1.4 1.6-2.5zm-68.2 52.5c.2.4 1.5-1 2.1-1.8 1-.7 1.4-.9 1.6-.8 1.2-1.2 2.5-2.1 3.8-3.1.6-.5 1.3-.9 1.9-1.4s1.2-1.1 1.8-1.7c1.2-.8.2.8 1.9-1.3 1.3-.8 1.7-.2-.4 1.2.3-.4.6-.8-.2-.3.1.6-.9 1.6-2.2 2.9-1.4 1.2-3.1 2.4-4.2 3.5-.7.3-1.3.7-2 1-1.5 1.1-2.7 2.8-4.4 3.5.5-.9 3.8-3.7 5.7-4.9-.4.2.1-.3.7-.7-1.2.9-2.6 1.5-3.8 2.5-1.6 1.9-3.4 3.5-5.4 4.5 3-2.3 2-2.1 3.1-3.1zm52.7-36.7c-.4.8 1-.7.3.4-.8.4-1.1 1.7-1.9 2.1.7-1.4.3-1.3 1.3-3 .4-.3.7-.6 1.1-.9-.3.5-.6.9-.8 1.4zm-118.3 54.9c-.6 0 2-1.4 2.8-1.3-1 .5-1.8 1.3-2.8 1.3zm20.2-2.3c.9-.9 5.2-2.4 3.6-1.6-1.2.5-2.3 1.5-3.6 1.6zm103.3-54.2c.3-.6.7-1.2 1-1.8.4-.3 1.1-1 .8-.5-.6.7-.4 1.2-1.8 2.3zm-12.9 12.5c.5-.8.3-.7-.6 0 .4-.7.9-1.4 1.3-2.2 1-1 2.1-1.9 3.1-2.9-1.3 1.6-2.5 3.4-3.8 5.1zm12.4-11.6c-.4 1 0 .8.2 1-.7.6-1.1 1.6-1.9 2.1 2.1-3.6-2.4 2.5-2 1.3 1.4-1.3 3.8-5.3 4.5-5-.3.2-.5.4-.8.6zm-19 16.8c.9 0 2.2-2.3 3.8-3.6-.4 1.6-4.4 5.2-3.8 3.6zm-2.7 2.6c-1.3 1.2-.7-.1-1.5 1.1-.5.8.5.1 0 .9-.5.4-1 .7-1.6 1 .4-.6 1.1-1.4.1-.7.7-.9 1.3-2 2.2-2.6-.3.5-.6.9.2.3 1.1-1.4.2-.7 1.1-1.8 1.7-1.3-.4 1.2-.5 1.8zm-10.8 7.3c1.3-1.7 2.8-3.1 4.5-4.1-1.3 1.6-2.9 2.9-4.5 4.1zm28-20.9c-1.5 2-3.4 3.4-4.9 5.4 1.1-1.8 2.1-2.8 4-5-.2.5.4 0 .9-.4zm-62 39.1c.5-.4.9-.9 1.4-1.4 1.1-.3 2.1-1.1 3-2.1.4-.2.8-.4 1.2-.5-1.8 1.6-3.7 2.7-5.6 4zm54.6-31.7c1.1-.9 1.9-2.2 3-3.1-.6 1.2-3.1 3.8-3 3.1zm-111.4 47.9c2.2-1 4.4-1.5 6.6-2.5-.6.9-4.5 2-6.6 2.5zm119.8-53.9c.3-.1-.3 1-.6 1.6-.8 1.1-1.7 2-2.6 2.9-.5.2-.1-.6-.1-1-1.2 2.2-2.8 3.8-4.2 5.6-1.8 1-3.1 2.4-5.5 4.6.4-.7 1.5-1.9 2.9-3.3.7-.6 1.4-1.3 2-2 .6-.7 1.3-1.3 1.8-1.9-.7.5-.7.4-.6 0 1.9-2.2 2.6-2.7 1.9-1.5.7-.9 2.2-2.7 3.7-4.4 1.5-1.7 3-3.4 3.9-3.8-1.8 1.9-1.1 1.6-2.6 3.2zm-19.7 15.4c.3-.9.8-1.7 2.8-3.5-2.2 2.3-.4 1.2-2.8 3.5zm14.6-11.1c-.8.7-1.5 1.7-2.4 2.3.8-1.3 3.2-3.7 2.4-2.3zM379.1 600c-.7.3-1.3.8-1.9 1.3-.7.3-1.4.5-2.1.8-2.6 2-3.4 2-6.3 4 .8-.6-.7 0 .7-1 1.7-.6 3.3-1.7 4.8-2.7-.7.1-.9-.1.5-1.3 1.2-.6 2.4-1.3 3.6-1.8-1.1 1-2.3 1.5-3.4 2.6.8 0 3.7-2.1 4.1-1.9zm-1.3.3c1.2-1.1 2.5-1.8 4-2.3-1.3 1.1-2.7 1.6-4 2.3zm55.7-28.5c-1.6 1.4.7-1.2-.9.2.8-1.1 1.7-2 2.7-2.8.1.3-.9 1.7-1.8 2.6zM309.7 616c1.1-.5 2.2-1 3.3-1.1-1.1.6-2.2.8-3.3 1.1zm126.2-45.7c-.8.6-.5.1-1.2.7.6-1 1.5-1.8 2.4-2.4-.4.6-.8 1.2-1.2 1.7zm-34.8 22.6c-.7.4-1.2.6-1.3.5 1.6-1.3 3.1-2.8 4.9-3.7-1.1 1.3-2.5 1.8-3.6 3.2zm28.7-17.3c-2 1.5-3.7 3.7-5.7 5.2 1.9-1.7 3.5-4 5.6-5.5-.5.5.3-.1.1.3zm-9.4 6.2c-.4.6-.8 1.1-1.3 1.6-.5.2-1.5.8-1.4.4 1-.4 1.7-1.5 2.7-2zm11.5-7.1c-.3.7 2.5-1.9 1-.1-1.7 1.8-.2-.3-2 1.2l1.5-2.1c.5-.2 2.5-2.4 1.9-1.4-.7.9-1.6 1.5-2.4 2.4zm-67.7 33.5c1.8-.8 1.4-1.2 3.6-2.1-.8.8-3.8 2.8-3.6 2.1zm46.2-18.2c1.3-1.2 2.6-2.5 4-3.5-1.1 1.6-2.6 2.5-4 3.5zm-118.9 29.6c1-.3 2-.7 3-.6 0 .3-1.9.8-3 .6zm106.8-22.4c1.5-.9 2.8-2.2 4.3-2.9-.5.6-1.6 1.4-2.5 2.1-.9.5-1.8.9-1.8.8zm-43.1 15.5c-.9.5-1.9.9-2.9 1.3l-3 1.2c.8-.6 2.5-1.4 3.9-2 1.3-.6 2.4-1.1 2-.5zm63.8-23.1c1.4-1.6-.2.1-.9.3.7-1.1 1.8-1.3 2.6-2.3-1.5.6-2.6 1.9-4 2.7-.4.1-2 .8.1-.9-.6 1 1.5-1.1 2.1-1.2.6-.9 1.4-1.5 2.1-2.1.4-.3.8-.6 1.1-.9.4-.3.7-.7 1-1.1 1.3-.6 2-1.2 3.8-2.9.5-.7-.9.5-.6-.1 3.4-2.5 1.8-.5.7 1.4-.9.6-.4-.1-.6-.1-.5.7-1.3.9-1.8 1.6.7-.5 1.2-.7 1.3-.6-1.2 1.5-2.3 2.1-1.6 2.1-.8.8-1.7 1.6-2.7 2.1.4-.6 1.5-1.4 1-1.2-1.1 1.2-2.3 2.2-3.6 3.2zm-12.6 6.5c.2.3-1.2 1.2-2.2 2.1-.4 0-1.2.5-2 1.2-.9.6-1.9 1.4-2.8 1.9 1.6-1.8-1.7 1.2-2.6 1.2 1.6-1.4 3.5-2.2 5.2-3.5 2.8-2.8 1.6-3.1 4.9-5.3-2.1 1.9-4.3 4.9-.5 2.4zm-129.6 26.1c-.3-.2 2.3-.7.5-.7-2.4.5-1.3.7-2.3 1-.7-.1-1.4.1-2.1 0 1.4-.8 3.1-1.2 4.5-1.9 3 .3 3.6.2 6.8 0-1.8.7-4.4 1.3-7.4 1.6zm68.3-5c.6-.6 2-1.4 3.7-1.9-1.2.7-2.4 1.3-3.7 1.9zm82.7-34.3c.6-.8-1.1.6-.2-.5 1.6-1.7 2-1 .2.5zm-29.2 17.6c1-1 2-1.9 2.9-2.9.5-.3 1-.8 1.6-1 .3 0-.4.8-1.3 1.6s-2.2 1.7-3.2 2.3zm-56.9 18c-1.2.2-2.2.7-1.3.1.9-.2 1.7-.8 2.6-.8-.5.2-.9.4-1.3.7zm30.4-7c-2.3.9 1.4-1.6 2.8-2.1-.9.9-2 1.2-2.8 2.1zm43.6-20c-.7.6-2.4 1.6-1.4.4 1.1-.7 2.1-1.3 1.4-.4zM339.2 620c.2-.1.4-.3 0-.2-.7.4-1.4.7-2.1.9 1.4-.8 2.8-1.5 4.3-1.8-.8.4-1.5.9-2.2 1.1zm1.5 1.1c1.5-.3 2.9-1.4 4.3-1.7-1.1.9-4.5 2.2-4.3 1.7zm89.6-35.6c.5-1-1.6 1.3-1.1 1.1-1.1.7-.8.2-.6-.2 1.7-1.5 1.2-1.3 3.6-3.4-.4.7-.9 1.5-1.9 2.5zm-182.9 37.7c1.2-.2 2.3 0 3.5 0-1.3.3-2.4.4-3.5 0zm98.3.9c1-.7 2-1.1 3-1.2-1 .7-2 1-3 1.2zm-39.9 5c-2.1.2.4-.8 1.8-.7-1.2.5-.1.3-1.8.7zm32.3-2.5c-.9.6-2.5 1.2-3.8 1.7-1.4.4-2.6.6-2.8.5 1-.1 2-.4 2.9-.8s1.9-1 2.8-1.3c-.7.4 1.2-.6.9-.1zm-112.6-5.2c1.9.1 3.8.1 5.6.6-1.9.1-5.3-.1-5.6-.6zm169.5-9.8c.9-.5 3.8-2.4 3.4-1.8-.8.8-3.8 2.4-3.4 1.8zm-37.2 15.2c-1.6.2-3 1.1-4.5 1.4 1.6-1 3.3-1.3 4.8-2.6.9-.1 1.8-.8 2.7-.9-1.9 1.4-1.6 1.1-3 2.1zm-66.1 8.2c-1.7 0-2.4-.1-.4-.7 1.4-.2 1.8.2 4.1-.3-1.3.6-2.5.4-3.7 1zm72.2-6.5c1.6-1.1 3.1-2.2 4.8-2.9-1.6 1.1-3.2 2.4-4.8 2.9zm-39.9 7.2c1.1-.6 2.1-.9 3.2-1-1 .7-2.1.9-3.2 1zm14-1.2c1.6-.9 3.3-1.7 5-2-1.7.9-3.4 1.3-5 2zm-12.1 2.4c-.6.1-1.2.3-1.8.5-.6.2-1.2.4-1.9.6-1.2.4-2.5.8-3.7 1.1.8-.5 1.9-.9 3.2-1.3.7-.2 1.4-.4 2.2-.6.8-.2 1.6-.5 2.4-.8.5-.3.2-.4 1.4-.5-.1.1-.6.4-1.8 1zm-39.6 2.7c2.4-.8 4.7-1.1 7-1.4-2.4.7-4.7 1.1-7 1.4zm67.3-5.6c1.2-.7 2.4-1.2 3.6-1.8-.8.7.3.5-.8 1.3-1.9.6-1.1 0-2.8.5zm7.2-3.6c.8.1 1.9-.6 3.7-1.2-.8.4-1.5.8-2.1 1.3-.7.4-1.3.8-1.9 1.1-1.2.7-2.2 1.2-3.1 1.3 2.5-1.3 2.2-1.6 3.4-2.5zm-7.7 3c1-.1 4.1-2 3.7-1.2-1.7.7-3.3 1.6-5 1.9.8-.5.6-.6-.5-.2 1.5-.9 3-1.6 4.5-2.2-.7.5-3.6 1.7-2.7 1.7zm-32.7 6.3c1.3-.2 2.5-.8 3.7-.9-.9.6-4.3 1.3-3.7.9zm5.6-1.6c-1.3.6 1.4-.1-.4.8-2.1.5-1.4-.3.4-.8zm-10.7 1.4c-1.2.6-2.5.9-3.7 1.3-1.2-.1-2.5.3-3.8.5 2-.6 1.1-.4 2.8-1.2.8.2 1.5.2 3.3-.7.8-.1 1.3-.1 1.4.1zm-72.5-4.3c1.4-.3 3.3-.1 3.3-.5.3.1.6.1.9.2.3 0 .6-.1.9 0-.8.4-3.2.6-5.1.3zm-52.3-19.9c-1-.4-2.1-.5-1.9-.8 1.2 0 3.1.9 1.9.8zM349 635.6c1.4-.5 2.7-1.1 4.1-1.5-.5.5-1.6.9-2.6 1.2-.9.3-1.7.4-1.5.3zm-96.9 2.6c1.9-.2 3.7-.3 5.6-.1-1.9.3-3.8.3-5.6.1zm78.7 3.3c1-.2.5-.3 1.4-.7 2-.6 2.2-.1 4.7-1.4.2-.4-2.8.7-1.5-.1 1.8-.6 3-.8 3.8-.8-2.4 1.4-7.4 3.2-8.4 3zm-65.4-.6c-2 0-4.1.7-6.1.2 1.8-.3 3.5-.3 5.2-.7 1.2.1 1.6.2.9.5zm36.2 2.9c-.9.2-1.9.3-2.8.2 1.3-.6 4.2-.8 2.8-.2zm22.2-.2c.7-.3.8-.5.9-.6 1-.2 1.9-.4 2.8-.5-1.2.7-2.5 1-3.7 1.1zm-31.7 1.7c1.4-.3 2.9-1.1 4.3-1-1.4.5-2.8.9-4.3 1zm-13.6.4c1.9-.6 2.5-.2 3.4-.8.8 0 1.3.1 1.4.3-1.7.5-3.3.7-4.8.5zm10.4-1.1c-1.8 0-3.8.9-5.7.6.8-.3 2.3-.6 3.5-.7 1.3-.1 2.3-.2 2.2.1zm28.2-.2c1.3-.8 2.5-.7 3.8-.9-1.2.7-2.5.6-3.8.9zm-31.6 1.6c.7-.3 1.3-.3 1.9-.4.6-.1 1.3-.2 1.9-.3 0 .4-2.4.9-3.8.7zm-5.8 1.4c2.5-.7 3.6-.8 4-1.3 1.7-.2 1.1.2 1.8.3-1.3.5-2.6.5-3.9.8.6 0 1.9-.2 1.4.1-2.9.5-4.2.4-6.2.3.5-.2.3-.3 1.5-.6 1.9-.1.7.3 1.4.4zm-7.1-.2c1.6-.2 3.2-.5 4.8-.7 1.6-.2 3.2-.3 4.8-.5-.3.4-1.9.7-3.8.9s-4.1.3-5.8.3zm45.9-.4c2.4-.8 4.8-1.3 7.2-1.9-2.4.8-4.8 1.6-7.2 1.9zm-14.3.8c.2-.3.4-.8 2.4-1 0 .1-1.1.9-2.4 1zm3.3 1.2c-2.7.4 1.9-.8.5-.7-1.3.1-2.6.9-3.9.9 2.6-1 5.2-1.4 7.7-1.9-.6.5-3.2.9-4.3 1.7zm-38.5-2.4c-3.2.7-6.4.2-5.1-.4 1.4.2 1.1.4 5.1.4zm-.7 1.2c.8-.2 1.7-.4 2.5-.6.5.1 1.4.1.9.3-1.1-.2-2.4.7-3.4.3zm18.6 2.2c-1.4 0-.2-.4.6-.7.6 0 1.3-.2 1.9-.1-.8.2-1.6.5-2.5.8zm8 .6c-1.1-.1-1-.5.6-1 2.3-.1 1.3.7-.6 1zm-24.4-2.1c-1.5.5-3.8.2-3.8-.1 2.5-.5 1.7 0 3.8.1zm16.2 3.6c-.8-.1-1.6-.1-2.4 0 2.4-.5 2.9-.2 4.4-1 .7.4 2.4-.3 4.3-.3-1.1.3-2.1.5-3.2.7-1 .1-2.1.3-3.1.6zm-13.6.6c1.5.2 3.7-.1 5.7-.4 2-.3 3.8-.5 4.5-.3-1.4.2-4.1.6-6.4.9-2.2.3-4.1.3-3.8-.2zm2.9-.2c1-.3-.7-.3 1.1-.6.8 0 1.6-.1 2.4 0-2.2.3-1.3.5-3.5.6zm-17.2 1.3c-1.1-.3-2.3.1-3.4-.2 1.4-.2 2.7-.3 4-.2-.6.1-.1.2-.6.4zm-41.8-7.7c1.7.2 6.7.5 5.1 1-1.2-.6-5.3-.7-5.1-1zm-42.6-18.7c-1.9-.9.8-.5 2 .1-1.3-.2-.3.3-2-.1zm43.9 19.3c1.2-.1 2.2.3 3.3.5-1.3 0-1.4.5-2.6.2.5-.1-.6-.5-.7-.7zm-1.7.5c-2.3-.6 0-.9 1.7-.4-.2.2.3.5-1.7.4zm18.3 5.9c-1.3-.6-3-.1-4.3-.6 2.5-.1 5 .2 7.4.2-1 .1-2 .2-3.1.4zm-18.6-5.3l2-.1 1.3.4c-1.2.3-2.2-.1-3.3-.3zm-7.9-2.8c-2.6 0-2-.7-4.6-1.2 1.7.1 4.6.8 4.6 1.2zm-5.9-1.6l-1.7-.7c1.1-.1 4.5.4 3.8.7-1.3-.3-1.9 0-2.1 0zm-42.1-21c1 .4 1.9.9 2.9 1.4-3-1.2-6.1-2.3-9.1-3.6-3-1.3-5.8-2.8-8.7-4.3 2.1.3 3.2 1.8 5.2 2.2-1-.7-2-1.1-1-.9 1.9.9.8.8 2.6 1.8 2.1.5 3.6 1.7 5.7 2.1-1.1-.5-2.3-.9-3.2-1.7 1 .1 1.7.7 2.8.8 1.5.7-.8.4 1.4 1.1 1.4.3-1.1-.9.8-.3.9.3 1.7.7 2.5 1.2-.4.3-2.3-.2-1.9.2zm47.5 23.7c-2-.9-4.4-.9-6.5-1.6 1.4-.1-.1-.7 2.7-.3 2.2.6.3.5.6.8 1.5.2 2.8.5 4.4.6 1.6.6.4.6-1.2.5zm15.9 5.8c1.7-.1 3.5-.3 5 .1-1.7-.1-3.5.3-5-.1zM191.1 639c.7 0 1.4.1 2 .1.4.2.9.4 1.3.6-1.2 0-2.3-.2-3.3-.7zm-14.9-1.9c-.8-.2-1.6-.4-2.3-.8 3.5.6 4.8 2 6.5 2.7.8.1 1.7.2 2.5.3 1.6.8 3.4 1.3 5.2 1.7l5.4 1.2c.6-.3 2.1-.3 3.2-.1-.1.7 1.9.2 3.7.9-3.2-.1-5.7-.5-7.6-.4-2.7-1.4-8.4-1.9-12.2-3 .5 0 3.1.6 2.1.1-1.8-.3-3.5-.9-5.3-1.1.6.3 1.9.6 1.3.6-1.6-.8-6-1.5-5.9-2 2.2.9 6 1.3 4.2.3-.3.2-1.9-.2-3.4-.7s-3-1.2-3-1.4c1.6.9 6.5 2.6 5.6 1.7zm-2.3.2c0 .1-.6 0-1.3-.1-.7-.2-1.5-.4-2.2-.6 1 .1-2-.8-2.5-1.2 2.2.4 4.1 1.2 6 1.9zm50 14.2c-.6 0-1.2-.1-1.8-.1-.6-.1-1.2-.2-1.8-.2l-3.6-.6c2.3.1 6.6.4 7.2.9zm-18.6-5.7c.9.3 2 .2 2.8.7-.9.3-3.7-.6-2.8-.7zm-8.9-1.9c1.2.1 4.9.6 4.2.9-1.3-.4-2.8-.5-4.2-.9zm15.8 6.1c.1-.2 2.6-.1 3.9.4-1.3.1-2.6-.2-3.9-.4zm-71.1-36.6c.3-.1.9.2 1.5.5.5.2 1 .4 1 .1 1.9 1.2-1.4.3-2.5-.6zm-4.6-2.3c.2-.3 2.3.9 3.7 1.2.3.3.7.6 1 .8-1.6-.5-3.3-1-4.7-2zm47.3 29.6c1.2.3 4.8.8 4.2 1.1-1.4-.4-2.9-.4-4.2-1.1zm7.6 4.6c1.2 0 2.4.2 3.4.7-1.2 0-2.4-.2-3.4-.7zM165.5 634c-1.2-.4-2.4-.8-3.6-1.3 1.6.3 1.9 0 3.9.8-.9-.1 1 .7-.3.5zm-8.9-4.2c-.6-.4-1.3-.8-2.1-1.1.3.1.7.1 1 .2-.2-.1-.4-.3.1-.1 2.2 1.3.8-.1 2.1.3 1 .5 2.1.8 2.9 1.5-2.2-.7-2.4-.5-4-.8zm4.4 3.4c-.5-.4-1.6-1-1.1-.9 1 .5 2.1.8 3.2 1.1 1.1.3 2.1.7 3.1 1.3-2.6-.6-3.6-1.3-5.2-1.5zm-89.5-95.5c-.7-1.3.1-.6 1.2.4.2.5.6 1 .9 1.4-.1.1-.4-.1-.9-.5-.4-.4-.8-.8-1.2-1.3zm46.9 63.1c-1.4-.7-2.7-1.6-3.7-2.6 1.4.6 2 .2 3.9 1.9-1.4-.5-2.4-.9-.2.7zm28.2 24.5c1.7.8 1.9 1.2 1.4 1.2 1.6.6 3.8 1.4 5.7 2.2 1.9.9 3.6 1.7 4.2 2.3-3.5-1.9-8.1-3.3-10.7-4.3.7.1.3-.4-.4-.9-.4.2-.6.2-2.5-.7-.9-.6-.1-.4-.1-.5-1.2 0-1-.3-2.7-1.1 1 .9-1.7-.3-2.7-1.1.2-.2 2 .7 3.5.9 2.8 1.5 2.9 1.8 4.3 2zm30.2 18.9c-2.3-1-4.5-.8-6-1.2-.9-.5-.6-.5.1-.4.7.1 1.7.3 2.3.2.8.6 1.9.5 2.9.7 1.1.5 1.5.8.7.7zm-30.3-17.3c-1.8-1-3.7-1.9-5.5-2.8 1.4.5 2.8 1 4.1 1.6-.9-.3 3.5 1.6 1.4 1.2zm14.3 10.6c.1-.2 2.3.1 3.5.8-1.2-.3-2.6-.2-3.5-.8zm1.7 2.4c1.3.1 2.2.7 3.5.8-1.1-.6-2.3-.9-1.2-.8 1.4.6 5.3 1.8 4.9 2.1-2.1-.5-4.4-.8-7.2-2.1zm-25.9-18.6c-.5-.7-3.8-1.7-2.8-1.8 1.3.6 4.5 2 2.8 1.8zm7.1 6.8c1.9.7 3.6 1.6 5.4 2.3-.3.1-5.6-1.9-5.4-2.3zm14.6 9.6c.7.2.9.1 1.1.1 1 .5 4.5 1.7 3.9 1.8-1.5-.8-3.5-.9-5-1.9zm-39.4-26.1c1.4.7 3.1 1.6 4.9 2.6l2.7 1.5c.9.5 1.8 1 2.6 1.4-.5-.5-1.4-1.2 0-.7 0 .8 1.7 1.1 3.9 2.6-1.8-.6-3.1-1.2-2.8-.4-.5-.5-1.3-1.1-2.2-1.6-.9-.6-1.9-1.1-2.9-1.7-2-1.2-4.3-2.4-6.2-3.7zm-63.5-96.8c.6 1.3 1.9 2.3 2.3 3.7-.8-1-2.9-3.8-2.3-3.7zM92 581.4c-.5-.8-1.2-1.4-2.1-1.8-.5-.8.3-.4 1.4.3 1.1.7 2.5 1.9 3.5 2.8-1.2-.7-1.8-1.1-2.1-1.3-.3-.2-.4-.1-.7 0zm57.3 52.5c2.9.9 5.5 2.2 8.2 3.3l-1.5-.3c-2.2-1.2-4.6-1.9-6.7-3zm-35.1-28.6c1.6 1.1 5.4 3.4 5.3 3.8-1.5-1.1-5.4-3.2-5.3-3.8zm2.7 3.8c-1.8-1.6-4.2-2.8-6.1-4.4 2.6 1.2 6.8 4.2 7.5 5-.7-.5-1.2-.7-1.4-.6zm28.7 23.3c.8.2-.8-.7-.2-.5 1.1.7 2.5 1 3.5 1.7-1.2-.2-2.4-.5-3.3-1.2zm-8.3-4.1c1.7.4 3.2 1.1 4.6 1.9-1.6-.6-3.3-1-4.6-1.9zm-21.6-18.7c-2.6-1.2-2.7-1.8-4.1-3.2.8.4 1.4.6 1.5.5.2.2.4.4.7.6-1.1-.1-.1.7 1.9 2.1zm25.2 21.7c-1.2-.6-2.4-1.1-3.6-1.6-.6-.3-1.2-.5-1.8-.8-.6-.3-1.1-.7-1.6-1.1 2.3 1.1 2 .3 4 1.2 2.3 1.3-.6.6 1.3 1.4.8.1-.2-.5 1.7.1 1.2.8.4.7 0 .8zm-9.7-6.1c.3-.1.8 0 2.1.5.9.9 2.3 1.2 3.3 2.1-.3-.1-.7-.2-1-.3-1.2-1-2.3-1.1-4.4-2.3zm-28.9-24.8c.9.7 2.8 1.8 4.3 2.7s2.6 1.6 2 1.7c-.5-.4-1-.8-1.5-1.1-.5-.4-1.1-.7-1.6-1-1.2-.8-2.3-1.5-3.2-2.3zm-10.2-9.6c1.1.7 2.2 1.4 3.1 2.3-.2.1-2.3-1.3-3.1-2.3zm-1.2.3c2.1 2 8.3 6.1 7.5 6.5-1.1-1-2.7-2.4-4.3-3.6-1.4-1.2-2.8-2.3-3.2-2.9zM80.2 579c1.2.7 2.1 1.5 3 2.4-.3.1-2.2-1.4-3-2.4zm1.3 2.9c-1.4-2.1-3.8-3.7-5.5-5.8.8.4 2 1.6 3.4 2.9 1.3 1.3 2.9 2.8 4 3.8-1.1-.7-.4.1-1.9-.9zm-1-.4c-.9-1-1.6-1.5-2.3-2-.7-.5-1.5-1-2.4-2.2 2.1 1.6 1.1.8 2.2 1.3 1 1.1 4 3.5 2.5 2.9zm-11.4-11.4c.6.4 1.2.9 1.7 1.4l1.5 1.5c-.2.1-.8-.3-1.5-.9s-1.4-1.4-1.7-2zm18.2 25.3c1.7.7 2.7 1.9 4 2.9-1.4-.9-2.9-1.7-4-2.9zm.5.9c1 .5 3.7 2.7 2.9 2.5-.9-.9-2.3-1.5-2.9-2.5zm-4.9-5.3c.8.4-.7-1.1-.3-.9 1.1.6 2 1.3 2.6 2.2-1.2-.9-.5.5-2.3-1.3zm-1.1 1.4c.3.1 1.9 1.1 1.8.5-1-.7-1.7-1.5-2.4-2.4 1 .7 2.1 1.5 3.1 2.2s2 1.4 2.8 2.3c-1.6-1-2.2-.9-2.7-.8-.5 0-1.1-.2-2.6-1.8zm-23.1-36.1c.9.5 2.8 3 2.1 2.6-.6-.9-1.7-1.6-2.1-2.6zm18.7 30.5c1.1.6 2 1.3 2.6 2.2-1.1-.6-2-1.3-2.6-2.2zm-16.7-25.3c-1.5-1.7-4.4-4.8-4.4-5.6-.7-.6-1.5-1.5-2.1-2.4-.6-.8-1.2-1.5-1.6-1.5-.3-.6-.6-1.1-.8-1.6 1.1.8 1.5 1.8 1.9 1.7 1.4 2.3 2.4 3.3 3.3 3.5 1.2 1.6-.1.5.1.9.6.5 1.3 1.1 1.9 1.6 1.1 2.2-.7.5 1.7 3.4zM50.3 548c-1.1-2.3 2.7 2.1 3.4 3.5-.5-.4-.3.1-.7-.2-1.9-2.3-.8-1.9-2.7-3.3zm-3.7-3.9c-1-2.1.6-.2 1.8.8.4.7 1.1 1.2 1.4 1.9-1.7-1.1-2-2-3.2-2.7zm-4.9-10.4c1 1.1 2 2.2 2.5 3.5-1.1-1.1-1.9-2.3-2.5-3.5zM20.9 409.8c-.2-1.1-.6-4.3-.2-3.9-.1 1.1.3 2.6.5 2.6 0 .8-.2 1.3-.3 1.3zm6.5 102.3c-.4-1.3.4-.4 1.2.9.8 1.2 1.7 2.8 1.3 2.8-.9-1.9-1.4-1.5-2.5-3.7zm-7-109.3c-.2-2.4-.6-7 0-7.7-.2 3.1.5 1.4.7 2.7-.3 1.6-.6.9-.9 1.1.5 1.5.7 4 .2 3.9zm0-13.4c-.1 1.1.1 2.3-.1 3.5-.6.1-.3-5.2.1-3.5zm.7 125.5c.5.7.9 1.4 1.3 2.1s.7 1.4 1 2.2c-.6-.7-1-1.4-1.4-2.1-.4-.7-.6-1.4-.9-2.2zm-4.5-7.7c-1.3-1-1-2.1-1.6-3.5.1 1.2-1.2-.9-1.8-1.6-.6-2.3 1.9 2.5 1.3.3-.4-.4-.4-.2-1-1.3-.3-.7-1.2-3.5-.7-2.8.4 1.3 2.1 4.2 3.3 6.6 1.3 2.3 2.3 4.1 1.1 3.2.9 1.8 3.3 5.7 2.9 6.1-.8-1-3.4-5.9-3.5-7zm-2.1-2.5c.3.5.6 1.1.9 1.6s.6 1.1.9 1.6c.6 1.1 1.1 2.2 1.7 3.3-.7-1.1-1.4-2.1-2-3.2-.3-.5-.6-1.1-.9-1.6-.2-.6-.4-1.1-.6-1.7zm7.1-144.2c.2-.9.4-2.4.5-3.8.2-1.3.4-2.5.7-2.6-.4 2-.5 6-1.2 6.4zm-11 136.2c-.1-.6-.5-1.8-.2-1.4.7 2.3 1.2 3.2 2 4 .2 1.4-.9-1-1.8-2.6zm-2.4-8.8c-.1-1.1-1-2.1-1-3.2.7 1.3 1.8 4.5 1 3.2zm-.6 3.9c-.3-1.2-.3-1.7.2-1 .1.6.2 1.3.5 1.8.2.5.5.9.6 1.4-.4-.7-.8-1.5-1.3-2.2zm18.3-152.6c0 .5.2.3.1 1.5-.6.8-.6 1.9-.9 2.8 0-1.5.2-3 .8-4.3zM2.2 471.3c.2.3-.4-2.1-.4-2.3-.3-.6-.3 0-.6-.5-.8-2.5-.5-3.3.4-1.4.3 1.3.7 2.5 1 3.8.4 1.2.8 2.5 1.1 3.7-.7-1.8-1.2-2.5-1.5-3.3zM28.6 332l-.8 1.5c0-1.5 1.1-3.5.8-1.5zM-.8 459.1c-.5-1.4-.9-2.9-.9-4.3.6 1.4.8 2.9 1.1 4.3-.2-.3-.3-.5-.2 0zm34.3-145.9c.5-.9.8-1.9 1.4-2.7-.2.7.7-.1-.1 1.5.1-1-.4-.1-.7 1.1.3-.3.4-.2.4.3-.5.7-.6 1.7-1.1 2.3.5-2.2-.5-.3.1-2.5zM-4.8 444.7c-.2-2.1-1.3-6.7-1-7.2.1 1.4.6 2.9.8 4.3 0-.8-.2-1.6-.1-2.4.4 1.3.9 3.4 1.2 3.4-.2 1.1-.5 1.7-.9 1.9zm41.5-139.5c-.1.7.3.4 0 1.6-.5.7-1 .2 0-1.6zM-6.1 434.7c0-1.2.1-1.7.3-1.8.2-.1.4.1.6.5 0 .6.1 1.3.1 1.9-.4-1.2-.3 1.8-1-.6zm44.8-132.8c-.2 1.1-.6 2-1.2 2.8.2-1.1.6-2.1 1.2-2.8zM-7.2 428.3c.4 2.6.8 5.2 1.1 7.7-.6-2.7-.8-3.3-1-5.4.1.3.2.2.2-.5-.2-.5-.4-1.1-.3-1.8zm-.1-3.8c.2.6.2-.5.4-.4.7 2.8.9 5.5 1.1 8.2-.4-1.6-.5-.5-.9-2-.1-1.9-.5-3.9-.6-5.8zm50.2-132.8c-.5 1.6-.9 2.8-.4 2.4-.8 1-1.1 2.4-1.7 3.5.6-2.6-.8.9-.5-.4.6-.8.9-1.8 1.3-2.7.4-1 .8-1.9 1.3-2.8zM-8.6 421c0-1 .2-.5.3-1.4-.1-.5-.2-.2-.3-.5.1-2.1.3-.8.6.6-.1.6-.2 1.3 0 1.9.1-.5.3.3.5 1 0 .5-.1.9-.1 1.4-.7-2.7-.5-2.2-1-3zm.7-6.6c-.3-1.7-.2-3.2-.3-4.9.5 1.7.8 4.8.3 4.9zm-1.2-10.9c-.1-1.5-.3-3-.2-4.4.4 1.4.1 2.6.2 3.9.1-.3.2-.9.2-.4 0 .7-.1.8-.2.9zm.5-11c-.3 1.6.1 3.3-.2 4.8-.1-.7-.2-2-.2-3.1s.2-1.9.4-1.7zm.1 1c.1-.5.1-1 0-1.5.2-1.2.4-1.6.5-.8-.1.8-.1 1.6-.2 2.4 0-.7-.2.3-.3-.1zm.5-11.2c.3 2.7.2 5.3-.1 7.8-.3-2.6.1-5.1.1-7.8zm-.9-1.7c.5 1.1.4 4.2.2 6.5-.3-2.3-.5-4.5-.2-6.5zm2.1-11.8c.2-.4.3-.1.6-1.3.1 2.2.1 4.4-.5 6.3.2-2.4.1-4.8-.1-5zm3.5-28.8c0 1.2.4-1.5.8-1.7 0 1-1 4-1 3.2.3-1-.1-.6.2-1.5zm111.4-161.1c1.1-.6 2.2-1.4 3.4-1.7-1.5 1.4-3.1 2.5-4.8 3.6-.4.2-.9.4-1.3.5 2.2-1.7 1.9-1.4 2.7-2.4zm13.8-7.8c-2 .6-4.2 2.7-3.9 1.7 1.1-.4 4.2-2.4 3.9-1.7zm173.6-2.7c-2.1-.1-1.1.1-.1.4s1.9.6-.4.5c-1.3-.6-.9-.6-2.8-1 .5-.1 1.4-.6 3.3.1zm-4.7.1c-.5-.2-1-.5-1.6-.5-.7.1 0 .8-2 .3-.3-.3.9-.2-.2-.6 2.3.4 2.3-.4 4.6 0 .4.4 1.1.8-.8.8zM165.3 151c1.4-.7 2.8-1 4.2-1.5.1.3-1.9.9-3.2 1.7-1.6.4-.1-.3-1-.2zm136.6 18.8c1.1.5.2.6.4 1-1-.4-2.4-.2-3.4-.8 1.4-.1 1.7 0 3-.2zm-126.8-21.6c-2.3.5-1.7.8-3.7 1.2-.5 0 4.2-1.9 3.7-1.2zm128 22c.9 0 1.8.2 2.5.6-.6.1-1 .1-1.9-.1.6 0 0-.2-.6-.5zm13.5-25c-1.6-.7-3.6-.8-5.2-1.4.4 0 1 0 1.6.1.6.1 1.2.3 1.8.4 1.1.4 2 .8 1.8.9zm7.6 2.1c-2.3-.7-4.8-1.2-7-2.1 2.5.3 4.9 1 7 2.1zm3.5.7c-.7-.1-1.4-.2-2-.3-.4-.2-.8-.4-1.3-.7 1.3 0 2.2.6 3.3 1zm113.6 96.4c.7 1.3-.3.6-1.4-.4-1.6-1.6-3.4-4.3-6-6.6-.2-.4-.7-1.2-.3-.9.9.8 2.3 2 3.6 3.4 1.4 1.5 2.8 3.1 4.1 4.5zm7.4 10c.3.7.4 1.1 0 .9-1.9-2.5-3.9-4.9-5.6-7.4 1.9 2.1 3.6 4.4 5.6 6.5zm-41.5-65.7c-.6 0-3.7-2.1-5.1-3.3 2 .8 3.5 2.1 5.1 3.3zm49.8 77.1c-2.6-3.2-4.6-6.1-6.3-7.4-.2-.6-.5-1.1-.7-1.6 1.8 2.2 4.5 4.5 7 9zm-21.8-55.5c.7.5 1.4 1.1 1.9 1.7 1.4 2.1-1.8-.8.3 2-1.3-1.3-2.9-2.4-3.8-3.9 2.2 2.3 3.3 2.7 1.6.2zm37.3 86c.3 1.3-.5-.1-.7.1-.3-1-1-2-1-3 .6 1 .9 2 1.7 2.9zm-1.2-18.7c.5 1.2 1.5 1.9 2 2.4.7 1.9-.2.4-.1 1 .3.4.5.8.6 1.3-1.2-2.1-2-3.9-2.1-2.8-.6-1.1-.7-1.9-.4-1.9zm-1.6-19.4c-.4-1-1.5-1.9-1.7-2.9.8.6 2.5 3.5 1.7 2.9zm6.9 12c-1.5-2.1-2.9-4.1-3.9-6.4 1.2 2.1 2.9 4.2 3.9 6.4zm4.2 8.8c-.8-1.1-1.5-2.3-1.8-3.5.8 1.1 1.4 2.3 1.8 3.5zm1.3-1.2c.3 1.2.5 1.7.9 1.8.7 2.1-1.6-1.8-1.7-2.6.4.5.6.7.8.8zm21.6 83.9c-.3 0-.8-2.5-1-3.9.2-.1 1.1 2.5 1 3.9zm-290 290.8c.7-.1-1.3-.2-.4-.3-1.4 0-2.8-.1-4.2-.2-1.4-.2-2.7-.4-4-.7-2.7-.5-5.3-1.1-8.1-1.4 2.2.6 4.4 1.1 6.7 1.5 1.1.2 2.3.4 3.4.6l1.7.3 1.7.2c.5 0-.4-.3-.8-.5 1.3.3 2.7.3 4 .5z"/><path class="st0" d="M463.1 484.4c-.8 1.2-1.1 2.8-1.7 4.1.7-1.3 1.4-2.6 1.7-4.1zm-41.9 67.7c.7-.9.4-.9.7-1.3-.5.5-.9 1.2-1.4 1.8-.1 0-.3 0-.8.3-.6 1.1.6-.1 1.5-.8zm47.8-46.4c.8-1.8-1.4 2.6-1.7 2.1-.2.9.2.6.2.8 1.2-1.6.3-1.2 1.5-2.9zm-19.3 22.5c.5-1 .4-1.2-.4-.4.1.2-.4 1.2-1.1 2.1-.4 1 1.2-1.3 1.5-1.7zm4.4-3c.2 0-.1.7.5-.1.5-1.2.7-1.7.7-1.9-.6.7-.9 1.7-1.5 2.3-.1.4.2-.1.3-.3zm-49.3 39.4c-1.3.7-.7.9-1.1 1.5-.8 1-.2-.1-1.5.8-1.5 2-3.4 3.4-5.3 4.7-.2.4-.2.6-.4 1 1.3-1.5 4.4-4.2 7-6 .5-.9 1.4-1.7 1.3-2zm53.3-41.8c-1.5 2.4-2.8 4.4-4 6.4-.6 1-1.2 2-1.9 3s-1.3 2.1-2.1 3.3c.5-.4 1.2-1.6 1-.9 1.3-1.5.6-1.1 1.7-2.8.1.6 3.9-5.8 3.1-4 .9-.7 2-3.9 2.2-5zm-72.4 53.8c-1.2.5-5.3 3.4-7.5 5.1 2.5-1.7 5.1-3.3 7.5-5.1zm111-102.8c-.3-.1.5-1.6.5-3.1-1.1 2.9-.9 3-1.2 4.3 0 .6.3-.7.7-1.2zm-45.3 59.1c-.9 1.5-2.1 2.7-2.8 4.3 1.2-1 1.9-2.8 2.8-4.3zM392 577.4c.9-.9-.3-.1.2-.7-.9.5-1.6 1.3-2.4 2-.5.7 1.5-1.3 2.2-1.3zm80.9-60.5c-.2.5.2-.1.4-.2-.3 1-1 1.7-1.2 2.8 1.1-1.6 2.2-3.1 2.7-5.2-1 1.4-1.1 2.2-1.9 2.6zm-34.1 39.9c-1.5 2-1.5 1.4-3.2 3.4-.5 1.2-.3 1-.9 2 1.2-1.8 3.9-4.7 4.1-5.4zm-89.3 45.3c.4 0-.1.3-.6.6s-1.1.6-.8.7c1-.1 1.8-1.1 2.8-1.2-.4-.2 1.6-1.4-.2-1-1 .7-2 1.3-3.1 1.7-1 .4 1.4-.7 1.9-.8zm-7.3 2.8c-1.9.5-3.6 2.1-5.6 2.2-1.3.8 1.2-.2.5.3.4-.2.9-.4 1.3-.6l1.3-.6c.8-.3 1.7-.8 2.5-1.3z"/><path class="st0" d="M333.8 608.8c.8-.2.4.2 1.3 0 1.1-.6 2.3-1 3.5-1.5 1.1-.5 2.3-.9 3.4-1.3-.3-.3-1.3.2-2.6.7-1.2.5-2.7 1-3.6 1.1-1.3 1-2.7 1.2-4.1 1.4-2.4 1-2.3 1.3-4.4 2.3.8-.2 1.7-.5 2.5-.7 1.1-.6-.2-.2.4-.6.4-.2.8-.3 1.2-.6.5 0-.9.7.9.2 1-.4 1.4-.7 1.5-1zm117.4-44.7c.2-.5-.2 0-.4.3-.6.5-1.1.9-.9.5-.6.5-1 1.4-1.5 2.1 1-.9 1.9-1.9 2.8-2.9zm-35.6 31.7c.6-.7-5.4 3.4-7.1 5.3.6-.4 3-2.6 2.4-1.7 1.6-1 3-2.8 4.7-3.6zm-20.8 13.7c-1.7 1-2.8.9-5.1 2.8.7.4 4.6-2.8 4.4-1.8 1.9-1.3-1 .5.7-1zm-88.2 24.6c1-.6-1.7.3-2.3.2-.9.3-.4.5-1.4.6-.5.2-.3.2 0 .2h.9c-.5 0 2.2-1.1 1.4-.6.9 0 .5-.3 1.4-.4zm38.9.4c-.1-.3-4 1.3-5.5 1.8.5-.7-3.3.4-4.7.6.2.4 1.5.5 2.4.7.2-1 2.9-1 6-2.2.1-.3.6-.6 1.8-.9zm-15.3 3.7c-.3-.1-1.6.3-3.1.8-.8.2-1.5.5-2.3.7-.8.2-1.5.4-2 .5-1.4.7 3.3-.8 1.9 0 .8-.3 3.4-1.5 5.5-2zm4.7-.1c1.9-.8-.2-.2-.9.1-.8.1-.9 0-.5-.3-.8.2-1.5.5-2.3.7.9-.1 1.6.2-1.4.7-.5.3.8 0 1.4 0 1.2-.6 2.5-1 3.7-1.2zm-23.9 6.6c.8-.1 1.6-.4 2.4-.5 1.8-.7-.4-.3 1.4-1-1.5.5-1.6.7-3.8 1.5zm-21.6 8c.2-.3.7-.2 2-.7-1.8.1 1.1-.6-1.4-.4-.5.2-1 .3-1.5.5.9.1 1.7.2-1 .5-1.2.4 1.5-.1 1.9.1zm-34.9-3.2c1.2.1.3-.2-.5-.1-.3-.2.2-.3 1.1-.5-1.5-.1-3.7.6-2.1.7.5-.1 1-.2 1.5-.1zm-50.9-15c-.6-.2-.7-.1-.5 0-1.5 0-2.5-.9-4.1-.7 1.3.7 3 .7 4.5 1 .4-.1-.5-.3.1-.3zm32.9 21.2c1.9.4 3.9.5 5.9.4-2.2-.5-4.5-.5-6.7-.9-1.2.6-4.5-.1-7.1-.1.2 0 2.1.3 3.9.5.9.1 1.8.2 2.6.2.7.1 1.2 0 1.4-.1zm-6.2-1c-2.6-.3-5.4-.1-7.9-.7-.8.9-7.6-1.2-11.4-1.3-.1.1.9.4.3.5 2.2.2 4.5.1 6.4.9 1.6 0 3.2.3 4.7.4 1.6.2 3.1.3 4.7.5.6-.1-.7-.3-1.3-.5 1.5 0 2.8.4 4.5.2zm4.7 2.3c-.4-.9-11.7-1.8-14.2-1.7 4.6.6 11.5.7 14.2 1.7zm-36.5-5.7c-1-.2-1.9-.4-2.9-.7l-2.9-.7c-.1.2.9.5 2.2.8 1.3.3 2.7.5 3.6.6zm-25.8-6.9c-1.4-.5-3.9-1.5-6.5-2.5-2.7-1-5.6-1.9-7.8-2.7 1.7 1.1 3.9 1.3 4.4 2.1.7-.4 3.8 1.4 5.8 1.7 1.6.8-1.7.1 1.1 1-.7-.8.7-.3 3 .4zm.5 1c.1-.2-.9-.5-2.1-.9-1.2-.3-2.7-.8-3.4-1.1-1.2-.1 1.7.7 2.1 1.2 1.8.2 1.4 0 3.4.8zm-15.7-6.6c-3.1-1.5-6.2-2.9-9.5-4.1.9 1.5 6.4 3.1 9.5 4.1zm-47-24.4c-1.2-.9-2.4-1.6-4.6-2.9l1 1c1.5.4 2.3 1.3 3.6 1.9zm-23.8-15.6l2.7 1.5c-1.9-1.7-2.4-1.2-4.4-3.2-1-.5 1.3 1.2 1.7 1.7zm-21-19.3c0-.5-.6-1-1.3-1.6-.7-.6-1.6-1.4-2.1-2.5-.2 0-.4-.1-1-.6 1.2 1.8 2.9 3.2 4.4 4.7zm-30.1-35.8c.6 1.1.4.1-.2-.4-.3-.8.6.1.9.2-.9-1.4-2.2-2.6-2.8-4-1.9-1.4-2.8-3.8-4.4-6.1-1.3-1.8.3 1.1-1-.7 1.7 2.3 2.9 4.8 4.7 7 .4.8 0 .5.4 1.4.3-.2 1.6 1.5 2.4 2.6zM1.1 471.8c-.4-2.5-1.9-5-2.1-7.6-.3-.5-.1.8-.1 1.4 1.1 2.1 1 4.2 2.2 6.2zm-10.6-50.5c.3 0-.1-6.2-.4-6.3.1 2 .4 4.2.4 6.3zm1.6-48.4c-.2-.8-.4-.7-.6-1.2-.2 1.3-.2 2.6-.2 4 .4-.9.2-2 .2-2.9.3-.9 0 3.1.6.1zm79.1-166.4c0 .6 2.6-2.3 3.7-3 .3-.4.1-.3-.1-.2-.3.2-.5.3-.8.5-.8 1.1-1.8 1.8-2.8 2.7zm152-38c2.4-.3 4.9-.5 7.3-.5 1.1-.6 4.2-.6 6.5-.7.3-.1 0-.2.5-.3-.4-.1-.2-.1 0-.2-2.4.3-4.8.5-7.1.7-2.5.3-4.8.4-7.2 1zM338 149c2.6.8-.3-.6 2.3.2-.4-.2-.9-.4-1.3-.6-.3-.1-.7-.1-1-.2 2.2.9-2.4-.5 0 .6zm20.1 9c2.2 1.6.1-.7 2.5.7 1 .1-1.8-1.2-2.7-1.2 1 .6 1.2.8.2.5zM201.2 415.5c.5 1.2 1.3 2.3 2.3 3.2 5.5 5.2 11.2 10.2 17.9 14 1.9 1.1 3.8 1.7 5.7 0 1.6-1.4 3.2-1 4.9-.2 3.1 1.4 6.2 1.2 9.3-.4 1.8-.9 3.8-1.7 5.7-2.1 2.4-.6 3.8-1.9 4.6-4.2.4-1.2 1-2.4 1.6-3.6 1.3.5 2.6 1 4 1.5 1 .3 2 .7 3 .5.9-.1 2.3-.7 2.5-1.4.7-1.8 2.1-2 3.5-2.3 4-.8 7.4-2.8 10-5.9 1.1-1.3 2.2-2.8 4.4-2 .4.2 1.3-.5 1.8-1 .7-.7 1.3-1.6 1.9-2.4 1.4-2 2.9-3.7 5.6-3.7 1.5 0 2.8-.8 3.4-2.4.7-1.9 2.1-3.1 4.2-3.4 1.3-.2 1.3-1.5 2-2 .8-.5 2.2.1 3.2-.2.7-.2 1.6-1.1 1.7-1.8.1-1.7 1.4-2.5 2.3-3.6 4.4-4.7 6.2-10.5 8.2-16.4.3-.8.2-1.7.3-2.6.6-6.5-2.2-12.3-3.8-18.4-.1-.3-.3-.5-.5-.7-1-1.6-2.1-3.2-3-4.8-1.1-2-2.5-3.6-4.7-4.4-2-.7-3.6-1.9-5.1-3.4-1-1-2.3-1.9-3.5-2.6-2.3-1.3-3.8-3.1-4.2-5.8-.3-1.9-1.6-3.3-2.8-4.9-1-1.5-1.3-3.5-2.3-5.1-.8-1.4-1.9-2.6-3.5-3.2-.7-.2-1.4-.6-1.9-1.1-3.4-3-7.4-3.4-11.6-2.3-2.7.7-5.3 1.6-7.9 2.6-1.9.7-3.7 1.9-5.6 2.6-6.1 2.2-11.6 5.8-16.9 9.2-8.9 5.7-16.7 12.9-23.6 21-5.8 6.8-10.3 14.2-13.3 22.6-1.1 3.2-2.2 6.4-3.1 9.6-.5 1.7-.6 3.4-.7 5.2-.1 2.3 0 4.7 0 6.5-.8 7.6 1.3 13.8 4 19.8zm32.5 14.8c-1.3-.2-2.1-.4-3-.5-.7-.1-1.6-.2-1.5-1.1.1-.5 1-.8 1.6-1.1 1.2-.5 2.3-.3 3.1.7.3.4.6 1 .6 1.4 0 .3-.7.5-.8.6zm30.2-12.6c-.2.8-1.6 1.5-2.9 1.3-1.1-.2-1.2-1-1.1-1.9s.2-1.8 1.4-1.7c1.6.2 2.8 1.4 2.6 2.3zm5.6-4.8c-.3.2-.7.3-1.1.4.2-.4.4-.9.7-1.3.3-.3.7-.4 1.1-.5.1 0 .2.2.5.4-.4.3-.7.7-1.2 1zm6-3.7c-.2.1-.6-.3-.8-.5.4-.5.8-1 1.3-1.5.3.3.6.5 1 .8-.7.6-1 1-1.5 1.2zm-48.9-31.7c.5-1.9 4.7-3.8 6.5-2.9.2.1.3.5.5.8-.1.3-.2.8-.4 1.1-.9 1.1-1.9 2.2-2.9 3.2-.7.7-1.4 1.7-2.5.8-1-.7-1.5-1.8-1.2-3zm-5 25c.4-1.8 1-3.6 1.6-5.4 1.2-3.3 2.7-6.5 4.7-9.4 1.5-2.1 3.3-4.1 5.3-6 1.4-1.3 2.9-2.5 4.2-3.9 2.1-2.2 4.3-4.3 6.3-6.5.5-.6 1-1.1 1.5-1.7.7-.9 1.4-1.7 2.2-2.5 2.2-2.4 4.6-4.5 7.5-6.2 0 0 .1 0 .1-.1.1 0 .2-.1.2-.2 1.8-1.1 3.5-2.4 5.3-3.6.3-.2.7-.5 1-.7 2.1-1.5 4.4-2.6 6.7-3.5 1.1-.4 2.1-.7 3.3-1l1.2-.3c.1 0 .3-.1.4-.1s.3-.1.4-.1c.2 0 .5-.1.7-.1.2.1.4.1.6.2.3.1.5.2.8.3l.9.3c.4.1.8.3 1.3.4h.1c.1 0 .2 0 .2.1.3.1.6.1.8 0 .2-.1.4-.1.6-.2.7-.1 1.2 0 1.6.3l.1.1c.1.1.2.2.3.2.4.3.7.8 1 1.2 2.1 3.1 4.7 5.8 7.3 8.4.5.4.9.9 1.4 1.3.9.9 1.1 1.5.6 2.5-.1.3-.3.5-.5.9-.4.6-.8 1.1-1.2 1.7-.1.2-.2.3-.3.5-1.3 2.9-3.2 5.3-5.4 7.3-1.5 1.4-3.2 2.7-4.9 3.9-4.2 2.7-8.5 5.2-13 7.4-6.9 3.3-14 6.3-20.9 9.5-1 .5-2.1.9-3.1 1.4-1.4.7-2.8 1.2-4.2 1.7-5.1 1.7-10.4 2.5-15.7 3.3-.6.1-1 0-1.2-.2.1-.2 0-.6.2-1.2zm108.8 44.6c2.3 1.2 4.5 2.7 6.8 4.1.9.5 1.8 1 2.7 1.3 1.1.4 2 0 2.4-1.2.2-.6.4-1.1.6-1.7 1.3-5.1 2.4-10.3 3.9-15.3 1.6-5.5 2.7-11.1 5.8-16 .3-.5.5-1.2.4-1.6-.1-.6-.7-1.1-1.1-1.6.7-.3 1.5-.5 2-.9.7-.7 1.3-1.5 1.7-2.5.6-1.5.9-3.1 1.3-4.7.1-.5-.1-1.3-.5-1.5-.3-.2-1.2 0-1.5.4-1.1 1.6-2 3.2-3 4.8-.1.2-.3.3-.5.4-.1-.3-.2-.6-.1-.8 1.6-3.1 3.2-6.2 4.9-9.3.2-.4 1-.8 1.4-.7 1.8.6 2.5-.6 3.1-1.7 1.9-3.6 3.6-7.3 5.4-11 .4-.8.7-1.2 1.6-1 2.4.4 4.7.2 6.9-.8 5.8-2.5 11.6-5 16.7-8.8 2.2-1.7 4.6-3.1 7-4.6 1-.7 2-1.2 3.3-.6s2.2-.1 3.2-.8c2.2-1.7 4.5-3.2 6.7-4.9 3.1-2.5 6.3-4.9 9.1-7.6 4.8-4.7 7.9-10.2 7.3-17.3v-4c0-5.1-5.3-12.2-11.3-12.9-1.7-.2-3.5-.5-5.1-1.2-2.5-1-5.1-1.3-7.8-1.2-2.5.1-5 0-7.5.2-2 .1-3.3-.8-4.2-2.5-1.2-2.5-2.7-4.9-2.9-7.8-.1-1.1-.4-2.1-1.4-2.5-3.2-1.3-6.2-3.1-10-3-4.5.1-7.6 1.7-9.3 5.8-1.1 2.6-2.3 5.1-3.3 7.7-1.3 3.2-3.5 5.4-6.6 6.7-2.5 1.1-5.1 2.3-8 2.1-1-.1-1.8.5-1.6 1.6.2 2.2-1.1 3.2-2.7 4.2-.7.5-1.5.9-2.2 1.4-.3.3-.7.8-.6 1.1.2.5.7.9 1.1 1.1 1.1.6 3.1-.2 3.4 1.3.2 1.1-.8 2.4-1.3 3.6-1.1 2.7-1 3.2 1.1 4.9.5.4.9.7 1.4 1 4.8 3.2 4.1 1.9 2.4 8.1-.2.6-.4 1.1-.7 1.6-2.8 3.7-4.1 8-5.8 12.3-3.4 8.4-7 16.7-10.7 25-3.1 7-6.5 13.8-8.4 21.2-.5 1.8-1.2 3.6-2.2 5.3-2 3.3-1.5 7.1-2.3 10.6 1.3 5.7 3.3 11.1 9 14.2zm23-36.1c.1-.4.5-.6.8-1 .1.3.2.5.4 1-.2.4-.4.9-.7 1.4-.1.2-.4.1-.7.2.1-.6.1-1.2.2-1.6zm56.1-50.4c-.4.6-.8 1.3-1.3 1.7-3.3 2.1-6.7 4.1-10.1 6-.2.1-.6.1-.9 0-.1-.3 0-.7.1-1 .1-.4.4-.8.7-1.1 3.4-2.3 6.7-4.5 10.2-6.7.3-.2.9 0 1.5.1-.1.6 0 .9-.2 1zm6.2-3.7c-.1 2.2-2.6 4.2-4.3 3.5 0 0-.1 0-.1-.1-.3-.4-.5-.9-.4-1.3.2-1.5 2.3-3.1 3.8-2.9.2 0 .4.2.6.3l.3.3c0 .1 0 .1.1.2zM394.9 323c2.9-.1 5.9 0 8.8-.1 2.2-.1 4.3.2 6.5 1 1.8.7 3.6 1.1 5.5 1.4 2.9.5 5.1 1.6 6.7 3.4-1.6-1.6-3.7-2.7-6.4-3.1-1.9-.3-3.8-.8-5.5-1.4-2.1-.8-4.2-1.1-6.5-1-2.9.1-5.9 0-8.8.1-1.4 0-2.5-.4-3.3-1.4.8.8 1.8 1.1 3 1.1zm-5.1 46.7c.4-.2.8-.2 1.3-.3 2-.4 3.6-.4 4.3 0 .3.2.4.4.3.7-1 1.7-2.4 2.7-4.5 2.4h-.4l-.3-.3-.5-.5.1.1c-.5-.8-1.7-1.4-.3-2.1zm-10.5 5.6c1.1-.2 2.2-.1 3.2-.2l.1-.1c.1 0 .2-.1.4-.1h.1c-.1 0-.2.1-.3.2h-.2c-.2.1-.4.2-.6.4-.7.5-1.4.9-2.1 1.3-.6.3-1.3.4-1.9.2-.6-.1.3-1.6 1.3-1.7zm-49.9 69.4c2.8 2 6.1 3.3 9 5.5 1.4 1.1 2.4.6 2.9-1.1 1.2-4.2 2.2-8.5 3.4-12.7 1.5-5.3 3.1-10.7 4.8-16 .4-1.3 1.6-2.5.6-3.7-.2-.1-.3-.3-.5-.4-.1 0-.1-.1-.2-.2 0 0-.1-.1-.2-.1-.3-.2-.3-1.1-.2-1.7.3-1.9.3-3.9 1.1-5.5 1.8-3.8 4-7.5 6-11.2.2-.3 1.2-.4 1.4-.2l.3.3c-.2-.2-1.2 0-1.4.2-2.1 3.7-4.3 7.4-6 11.2-.8 1.7-.8 3.7-1.1 5.5-.1.4-.1 1.1.1 1.5.3.2.5.4.7.6 1.5 1.3.1 2.6-.3 4.1-1.7 5.3-3.3 10.6-4.8 15.9-1.2 4.2-2.2 8.5-3.4 12.7-.5 1.7-1.5 2.2-2.9 1.1-2.8-2.1-6.1-3.5-9-5.5-.9-.6-1.7-1.3-2.4-2.1.6.7 1.3 1.2 2.1 1.8zm245.3-6.6c-.8.2-1.7.5-2.5.8-1.4.6-1.9 1.7-1.9 3.5.2.9.5 2.2.9 3.4.4 1.2 2.1 2.2 3.2 1.8 1.6-.6 3.3-1.3 4.7-2.3.7-.5 1.3-1.7 1.3-2.6.1-3.3-2.4-5.3-5.7-4.6zM55 404.4c2.6-.9 5-.7 7.6.1 1.5.5 3.2.2 4.8.1 2-.1 4.1-.3 6.1-.4 1.6 0 2 .6 1.7 2.3-.4 1.9-.9 3.7-1.3 5.6-.9 4-1.6 8-1.3 12.2.2 3 1.1 5.8 3.6 7.7 1.4 1 1.4 1.9.6 3.2-.4.7.1 1.5.9 1.6.9.2 1.7.2 2.6.2 1.3.1 6.2 1.8 7.3 2.5 2.9 1.9 3.8 1.6 5-1.8.3-.8.5-1.7.7-2.5 1.6-5.8 2.2-11.8 4.5-17.4.3-.8.2-1.7.4-2.6.2-1.1.4-2.3.8-3.4 1.5-4.3 3.4-8.4 4.2-12.9.6-3.2 3-4.4 6-3 2.1 1 4 .8 5.9.1 2-.8 4.1-.9 6-.4 3.2.9 6.1.5 8.8-1.4.8-.5 1.7-.8 2.3.3.5.8 1.3 1.5.6 2.8-1.7 2.9-3.2 5.9-4.8 8.9-.6 1.2-1.4 1.7-2.8 1.2-1.8-.6-1.9-.5-2.4 1.2-.6 1.9-1.3 3.9-1.7 5.9-.1.5.3 1.3.7 1.8.1.1 1-.3 1.5-.5.3-.1.5-.3.7-.5 0 .4.2.8.1 1.2-.9 2.5-1.8 5-2.7 7.4-.7 1.8-1.5 3.5-2.2 5.3-1.2 3-1.1 6 .5 8.9 1.3 2.3 2.1 4.9 4.6 6.2.6.3.9 1.1 1.4 1.6 1.2 1.2 2.5 2.5 3.8 3.6 1.6 1.3 3.2 2.5 4.9 3.8.5.4.9.8 1.4 1.1 1.8 1.1 3.4.7 4.4-1.2.5-.9.7-2 1.3-2.7 3-3.6 3.3-8.4 5.7-12.3 1-1.6 1.5-3.5 2-5.3.5-1.5.7-3.1.9-4.7 0-.3-.4-.8-.7-.9s-1 0-1.1.3c-.9 1.5-1.7 3.1-2.7 4.5-.8 1.3-.9 3.1-2.8 3.6l-.1.1c1.5-2.8 2.3-5.7 2.1-8.9-.1-.8.2-1.7.4-2.6.1-.3.3-.5.5-.7l.6.9c.3.5.5.9.8 1.4.4-.4.9-.6 1.2-1.1 1.1-1.7 2.2-3.5 3.2-5.2.4-.6.6-1.3.8-2 .1-.2-.1-.6-.3-.7-.2-.2-.6-.3-.8-.1-1.4 1.1-2.7 2.3-4 3.4.1-2.5 1.1-4.3 3.9-4.3 2.3 0 3.3-1.4 4.3-3.1 3.3-5.7 6-11.7 8.7-17.7 1.5-3.5 3.5-6.7 5.1-10.2.7-1.5 2.5-2.6 1.6-4.7-1.3.7-2.7 1.4-4 2.1v.1h-.2c-.1.1-.2.1-.3.2 0-.1.1-.2.1-.2h.1l.1-.1s.1 0 .1-.1c.4-3.4 2.8-5 5.6-6.5 5-2.7 8.6-6.6 9.4-12.4.5-3.6 1.8-6.7 4.6-9.2 1.7-1.6 2.9-3.8 3-6.2.1-2.5 1-4.5 2.3-6.5 1.7-2.4 2.1-5.1 1.9-8-.1-1.3-.4-2.6-.4-3.9-.1-4.4-1.4-8-5.2-10.6-.5-.3-.9-.8-1.3-1.2-2.7-2.7-5.3-2.9-8-.3-2.1 2.1-4.1 4.4-4.9 7.2-1.6 5.6-4.6 10.5-7.5 15.4-4.6 7.8-9.5 15.5-14.3 23.2-2.7 4.4-2.1 3.8-7.4 2.9-.4-.1-.9-.2-1.2-.5-1.8-1.3-3.9-1.1-5.9-1.2-2.4 0-4.6 1.1-6.8 1.3-3.5.3-6 2-8.8 3.7-1.3.8-2.5 1.5-3.8 2.2-.4.2-1 .1-1.5.1.1-.5 0-1.2.3-1.6 1.1-1.9 2-3.9 4.4-4.7.8-.3 1.5-1.3 2-2.2 1.2-2 2.1-4.2 3.3-6.2 1.9-3.4 4.8-6.3 5.5-10.4 1.9-1.8 1-5.6 4.4-6.4.3-.1.5-1 .6-1.6.6-6 2.1-11.8 1.4-17.9-.2-1.6-.5-2.8-1.9-3.7-.7-.5-1.8-1-1.9-1.7-.4-2.5-2.7-3.4-3.9-5.1-2.3-3-5.4-3.8-8.9-4-1.6-.1-2.9.4-3.7 1.8-1.5 2.5-3 5-4.4 7.6-1.6 2.8-2.8 5.9-4.6 8.5-2.2 3.2-3.9 6.6-5.2 10.1-2.2 5.8-5.2 11.1-9 16-1.6 2.1-3.3 4.3-3.9 6.8-1.2 4.4-3 8.6-4.6 12.8-.4 1.1-.5 2.3-.8 3.4-.4 1.4-.7 2.8-1.3 4.1-.9 2-2 3.9-3 5.8l-3.3 5.7c-.2.4-.6.8-1 .8-3 .2-4.9 3.2-8.1 3.2-1.7 0-3.4 1.2-2.7 3.6.1.3-.1.9-.4 1.1-1.2.8-2.5 2.1-3.8 2-3.3-.2-5.5 1.7-7.8 3.5-.3.2-.4.7-.5 1.1.5.1 1 .4 1.3.3zm110.4-15c0-.1 0-.1.1-.2 0-.7-.2-1.3.6-1.7 0-.1 0-.1.1-.2l.1-.1c-.1-1.4.6-2.4 1.4-3.4v-.2l.1.1-.1.1c.4 1.5-.7 2.4-1.4 3.4v.2c-.1 0-.1.1-.2.1-.2.6-.4 1.1-.6 1.7 0 .2 0 .2-.1.2 0 .1 0 .2-.1.2 0 0 .1-.1.1-.2zm-3.9 7.5c.2-.1.3-.2.5-.3-.2.1-.3.3-.5.4l-.3.6c.2-.2.3-.5.3-.7zm296.3 12.9c0 .1 0 .2.1.2s.2 0 .3.1c0-.1-.1-.3-.1-.4 0 0-.2 0-.3.1zm-4 8c0 .1 0 .2.1.2s.2 0 .3.1c0-.1-.1-.3-.1-.4 0 0-.2 0-.3.1zm1.8 18c.1 0 0 0 0 0zm105.2 13.6l-.4.4c.2-.1.5-.2.7-.3-.1 0-.2-.2-.3-.1zm-.7.6h.2c0-.1.1-.1.1-.2-.1 0-.1 0-.2.1 0 0-.1 0-.1.1z"/><path class="st0" d="M568.5 450.9c-3.3.6-6.7.8-9.8 1.9-5.3 1.9-10.5 4.2-15.6 6.6-2.2 1-4.3 1.5-6.6 1-2.7-.6-5.4-1.3-8-2.1-3.3-1-3.3-1.1-3.3-4.9 0-.9.1-1.9-.2-2.7-.5-1.6.4-2.2 1.5-2.8 1.6-.9 3.2-1.7 4.8-2.7 5.6-3.8 6.3-9 2.5-15.1-1.9-3-7.2-3.5-9.7-1-1.9 2-3.2 4.4-4.9 6.5-.6.8.4 2.5-1.1 2.6-.9 0-1.8-.9-2.7-1.6-.9-.6-1.7-1.3-2.4-2.1-1.4-1.5-3-1.8-5-1.2-1.6.5-3.2.7-4.8 1.1h-.1v-.1c-.2-.3-.4-.8-.7-.9-3.2-1.3-5.8-3.4-8.1-5.8 0 0 0-.1-.1-.1h.1s-14.3.1-14.9 3.8c.2.2.4.3.6.5l.5.4h.1l4.2 2.6c.7.5 1.5 1 2.3 1.5 2.7 1.7 5.4 3.4 8.1 5.2 1.4 1 1.3 2-.2 2.7-1.4.7-2.8 1.2-4.2 1.6-4 1.1-7.9 2.2-11.9 3.2-1.3.3-2.7.4-4 .7-.9.2-2 .7-2.8.5l-4.2 9.1v.2c0 .3-.5.8-.8.8-2.6 0-5.2-.2-7.7-.3v-.4c-2.1-.1-4.3-.1-6.4-.3-3.6-.2-6.8-1.5-9.7-3.4-.2-.1-.3-.5-.3-.8 0-.2.4-.4.6-.5.3-.1.6-.1.9 0-2.9-1.1-10.5.2-14.4-1.9.6.4.6 1-.1 1.4-.1.1-.3.1-.4.2-1.6.5-3.7.6-3.6 2.8.2 2 2.3 2.1 3.8 2.6 6.4 1.9 12.8 3.8 19.3 5.7 5 1.4 10 2.7 15 4.1 5 1.3 10.1 2.5 15.4 1.7.6-.1 1.6 0 1.7.2.6 2.1 2 1.3 3.2 1.1 4.7-.8 9.4-1.3 14.1-.8 2.2.2 4.3.1 6.3-.8 3.8-1.7 7.7-1.5 11.7-1.1 1.4.1 2.7.5 4.1.7 8.6 1.4 17 1 25-2.9 3.9-2 8.1-3.5 12.1-5.5 2.3-1.1 4.4-2.7 6.6-4.1.6-.4 1.5-1.3 1.4-1.7-.8-2.3 1.1-2.4 2.3-3.1.4-.2.8-.5 1.1-.8.2-.3.3-.8.3-1.2-.1-.1-.6-.3-.9-.3zm-5.5 2.4c-.1 0-.1.1-.2.2h-.2l.1-.1c.2 0 .3 0 .3-.1.1-.2.3-.3.4-.4 0 0 .2.1.3.1-.2.2-.4.2-.7.3z"/><path class="st0" d="M446.6 456.1c4.1 1.4 8.3 1.4 12.5 1.6 3.2.1 6.4.7 9.5 1.2.2 0 .5.4.6.7l3.8-9.3c-1-.1-2-.5-2.9-1-3.1-1.8-6.4-3.6-9.3-5.8-2.6-1.9-4.3-4.5-5.2-7.7h-.1l.1-.1v.1c1.4.2 2.8.5 4.2.6 5.4.6 10.8.9 16-1.4.6-.3 1.2-.7 1.8-1.1 0 0 .1-.1.1-.2 0 0 0-.1.1-.1v-.1l1.3-1.5c.4-3.6 14.1-4.3 14.1-4.3 7.1-1 13.9-2.9 20.5-5.7 7.3-3.1 12.5-8 16-15 .9-1.8 1.8-3.7 2.6-5.6 1.5-3.3 1.7-6.8 1.1-10.3-1-5.8-2.2-11.5-3-17.3-.6-3.7-2.1-6.7-4.8-9.1-2.5-2.3-5-4.5-7.4-6.9-3.7-3.5-8-6-12.8-7.4-4.6-1.4-9.3-2.6-14.1-3.6-3.9-.8-7.8-1.5-11.8-.9-8.7 1.3-17.3 3.2-25.6 6.2-7.6 2.8-14.9 6.3-21.1 11.6-2.9 2.5-5.7 5.1-8.6 7.5-3.9 3.2-6.3 7.3-7.5 12.1-.5 2-.9 4-1.1 6-.8 7-1.7 14-2.3 21-.6 6.6-.2 13.2 1.4 19.7 1.3 5.3 5 9.2 6.7 14.3.2.5.8.9 1.2 1.3 3 3.4 6.3 6.5 10 9.1 3.9 2.1 11.1.5 14 1.4zm22.1-56.2c-1.2 0-2.4.3-3.5.1-.5-.1-1.1-.9-1.3-1.5-.1-.3.5-1.1.9-1.2 4.4-1.7 8.1-4.6 12-7.3 3-2.1 5.9-4.3 9-6.3 4.3-2.7 9.3-2 12.7 1.8 2.1 2.3 3.8 4.7 4.6 7.8.9 3.8-1.1 8.4-4.8 9.7-2.5.9-5.1 1.4-7.7 1.9-2.1.4-4.3.7-6.5.8-2.4.1-4.6.8-6.7 2-1.9 1-3.8 1.6-6.4.8-.9.1-2.2.2-3.5.4-.9.1-1.7.3-2.6.4-1.2 0-2.3 0-3.5-.1 1-.7 2-1.4 2.9-2.2 1.8-1.7 3.5-3.4 5.3-5.2.6-.7 0-1.9-.9-1.9zm-17.1 43.9zm2.3-25.8s0-.2-.1-.2c.1 0 .2-.1.3-.1 0 .1.1.3.1.4-.1-.1-.2-.1-.3-.1zm4-8s0-.2-.1-.2c.1 0 .2-.1.3-.1 0 .1.1.3.1.4-.1-.1-.2-.1-.3-.1zm-3.4-6c1.3-.9 2.8-1.6 4.4-1.1.3.1.6.6.7 1 .1.2-.2.6-.4.7-1.3.5-2.6 1-4.1 1.6-.5-.4-1-.7-1.2-1.1 0-.3.3-.9.6-1.1zm-4 8c.9-.6 1.8-1.1 2.8-1.2.5-.1 1 0 1.6.1.3.1.6.6.7 1 0 .2-.2.6-.4.7-1.3.5-2.6 1-4.1 1.6-.5-.4-1-.7-1.2-1.1 0-.3.3-.9.6-1.1z"/></svg>